<svg width="11" height="12" viewBox="0 0 11 12" fill="none" xmlns="http://www.w3.org/2000/svg">
<path fill-rule="evenodd" clip-rule="evenodd" d="M10.3381 1.16277C10.555 1.37973 10.555 1.73148 10.3381 1.94844L1.44917 10.8373C1.23222 11.0543 0.880458 11.0543 0.6635 10.8373C0.446542 10.6204 0.446542 10.2686 0.6635 10.0517L9.55239 1.16277C9.76935 0.945809 10.1211 0.945809 10.3381 1.16277Z" fill="#E6E6E6"/>
<path fill-rule="evenodd" clip-rule="evenodd" d="M10.4795 1.02135C10.7745 1.31641 10.7745 1.7948 10.4795 2.08986L1.5906 10.9788C1.29553 11.2738 0.817141 11.2738 0.522078 10.9788C0.227016 10.6837 0.227015 10.2053 0.522078 9.91024L9.41097 1.02135C9.70603 0.726283 10.1844 0.726283 10.4795 1.02135ZM10.3381 1.94844C10.555 1.73148 10.555 1.37973 10.3381 1.16277C10.1211 0.945809 9.76935 0.945809 9.55239 1.16277L0.6635 10.0517C0.446542 10.2686 0.446542 10.6204 0.6635 10.8373C0.880458 11.0543 1.23222 11.0543 1.44917 10.8373L10.3381 1.94844Z" fill="#E6E6E6"/>
<path fill-rule="evenodd" clip-rule="evenodd" d="M2.50078 1.53338C2.50078 1.23883 2.73956 1.00005 3.03411 1.00005H9.96745C10.262 1.00005 10.5008 1.23883 10.5008 1.53338V8.46672C10.5008 8.76127 10.262 9.00005 9.96745 9.00005C9.6729 9.00005 9.43412 8.76127 9.43412 8.46672V2.06672H3.03411C2.73956 2.06672 2.50078 1.82793 2.50078 1.53338Z" fill="#E6E6E6"/>
<path fill-rule="evenodd" clip-rule="evenodd" d="M2.30078 1.53338C2.30078 1.12837 2.62911 0.800049 3.03411 0.800049H9.96745C10.3725 0.800049 10.7008 1.12837 10.7008 1.53338V8.46672C10.7008 8.87173 10.3725 9.20005 9.96745 9.20005C9.56244 9.20005 9.23411 8.87173 9.23411 8.46672V2.26672H3.03411C2.62911 2.26672 2.30078 1.93839 2.30078 1.53338ZM3.03411 1.00005C2.73956 1.00005 2.50078 1.23883 2.50078 1.53338C2.50078 1.82793 2.73956 2.06672 3.03411 2.06672H9.43412V8.46672C9.43412 8.76127 9.6729 9.00005 9.96745 9.00005C10.262 9.00005 10.5008 8.76127 10.5008 8.46672V1.53338C10.5008 1.23883 10.262 1.00005 9.96745 1.00005H3.03411Z" fill="#E6E6E6"/>
</svg>
