<svg width="164" height="68" viewBox="0 0 164 68" fill="none" xmlns="http://www.w3.org/2000/svg">
<path fill-rule="evenodd" clip-rule="evenodd" d="M63.3874 6.40023C83.6189 4.97368 115.226 7.25091 135.681 15.0043C141.557 17.2312 147.856 20.3059 152.198 23.9261C154.369 25.7357 156.117 27.7359 157.042 29.8992C157.984 32.1025 158.058 34.448 156.913 36.8126C154.705 41.3761 149.282 44.4299 142.437 46.6614C135.541 48.9095 126.905 50.4136 117.863 51.6744C108.004 53.7549 97.2241 54.153 85.8614 53.2948C85.3107 53.2532 84.898 52.773 84.9396 52.2223C84.9812 51.6716 85.4613 51.2588 86.012 51.3004C97.254 52.1496 107.848 51.748 117.483 49.7105L117.517 49.7032L117.552 49.6984C126.595 48.4383 135.093 46.952 141.817 44.7599C148.601 42.5482 153.291 39.707 155.113 35.9413C155.984 34.1422 155.938 32.404 155.203 30.6857C154.451 28.9274 152.964 27.1682 150.918 25.4622C146.826 22.0513 140.768 19.071 134.972 16.8745C114.884 9.26016 83.5947 6.98035 63.5281 8.39528C54.8666 9.00601 45.7781 9.90089 37.3941 11.5526C28.9986 13.2065 21.3823 15.6061 15.6245 19.1864C8.43597 23.6562 5.26108 33.9284 10.8908 41.2251C14.5063 45.9113 19.9154 49.1018 26.3613 51.4431C32.8075 53.7845 40.199 55.2449 47.6982 56.5306C72.7701 60.8292 97.7688 59.998 121.894 59.1959C123.89 59.1295 125.88 59.0634 127.864 59.0003C128.416 58.9828 128.878 59.4161 128.895 59.9681C128.913 60.5201 128.48 60.9818 127.928 60.9993C125.936 61.0626 123.937 61.1292 121.93 61.196C97.8389 61.9978 72.6427 62.8365 47.3602 58.5019C39.854 57.2149 32.3075 55.7308 25.6785 53.323C19.0493 50.9151 13.246 47.5519 9.30728 42.4468L10.099 41.836L9.30728 42.4468C2.80607 34.0205 6.59227 22.4476 14.5684 17.4879C20.6248 13.722 28.5137 11.2636 37.0075 9.5903C45.5129 7.91469 54.698 7.01293 63.3874 6.40023Z" fill="#A9D9FC"/>
</svg>
