<svg width="172" height="150" viewBox="0 0 172 150" fill="none" xmlns="http://www.w3.org/2000/svg">
<path fill-rule="evenodd" clip-rule="evenodd" d="M1.17188 2.34375C1.81908 2.34375 2.34375 1.81908 2.34375 1.17188C2.34375 0.524666 1.81908 0 1.17188 0C0.524666 0 0 0.524666 0 1.17188C0 1.81908 0.524666 2.34375 1.17188 2.34375ZM1.17188 23.4375C1.81908 23.4375 2.34375 22.9128 2.34375 22.2656C2.34375 21.6184 1.81908 21.0938 1.17188 21.0938C0.524666 21.0938 0 21.6184 0 22.2656C0 22.9128 0.524666 23.4375 1.17188 23.4375ZM2.34375 43.3594C2.34375 44.0066 1.81908 44.5312 1.17188 44.5312C0.524666 44.5312 0 44.0066 0 43.3594C0 42.7122 0.524666 42.1875 1.17188 42.1875C1.81908 42.1875 2.34375 42.7122 2.34375 43.3594ZM1.17188 65.625C1.81908 65.625 2.34375 65.1003 2.34375 64.4531C2.34375 63.8059 1.81908 63.2812 1.17188 63.2812C0.524666 63.2812 0 63.8059 0 64.4531C0 65.1003 0.524666 65.625 1.17188 65.625ZM2.34375 85.5469C2.34375 86.1941 1.81908 86.7188 1.17188 86.7188C0.524666 86.7188 0 86.1941 0 85.5469C0 84.8997 0.524666 84.375 1.17188 84.375C1.81908 84.375 2.34375 84.8997 2.34375 85.5469ZM1.17188 107.812C1.81908 107.812 2.34375 107.288 2.34375 106.641C2.34375 105.993 1.81908 105.469 1.17188 105.469C0.524666 105.469 0 105.993 0 106.641C0 107.288 0.524666 107.812 1.17188 107.812ZM2.34375 127.734C2.34375 128.382 1.81908 128.906 1.17188 128.906C0.524666 128.906 0 128.382 0 127.734C0 127.087 0.524666 126.562 1.17188 126.562C1.81908 126.562 2.34375 127.087 2.34375 127.734ZM1.17188 150C1.81908 150 2.34375 149.475 2.34375 148.828C2.34375 148.181 1.81908 147.656 1.17188 147.656C0.524666 147.656 0 148.181 0 148.828C0 149.475 0.524666 150 1.17188 150ZM23.4375 1.17188C23.4375 1.81908 22.9128 2.34375 22.2656 2.34375C21.6184 2.34375 21.0938 1.81908 21.0938 1.17188C21.0938 0.524666 21.6184 0 22.2656 0C22.9128 0 23.4375 0.524666 23.4375 1.17188ZM22.2656 23.4375C22.9128 23.4375 23.4375 22.9128 23.4375 22.2656C23.4375 21.6184 22.9128 21.0938 22.2656 21.0938C21.6184 21.0938 21.0938 21.6184 21.0938 22.2656C21.0938 22.9128 21.6184 23.4375 22.2656 23.4375ZM23.4375 43.3594C23.4375 44.0066 22.9128 44.5312 22.2656 44.5312C21.6184 44.5312 21.0938 44.0066 21.0938 43.3594C21.0938 42.7122 21.6184 42.1875 22.2656 42.1875C22.9128 42.1875 23.4375 42.7122 23.4375 43.3594ZM22.2656 65.625C22.9128 65.625 23.4375 65.1003 23.4375 64.4531C23.4375 63.8059 22.9128 63.2812 22.2656 63.2812C21.6184 63.2812 21.0938 63.8059 21.0938 64.4531C21.0938 65.1003 21.6184 65.625 22.2656 65.625ZM23.4375 85.5469C23.4375 86.1941 22.9128 86.7188 22.2656 86.7188C21.6184 86.7188 21.0938 86.1941 21.0938 85.5469C21.0938 84.8997 21.6184 84.375 22.2656 84.375C22.9128 84.375 23.4375 84.8997 23.4375 85.5469ZM22.2656 107.812C22.9128 107.812 23.4375 107.288 23.4375 106.641C23.4375 105.993 22.9128 105.469 22.2656 105.469C21.6184 105.469 21.0938 105.993 21.0938 106.641C21.0938 107.288 21.6184 107.812 22.2656 107.812ZM23.4375 127.734C23.4375 128.382 22.9128 128.906 22.2656 128.906C21.6184 128.906 21.0938 128.382 21.0938 127.734C21.0938 127.087 21.6184 126.562 22.2656 126.562C22.9128 126.562 23.4375 127.087 23.4375 127.734ZM22.2656 150C22.9128 150 23.4375 149.475 23.4375 148.828C23.4375 148.181 22.9128 147.656 22.2656 147.656C21.6184 147.656 21.0938 148.181 21.0938 148.828C21.0938 149.475 21.6184 150 22.2656 150ZM44.5312 1.17188C44.5312 1.81908 44.0066 2.34375 43.3594 2.34375C42.7122 2.34375 42.1875 1.81908 42.1875 1.17188C42.1875 0.524666 42.7122 0 43.3594 0C44.0066 0 44.5312 0.524666 44.5312 1.17188ZM43.3594 23.4375C44.0066 23.4375 44.5312 22.9128 44.5312 22.2656C44.5312 21.6184 44.0066 21.0938 43.3594 21.0938C42.7122 21.0938 42.1875 21.6184 42.1875 22.2656C42.1875 22.9128 42.7122 23.4375 43.3594 23.4375ZM44.5312 43.3594C44.5312 44.0066 44.0066 44.5312 43.3594 44.5312C42.7122 44.5312 42.1875 44.0066 42.1875 43.3594C42.1875 42.7122 42.7122 42.1875 43.3594 42.1875C44.0066 42.1875 44.5312 42.7122 44.5312 43.3594ZM43.3594 65.625C44.0066 65.625 44.5312 65.1003 44.5312 64.4531C44.5312 63.8059 44.0066 63.2812 43.3594 63.2812C42.7122 63.2812 42.1875 63.8059 42.1875 64.4531C42.1875 65.1003 42.7122 65.625 43.3594 65.625ZM44.5312 85.5469C44.5312 86.1941 44.0066 86.7188 43.3594 86.7188C42.7122 86.7188 42.1875 86.1941 42.1875 85.5469C42.1875 84.8997 42.7122 84.375 43.3594 84.375C44.0066 84.375 44.5312 84.8997 44.5312 85.5469ZM43.3594 107.812C44.0066 107.812 44.5312 107.288 44.5312 106.641C44.5312 105.993 44.0066 105.469 43.3594 105.469C42.7122 105.469 42.1875 105.993 42.1875 106.641C42.1875 107.288 42.7122 107.812 43.3594 107.812ZM44.5312 127.734C44.5312 128.382 44.0066 128.906 43.3594 128.906C42.7122 128.906 42.1875 128.382 42.1875 127.734C42.1875 127.087 42.7122 126.562 43.3594 126.562C44.0066 126.562 44.5312 127.087 44.5312 127.734ZM43.3594 150C44.0066 150 44.5312 149.475 44.5312 148.828C44.5312 148.181 44.0066 147.656 43.3594 147.656C42.7122 147.656 42.1875 148.181 42.1875 148.828C42.1875 149.475 42.7122 150 43.3594 150ZM65.625 1.17188C65.625 1.81908 65.1003 2.34375 64.4531 2.34375C63.8059 2.34375 63.2812 1.81908 63.2812 1.17188C63.2812 0.524666 63.8059 0 64.4531 0C65.1003 0 65.625 0.524666 65.625 1.17188ZM64.4531 23.4375C65.1003 23.4375 65.625 22.9128 65.625 22.2656C65.625 21.6184 65.1003 21.0938 64.4531 21.0938C63.8059 21.0938 63.2812 21.6184 63.2812 22.2656C63.2812 22.9128 63.8059 23.4375 64.4531 23.4375ZM65.625 43.3594C65.625 44.0066 65.1003 44.5312 64.4531 44.5312C63.8059 44.5312 63.2812 44.0066 63.2812 43.3594C63.2812 42.7122 63.8059 42.1875 64.4531 42.1875C65.1003 42.1875 65.625 42.7122 65.625 43.3594ZM64.4531 65.625C65.1003 65.625 65.625 65.1003 65.625 64.4531C65.625 63.8059 65.1003 63.2812 64.4531 63.2812C63.8059 63.2812 63.2812 63.8059 63.2812 64.4531C63.2812 65.1003 63.8059 65.625 64.4531 65.625ZM65.625 85.5469C65.625 86.1941 65.1003 86.7188 64.4531 86.7188C63.8059 86.7188 63.2812 86.1941 63.2812 85.5469C63.2812 84.8997 63.8059 84.375 64.4531 84.375C65.1003 84.375 65.625 84.8997 65.625 85.5469ZM64.4531 107.812C65.1003 107.812 65.625 107.288 65.625 106.641C65.625 105.993 65.1003 105.469 64.4531 105.469C63.8059 105.469 63.2812 105.993 63.2812 106.641C63.2812 107.288 63.8059 107.812 64.4531 107.812ZM65.625 127.734C65.625 128.382 65.1003 128.906 64.4531 128.906C63.8059 128.906 63.2812 128.382 63.2812 127.734C63.2812 127.087 63.8059 126.562 64.4531 126.562C65.1003 126.562 65.625 127.087 65.625 127.734ZM64.4531 150C65.1003 150 65.625 149.475 65.625 148.828C65.625 148.181 65.1003 147.656 64.4531 147.656C63.8059 147.656 63.2812 148.181 63.2812 148.828C63.2812 149.475 63.8059 150 64.4531 150ZM86.7188 1.17188C86.7188 1.81908 86.1941 2.34375 85.5469 2.34375C84.8997 2.34375 84.375 1.81908 84.375 1.17188C84.375 0.524666 84.8997 0 85.5469 0C86.1941 0 86.7188 0.524666 86.7188 1.17188ZM85.5469 23.4375C86.1941 23.4375 86.7188 22.9128 86.7188 22.2656C86.7188 21.6184 86.1941 21.0938 85.5469 21.0938C84.8997 21.0938 84.375 21.6184 84.375 22.2656C84.375 22.9128 84.8997 23.4375 85.5469 23.4375ZM86.7188 43.3594C86.7188 44.0066 86.1941 44.5312 85.5469 44.5312C84.8997 44.5312 84.375 44.0066 84.375 43.3594C84.375 42.7122 84.8997 42.1875 85.5469 42.1875C86.1941 42.1875 86.7188 42.7122 86.7188 43.3594ZM85.5469 65.625C86.1941 65.625 86.7188 65.1003 86.7188 64.4531C86.7188 63.8059 86.1941 63.2812 85.5469 63.2812C84.8997 63.2812 84.375 63.8059 84.375 64.4531C84.375 65.1003 84.8997 65.625 85.5469 65.625ZM86.7188 85.5469C86.7188 86.1941 86.1941 86.7188 85.5469 86.7188C84.8997 86.7188 84.375 86.1941 84.375 85.5469C84.375 84.8997 84.8997 84.375 85.5469 84.375C86.1941 84.375 86.7188 84.8997 86.7188 85.5469ZM85.5469 107.812C86.1941 107.812 86.7188 107.288 86.7188 106.641C86.7188 105.993 86.1941 105.469 85.5469 105.469C84.8997 105.469 84.375 105.993 84.375 106.641C84.375 107.288 84.8997 107.812 85.5469 107.812ZM86.7188 127.734C86.7188 128.382 86.1941 128.906 85.5469 128.906C84.8997 128.906 84.375 128.382 84.375 127.734C84.375 127.087 84.8997 126.562 85.5469 126.562C86.1941 126.562 86.7188 127.087 86.7188 127.734ZM85.5469 150C86.1941 150 86.7188 149.475 86.7188 148.828C86.7188 148.181 86.1941 147.656 85.5469 147.656C84.8997 147.656 84.375 148.181 84.375 148.828C84.375 149.475 84.8997 150 85.5469 150ZM107.812 1.17188C107.812 1.81908 107.288 2.34375 106.641 2.34375C105.993 2.34375 105.469 1.81908 105.469 1.17188C105.469 0.524666 105.993 0 106.641 0C107.288 0 107.812 0.524666 107.812 1.17188ZM106.641 23.4375C107.288 23.4375 107.812 22.9128 107.812 22.2656C107.812 21.6184 107.288 21.0938 106.641 21.0938C105.993 21.0938 105.469 21.6184 105.469 22.2656C105.469 22.9128 105.993 23.4375 106.641 23.4375ZM107.812 43.3594C107.812 44.0066 107.288 44.5312 106.641 44.5312C105.993 44.5312 105.469 44.0066 105.469 43.3594C105.469 42.7122 105.993 42.1875 106.641 42.1875C107.288 42.1875 107.812 42.7122 107.812 43.3594ZM106.641 65.625C107.288 65.625 107.812 65.1003 107.812 64.4531C107.812 63.8059 107.288 63.2812 106.641 63.2812C105.993 63.2812 105.469 63.8059 105.469 64.4531C105.469 65.1003 105.993 65.625 106.641 65.625ZM107.812 85.5469C107.812 86.1941 107.288 86.7188 106.641 86.7188C105.993 86.7188 105.469 86.1941 105.469 85.5469C105.469 84.8997 105.993 84.375 106.641 84.375C107.288 84.375 107.812 84.8997 107.812 85.5469ZM106.641 107.812C107.288 107.812 107.812 107.288 107.812 106.641C107.812 105.993 107.288 105.469 106.641 105.469C105.993 105.469 105.469 105.993 105.469 106.641C105.469 107.288 105.993 107.812 106.641 107.812ZM107.812 127.734C107.812 128.382 107.288 128.906 106.641 128.906C105.993 128.906 105.469 128.382 105.469 127.734C105.469 127.087 105.993 126.562 106.641 126.562C107.288 126.562 107.812 127.087 107.812 127.734ZM106.641 150C107.288 150 107.812 149.475 107.812 148.828C107.812 148.181 107.288 147.656 106.641 147.656C105.993 147.656 105.469 148.181 105.469 148.828C105.469 149.475 105.993 150 106.641 150ZM128.906 1.17188C128.906 1.81908 128.382 2.34375 127.734 2.34375C127.087 2.34375 126.562 1.81908 126.562 1.17188C126.562 0.524666 127.087 0 127.734 0C128.382 0 128.906 0.524666 128.906 1.17188ZM127.734 23.4375C128.382 23.4375 128.906 22.9128 128.906 22.2656C128.906 21.6184 128.382 21.0938 127.734 21.0938C127.087 21.0938 126.562 21.6184 126.562 22.2656C126.562 22.9128 127.087 23.4375 127.734 23.4375ZM128.906 43.3594C128.906 44.0066 128.382 44.5312 127.734 44.5312C127.087 44.5312 126.562 44.0066 126.562 43.3594C126.562 42.7122 127.087 42.1875 127.734 42.1875C128.382 42.1875 128.906 42.7122 128.906 43.3594ZM127.734 65.625C128.382 65.625 128.906 65.1003 128.906 64.4531C128.906 63.8059 128.382 63.2812 127.734 63.2812C127.087 63.2812 126.562 63.8059 126.562 64.4531C126.562 65.1003 127.087 65.625 127.734 65.625ZM128.906 85.5469C128.906 86.1941 128.382 86.7188 127.734 86.7188C127.087 86.7188 126.562 86.1941 126.562 85.5469C126.562 84.8997 127.087 84.375 127.734 84.375C128.382 84.375 128.906 84.8997 128.906 85.5469ZM127.734 107.812C128.382 107.812 128.906 107.288 128.906 106.641C128.906 105.993 128.382 105.469 127.734 105.469C127.087 105.469 126.562 105.993 126.562 106.641C126.562 107.288 127.087 107.812 127.734 107.812ZM128.906 127.734C128.906 128.382 128.382 128.906 127.734 128.906C127.087 128.906 126.562 128.382 126.562 127.734C126.562 127.087 127.087 126.562 127.734 126.562C128.382 126.562 128.906 127.087 128.906 127.734ZM127.734 150C128.382 150 128.906 149.475 128.906 148.828C128.906 148.181 128.382 147.656 127.734 147.656C127.087 147.656 126.562 148.181 126.562 148.828C126.562 149.475 127.087 150 127.734 150ZM150 1.17188C150 1.81908 149.475 2.34375 148.828 2.34375C148.181 2.34375 147.656 1.81908 147.656 1.17188C147.656 0.524666 148.181 0 148.828 0C149.475 0 150 0.524666 150 1.17188ZM148.828 23.4375C149.475 23.4375 150 22.9128 150 22.2656C150 21.6184 149.475 21.0938 148.828 21.0938C148.181 21.0938 147.656 21.6184 147.656 22.2656C147.656 22.9128 148.181 23.4375 148.828 23.4375ZM150 43.3594C150 44.0066 149.475 44.5312 148.828 44.5312C148.181 44.5312 147.656 44.0066 147.656 43.3594C147.656 42.7122 148.181 42.1875 148.828 42.1875C149.475 42.1875 150 42.7122 150 43.3594ZM148.828 65.625C149.475 65.625 150 65.1003 150 64.4531C150 63.8059 149.475 63.2812 148.828 63.2812C148.181 63.2812 147.656 63.8059 147.656 64.4531C147.656 65.1003 148.181 65.625 148.828 65.625ZM150 85.5469C150 86.1941 149.475 86.7188 148.828 86.7188C148.181 86.7188 147.656 86.1941 147.656 85.5469C147.656 84.8997 148.181 84.375 148.828 84.375C149.475 84.375 150 84.8997 150 85.5469ZM148.828 107.812C149.475 107.812 150 107.288 150 106.641C150 105.993 149.475 105.469 148.828 105.469C148.181 105.469 147.656 105.993 147.656 106.641C147.656 107.288 148.181 107.812 148.828 107.812ZM150 127.734C150 128.382 149.475 128.906 148.828 128.906C148.181 128.906 147.656 128.382 147.656 127.734C147.656 127.087 148.181 126.562 148.828 126.562C149.475 126.562 150 127.087 150 127.734ZM148.828 150C149.475 150 150 149.475 150 148.828C150 148.181 149.475 147.656 148.828 147.656C148.181 147.656 147.656 148.181 147.656 148.828C147.656 149.475 148.181 150 148.828 150ZM171.094 1.17188C171.094 1.81908 170.569 2.34375 169.922 2.34375C169.275 2.34375 168.75 1.81908 168.75 1.17188C168.75 0.524666 169.275 0 169.922 0C170.569 0 171.094 0.524666 171.094 1.17188ZM169.922 23.4375C170.569 23.4375 171.094 22.9128 171.094 22.2656C171.094 21.6184 170.569 21.0938 169.922 21.0938C169.275 21.0938 168.75 21.6184 168.75 22.2656C168.75 22.9128 169.275 23.4375 169.922 23.4375ZM171.094 43.3594C171.094 44.0066 170.569 44.5312 169.922 44.5312C169.275 44.5312 168.75 44.0066 168.75 43.3594C168.75 42.7122 169.275 42.1875 169.922 42.1875C170.569 42.1875 171.094 42.7122 171.094 43.3594ZM169.922 65.625C170.569 65.625 171.094 65.1003 171.094 64.4531C171.094 63.8059 170.569 63.2812 169.922 63.2812C169.275 63.2812 168.75 63.8059 168.75 64.4531C168.75 65.1003 169.275 65.625 169.922 65.625ZM171.094 85.5469C171.094 86.1941 170.569 86.7188 169.922 86.7188C169.275 86.7188 168.75 86.1941 168.75 85.5469C168.75 84.8997 169.275 84.375 169.922 84.375C170.569 84.375 171.094 84.8997 171.094 85.5469ZM169.922 107.812C170.569 107.812 171.094 107.288 171.094 106.641C171.094 105.993 170.569 105.469 169.922 105.469C169.275 105.469 168.75 105.993 168.75 106.641C168.75 107.288 169.275 107.812 169.922 107.812ZM171.094 127.734C171.094 128.382 170.569 128.906 169.922 128.906C169.275 128.906 168.75 128.382 168.75 127.734C168.75 127.087 169.275 126.562 169.922 126.562C170.569 126.562 171.094 127.087 171.094 127.734ZM169.922 150C170.569 150 171.094 149.475 171.094 148.828C171.094 148.181 170.569 147.656 169.922 147.656C169.275 147.656 168.75 148.181 168.75 148.828C168.75 149.475 169.275 150 169.922 150Z" fill="#146EB4"/>
</svg>
