<svg width="16" height="16" viewBox="0 0 16 16" fill="none" xmlns="http://www.w3.org/2000/svg">
<path fill-rule="evenodd" clip-rule="evenodd" d="M0.627409 0.628192C1.14614 0.109458 1.96667 0.0570939 2.54576 0.497836L2.56193 0.510138L2.69545 0.627725L7.99921 5.93316L13.3035 0.628206C13.8365 0.0951931 14.6782 0.0598432 15.2526 0.521868L15.2652 0.53206L15.3713 0.627884C15.892 1.14859 15.9405 1.96983 15.4899 2.56063L15.4834 2.56909L15.3714 2.69617L10.066 7.99995L15.371 13.3042C15.904 13.8372 15.9394 14.679 15.4773 15.2534L15.4671 15.266L15.3713 15.3721C14.8506 15.8928 14.0294 15.9413 13.4386 15.4907L13.4301 15.4842L13.3031 15.3722L7.99831 10.0667L2.69498 15.3718C2.16197 15.9048 1.32017 15.9401 0.745845 15.4781L0.733178 15.4679L0.627102 15.3721C0.106397 14.8514 0.0579378 14.0301 0.508532 13.4394L0.514986 13.4309L0.626985 13.3038L5.93151 7.99995L0.627409 2.69573C0.0943989 2.16272 0.0590616 1.32095 0.521086 0.746627L0.531276 0.73396L0.627409 0.628192Z" fill="#F2F2F2"/>
</svg>
