<svg width="24" height="24" viewBox="0 0 24 24" fill="none" xmlns="http://www.w3.org/2000/svg">
<path d="M4.84033 4.84036C5.25264 4.42805 5.90489 4.38651 6.36486 4.73659L6.48361 4.84036L12 10.3575L17.5164 4.84036C17.9399 4.41683 18.609 4.3886 19.0653 4.75565L19.1597 4.84036C19.572 5.25267 19.6135 5.90491 19.2521 6.37873L19.1597 6.48363L13.6425 12L19.1597 17.5164C19.5832 17.9399 19.6114 18.6091 19.2444 19.0653L19.1597 19.1597C18.7474 19.572 18.0951 19.6135 17.6213 19.2522L17.5164 19.1597L11.9991 13.6425L6.48361 19.1597C6.06008 19.5832 5.39095 19.6115 4.93468 19.2444L4.84033 19.1597C4.42802 18.7474 4.38649 18.0951 4.74786 17.6213L4.84033 17.5164L10.3566 12L4.84033 6.48363C4.41681 6.06011 4.38857 5.39098 4.75563 4.93471L4.84033 4.84036Z" fill="#4D4D4D"/>
<path fill-rule="evenodd" clip-rule="evenodd" d="M4.62741 4.62822C5.14614 4.10949 5.96667 4.05712 6.54576 4.49787L6.56193 4.51017L6.69545 4.62776L11.9992 9.93319L17.3035 4.62824C17.8365 4.09522 18.6782 4.05987 19.2526 4.5219L19.2652 4.53209L19.3713 4.62791C19.892 5.14862 19.9405 5.96986 19.4899 6.56066L19.4834 6.56912L19.3714 6.6962L14.066 12L19.371 17.3043C19.904 17.8373 19.9394 18.6791 19.4773 19.2534L19.4671 19.2661L19.3713 19.3721C18.8506 19.8928 18.0294 19.9413 17.4386 19.4907L17.4301 19.4842L17.3031 19.3722L11.9983 14.0668L6.69498 19.3718C6.16197 19.9048 5.32017 19.9402 4.74584 19.4781L4.73318 19.468L4.6271 19.3721C4.1064 18.8514 4.05794 18.0302 4.50853 17.4394L4.51499 17.4309L4.62699 17.3039L9.93151 12L4.62741 6.69576C4.62741 6.69576 4.62741 6.69576 4.62741 6.69576C4.0944 6.16275 4.05906 5.32098 4.52109 4.74666L4.53128 4.73399L4.62741 4.62822ZM10.3558 12L4.83954 17.5164L4.74707 17.6213C4.38569 18.0951 4.42723 18.7474 4.83954 19.1597L4.93389 19.2444C5.39016 19.6115 6.05929 19.5832 6.48282 19.1597L11.9983 13.6425L17.5156 19.1597L17.6205 19.2522C18.0943 19.6135 18.7466 19.572 19.1589 19.1597L19.2436 19.0653C19.6106 18.6091 19.5824 17.9399 19.1589 17.5164L13.6417 12L19.1589 6.48363L19.2513 6.37873C19.6127 5.90491 19.5712 5.25266 19.1589 4.84035L19.0645 4.75565C18.6083 4.38859 17.9391 4.41683 17.5156 4.84035L11.9992 10.3575L6.48282 4.84035L6.36407 4.73659C5.90409 4.38651 5.25185 4.42805 4.83954 4.84035L4.75484 4.9347C4.38778 5.39098 4.41602 6.0601 4.83954 6.48363L10.3558 12Z" fill="#4D4D4D"/>
</svg>
