<svg width="18" height="18" viewBox="0 0 18 18" fill="none" xmlns="http://www.w3.org/2000/svg">
<path d="M3.63025 3.63028C3.93948 3.32105 4.42866 3.28989 4.77365 3.55246L4.86271 3.63028L9 7.76813L13.1373 3.63028C13.4549 3.31264 13.9568 3.29146 14.299 3.56675L14.3698 3.63028C14.679 3.93951 14.7101 4.42869 14.4391 4.78406L14.3698 4.86274L10.2319 9L14.3698 13.1373C14.6874 13.455 14.7086 13.9568 14.4333 14.299L14.3698 14.3698C14.0605 14.679 13.5713 14.7102 13.216 14.4391L13.1373 14.3698L8.9993 10.2319L4.86271 14.3698C4.54506 14.6874 4.04322 14.7086 3.70101 14.4333L3.63025 14.3698C3.32102 14.0605 3.28986 13.5714 3.5609 13.216L3.63025 13.1373L7.76742 9L3.63025 4.86274C3.31261 4.54509 3.29143 4.04325 3.56672 3.70104L3.63025 3.63028Z" fill="#4D4D4D"/>
<path fill-rule="evenodd" clip-rule="evenodd" d="M3.47123 3.47108C3.86028 3.08203 4.47567 3.04276 4.90999 3.37332L4.92212 3.38254L5.02226 3.47073L9.00008 7.44981L12.9783 3.47109C13.378 3.07133 14.0094 3.04482 14.4401 3.39134L14.4496 3.39898L14.5292 3.47085C14.9197 3.86138 14.956 4.47731 14.6181 4.92041L14.6132 4.92676L14.5292 5.02207L10.5502 8.9999L14.5289 12.9781C14.9287 13.3779 14.9552 14.0092 14.6087 14.44L14.601 14.4495L14.5292 14.529C14.1386 14.9195 13.5227 14.9559 13.0796 14.6179L13.0733 14.6131L12.978 14.5291L8.9994 10.55L5.02191 14.5288C4.62215 14.9285 3.9908 14.955 3.56006 14.6085L3.55055 14.6009L3.471 14.529C3.08047 14.1385 3.04412 13.5226 3.38207 13.0795L3.38691 13.0731L3.47091 12.9778L7.44931 8.9999L3.47123 5.02174C3.47123 5.02174 3.47123 5.02174 3.47123 5.02174C3.07147 4.62198 3.04497 3.99065 3.39149 3.55991L3.39913 3.55041L3.47123 3.47108ZM7.7675 8.9999L3.63033 13.1372L3.56098 13.2159C3.28994 13.5713 3.3211 14.0605 3.63033 14.3697L3.70109 14.4332C4.04329 14.7085 4.54514 14.6873 4.86278 14.3697L8.99937 10.2318L13.1374 14.3697L13.216 14.439C13.5714 14.7101 14.0606 14.6789 14.3698 14.3697L14.4334 14.2989C14.7086 13.9567 14.6875 13.4549 14.3698 13.1372L10.232 8.9999L14.3698 4.86264L14.4392 4.78396C14.7102 4.4286 14.6791 3.93941 14.3698 3.63018L14.2991 3.56665C13.9569 3.29136 13.455 3.31254 13.1374 3.63018L9.00008 7.76803L4.86278 3.63018L4.77373 3.55236C4.42874 3.2898 3.93956 3.32095 3.63033 3.63018L3.5668 3.70094C3.29151 4.04315 3.31268 4.54499 3.63033 4.86264L7.7675 8.9999Z" fill="#4D4D4D"/>
</svg>
