<svg width="24" height="24" viewBox="0 0 24 24" fill="none" xmlns="http://www.w3.org/2000/svg">
<path fill-rule="evenodd" clip-rule="evenodd" d="M22.0607 4.06066C22.6464 3.47487 22.6464 2.52513 22.0607 1.93934C21.4749 1.35355 20.5251 1.35355 19.9393 1.93934L12 9.87868L4.06066 1.93934C3.47487 1.35355 2.52513 1.35355 1.93934 1.93934C1.35355 2.52513 1.35355 3.47487 1.93934 4.06066L9.87868 12L1.93934 19.9393C1.35355 20.5251 1.35355 21.4749 1.93934 22.0607C2.52513 22.6464 3.47487 22.6464 4.06066 22.0607L12 14.1213L19.9393 22.0607C20.5251 22.6464 21.4749 22.6464 22.0607 22.0607C22.6464 21.4749 22.6464 20.5251 22.0607 19.9393L14.1213 12L22.0607 4.06066Z" fill="#999999"/>
</svg>
