<svg width="32" height="32" viewBox="0 0 32 32" fill="none" xmlns="http://www.w3.org/2000/svg">
<path fill-rule="evenodd" clip-rule="evenodd" d="M29.4142 5.41421C30.1953 4.63317 30.1953 3.36683 29.4142 2.58579C28.6332 1.80474 27.3668 1.80474 26.5858 2.58579L16 13.1716L5.41421 2.58579C4.63317 1.80474 3.36683 1.80474 2.58579 2.58579C1.80474 3.36683 1.80474 4.63317 2.58579 5.41421L13.1716 16L2.58579 26.5858C1.80474 27.3668 1.80474 28.6332 2.58579 29.4142C3.36683 30.1953 4.63317 30.1953 5.41421 29.4142L16 18.8284L26.5858 29.4142C27.3668 30.1953 28.6332 30.1953 29.4142 29.4142C30.1953 28.6332 30.1953 27.3668 29.4142 26.5858L18.8284 16L29.4142 5.41421Z" fill="#E6E6E6"/>
</svg>
