<svg width="40" height="32" viewBox="0 0 40 32" fill="none" xmlns="http://www.w3.org/2000/svg">
<rect opacity="0.1" width="40" height="32" rx="2" fill="#1A181E"/>
<path fill-rule="evenodd" clip-rule="evenodd" d="M27.2659 10.2659C27.6889 9.8428 27.6889 9.15687 27.2659 8.7338C26.8428 8.31074 26.1569 8.31074 25.7338 8.7338L19.9998 14.4678L14.2659 8.7338C13.8428 8.31074 13.1569 8.31074 12.7338 8.7338C12.3107 9.15687 12.3107 9.8428 12.7338 10.2659L18.4678 15.9998L12.7338 21.7338C12.3107 22.1569 12.3107 22.8428 12.7338 23.2659C13.1569 23.6889 13.8428 23.6889 14.2659 23.2659L19.9998 17.5319L25.7338 23.2659C26.1569 23.6889 26.8428 23.6889 27.2659 23.2659C27.6889 22.8428 27.6889 22.1569 27.2659 21.7338L21.5319 15.9998L27.2659 10.2659Z" fill="#1A181E"/>
</svg>
