<svg width="20" height="20" viewBox="0 0 20 20" fill="none" xmlns="http://www.w3.org/2000/svg">
<path fill-rule="evenodd" clip-rule="evenodd" d="M9.71851 13.1729C9.80503 13.2091 9.90002 13.2291 9.99967 13.2291C10.1986 13.2291 10.3789 13.1494 10.5105 13.0203M10.5158 13.015L14.6819 8.84885C14.9667 8.56409 14.9667 8.10241 14.6819 7.81765C14.3972 7.5329 13.9355 7.5329 13.6507 7.81765L10.7288 10.7396L10.7288 2.49992C10.7288 2.09721 10.4024 1.77075 9.99968 1.77075C9.59697 1.77075 9.27051 2.09721 9.27051 2.49992L9.27051 10.7396L6.34861 7.81765C6.06385 7.5329 5.60217 7.5329 5.31741 7.81765C5.03265 8.10241 5.03265 8.56409 5.31741 8.84885L9.48328 13.0147L9.48408 13.0155C9.48674 13.0182 9.48942 13.0208 9.49211 13.0234M2.49967 13.4374C2.90238 13.4374 3.22884 13.7639 3.22884 14.1666V15.8333C3.22884 16.0819 3.32761 16.3203 3.50343 16.4962C3.67924 16.672 3.9177 16.7708 4.16634 16.7708H15.833C16.0816 16.7708 16.3201 16.672 16.4959 16.4962C16.6717 16.3203 16.7705 16.0819 16.7705 15.8333V14.1666C16.7705 13.7639 17.097 13.4374 17.4997 13.4374C17.9024 13.4374 18.2288 13.7639 18.2288 14.1666V15.8333C18.2288 16.4687 17.9764 17.0781 17.5271 17.5274C17.0778 17.9767 16.4684 18.2291 15.833 18.2291H4.16634C3.53093 18.2291 2.92154 17.9767 2.47223 17.5274C2.02293 17.0781 1.77051 16.4687 1.77051 15.8333V14.1666C1.77051 13.7639 2.09697 13.4374 2.49967 13.4374Z" fill="white"/>
</svg>
