<svg width="64" height="64" viewBox="0 0 64 64" fill="none" xmlns="http://www.w3.org/2000/svg">
<circle cx="32" cy="32" r="32" fill="white"/>
<path d="M24.8338 23.4162C25.3383 23.9207 25.3842 24.7102 24.9714 25.2665L24.8338 25.4259L18.2603 32L24.8338 38.5741C25.3383 39.0786 25.3842 39.8681 24.9714 40.4244L24.8338 40.5838C24.3293 41.0883 23.5398 41.1342 22.9835 40.7214L22.8241 40.5838L15.2452 33.0048C14.7407 32.5003 14.6948 31.7109 15.1076 31.1545L15.2452 30.9952L22.8241 23.4162C23.3791 22.8613 24.2788 22.8613 24.8338 23.4162Z" fill="#1A181E"/>
<path d="M39.1662 40.5838C38.6617 40.0793 38.6158 39.2898 39.0286 38.7335L39.1662 38.5741L45.7397 32L39.1662 25.4259C38.6617 24.9214 38.6158 24.1319 39.0286 23.5756L39.1662 23.4162C39.6707 22.9117 40.4602 22.8658 41.0165 23.2786L41.1759 23.4162L48.7548 30.9952C49.2593 31.4997 49.3052 32.2891 48.8924 32.8455L48.7548 33.0048L41.1759 40.5838C40.6209 41.1387 39.7212 41.1387 39.1662 40.5838Z" fill="#1A181E"/>
</svg>
