<svg width="164" height="68" viewBox="0 0 164 68" fill="none" xmlns="http://www.w3.org/2000/svg">
<path fill-rule="evenodd" clip-rule="evenodd" d="M99.2058 6.54749C82.5939 5.83788 71.209 5.35156 49.2177 8.17084C33.4155 10.1967 18.882 15.6511 10.8656 25.7924C7.70136 29.7953 6.58249 34.1161 7.13593 38.065C7.68987 42.0176 9.93142 45.6867 13.655 48.3621C19.6055 52.6376 27.1502 55.1719 35.5498 56.9198C42.3563 58.3362 49.6496 59.2231 57.043 60.1221C58.7787 60.3332 60.5199 60.5449 62.2616 60.7644C83.3752 63.4242 117.841 62.5809 139.245 55.2288C145.342 53.1345 150.72 49.7723 154.067 45.848C157.403 41.9379 158.646 37.5909 156.841 33.3219C154.994 28.9538 150.765 25.7255 144.455 23.1074C138.155 20.4935 129.967 18.5628 120.466 16.6728L120.431 16.6657L120.396 16.656C110.345 13.8851 95.5859 13.8447 83.6183 14.1781C83.0663 14.1935 82.6062 13.7584 82.5909 13.2064C82.5755 12.6543 83.0105 12.1943 83.5626 12.1789C95.4756 11.847 110.51 11.8653 120.892 14.7183C130.379 16.6062 138.729 18.5662 145.221 21.2601C151.712 23.9531 156.532 27.455 158.683 32.5431C160.875 37.7283 159.24 42.8666 155.589 47.1461C151.95 51.4114 146.233 54.9431 139.895 57.1204C118.095 64.6082 83.2923 65.4295 62.0116 62.7487C60.2912 62.5319 58.5645 62.322 56.8378 62.1121C49.4385 61.2126 42.0396 60.3131 35.1423 58.8779C26.6306 57.1067 18.7694 54.4996 12.488 49.9863C8.36096 47.0211 5.79171 42.8837 5.15528 38.3426C4.51836 33.798 5.82955 28.9381 9.29658 24.5521C17.798 13.7973 32.9745 8.23685 48.9634 6.18708C71.1345 3.34474 82.6982 3.83904 99.357 4.55112C104.477 4.76998 110.078 5.0094 116.616 5.17886C117.168 5.19316 117.604 5.65233 117.59 6.20443C117.576 6.75653 117.117 7.19249 116.565 7.17818C109.968 7.00723 104.338 6.7667 99.2058 6.54749Z" fill="#7BD686"/>
</svg>
