<svg width="40" height="32" viewBox="0 0 40 32" fill="none" xmlns="http://www.w3.org/2000/svg">
<rect width="40" height="32" rx="2" fill="#F2F2F2"/>
<path fill-rule="evenodd" clip-rule="evenodd" d="M9.33203 11.9993C9.33203 11.263 9.76618 10.666 10.3017 10.666H29.6957C30.2312 10.666 30.6654 11.263 30.6654 11.9993C30.6654 12.7357 30.2312 13.3327 29.6957 13.3327H10.3017C9.76618 13.3327 9.33203 12.7357 9.33203 11.9993ZM9.33203 19.9993C9.33203 19.263 9.76618 18.666 10.3017 18.666H29.6957C30.2312 18.666 30.6654 19.263 30.6654 19.9993C30.6654 20.7357 30.2312 21.3327 29.6957 21.3327H10.3017C9.76618 21.3327 9.33203 20.7357 9.33203 19.9993Z" fill="#4D4D4D"/>
</svg>
