<svg width="13" height="12" viewBox="0 0 13 12" fill="none" xmlns="http://www.w3.org/2000/svg">
<path d="M3.44 0.0719995C2.048 0.0719995 0.8 1.048 0.8 2.632C0.8 4.152 2.048 5.16 3.44 5.16C4.832 5.16 6.064 4.152 6.064 2.632C6.064 1.048 4.832 0.0719995 3.44 0.0719995ZM2.224 11H3.104L11.12 0.28H10.24L2.224 11ZM3.44 0.936C4.288 0.936 5.12 1.576 5.12 2.616C5.12 3.656 4.288 4.296 3.44 4.296C2.576 4.296 1.728 3.656 1.728 2.616C1.728 1.576 2.576 0.936 3.44 0.936ZM10.128 6.104C8.736 6.104 7.488 7.08 7.488 8.664C7.488 10.184 8.736 11.208 10.128 11.208C11.52 11.208 12.752 10.184 12.752 8.664C12.752 7.08 11.52 6.104 10.128 6.104ZM10.128 6.968C10.976 6.968 11.808 7.608 11.808 8.648C11.808 9.688 10.976 10.328 10.128 10.328C9.264 10.328 8.416 9.688 8.416 8.648C8.416 7.608 9.264 6.968 10.128 6.968Z" fill="#1A181E"/>
</svg>
