<svg width="164" height="68" viewBox="0 0 164 68" fill="none" xmlns="http://www.w3.org/2000/svg">
<path fill-rule="evenodd" clip-rule="evenodd" d="M61.6797 6.07951C77.6022 5.87836 94.3744 5.66648 109.783 10.6305C119.016 13.6048 128.022 19.6771 130.371 30.0944C132.295 38.6208 126.91 46.4317 120.514 51.0357C110.564 58.1983 97.1006 61.1851 85.3557 61.9769C71.6672 62.8997 55.4011 60.0293 44.033 51.7105C40.7629 49.3175 37.4258 46.0431 35.5431 42.249C33.638 38.4096 33.2182 34.0069 35.8891 29.5719C38.4901 25.253 42.8448 22.1012 47.5508 19.758C52.2672 17.4097 57.4309 15.8272 61.7629 14.6977C68.6668 12.8977 76.5089 10.9768 83.8926 12.1427C84.4382 12.2288 84.8106 12.7409 84.7244 13.2864C84.6383 13.8319 84.1262 14.2043 83.5807 14.1182C76.6721 13.0273 69.228 14.8182 62.2675 16.633C57.9858 17.7494 52.9764 19.2907 48.4423 21.5483C43.8978 23.8111 39.9246 26.7476 37.6024 30.6037C35.351 34.3421 35.6702 38.0056 37.3347 41.36C39.0215 44.7595 42.0844 47.8063 45.2141 50.0965C56.0802 58.048 71.8256 60.8845 85.2212 59.9814C96.7992 59.2009 109.831 56.2616 119.346 49.4125C125.443 45.0239 130.088 37.9283 128.42 30.5344C126.298 21.1235 118.109 15.4139 109.17 12.5341C94.0885 7.67562 77.6392 7.88089 61.6491 8.08042C60.3345 8.09683 59.023 8.11319 57.7157 8.1267C57.1634 8.13241 56.7111 7.68935 56.7054 7.13709C56.6997 6.58484 57.1428 6.13252 57.695 6.12681C59.0164 6.11316 60.345 6.09637 61.6797 6.07951Z" fill="#C9B3FB"/>
</svg>
