<svg width="7" height="12" viewBox="0 0 7 12" fill="none" xmlns="http://www.w3.org/2000/svg">
<path d="M3.288 12L0.264 6.72V6.016H0.616C1.46933 6.016 2.12 5.89333 2.568 5.648C3.02667 5.40267 3.29333 4.96 3.368 4.32H0.264V3.296H3.352C3.24533 2.69867 2.96267 2.26667 2.504 2C2.056 1.73333 1.42667 1.6 0.616 1.6H0.264V0.575999H6.888V1.6H3.864C4.376 2.016 4.68 2.58133 4.776 3.296H6.888V4.32H4.808C4.73333 5.09867 4.43467 5.70667 3.912 6.144C3.4 6.57067 2.71733 6.84267 1.864 6.96L4.92 12H3.288Z" fill="#1A181E"/>
</svg>
