<svg width="213" height="213" viewBox="0 0 213 213" fill="none" xmlns="http://www.w3.org/2000/svg">
<g clip-path="url(#clip0_2867_60875)">
<path d="M64.5624 120.184C64.8411 120.852 68.6488 122.352 74.4321 124.074C94.2188 129.928 93.2842 131.004 94.7109 129.699C96.238 128.302 95.5023 127.942 82.9362 123.566C69.4587 118.88 63.628 117.791 64.5624 120.184Z" fill="#353C53" fill-opacity="0.5"/>
<path d="M83.6398 143.739C83.6175 144.24 83.9605 144.332 85.804 144.491C88.5507 144.71 91.4314 143.219 90.4204 142.114C89.5731 141.228 83.6894 142.624 83.6398 143.739Z" fill="#353C53" fill-opacity="0.5"/>
<path d="M88.2664 153.187C75.6399 158.831 71.5489 161.097 71.0285 162.828C70.5804 164.235 71.5107 164.122 74.7496 162.377C77.4965 160.861 82.7354 158.357 87.9858 156.027C92.2922 154.117 93.1661 153.54 93.7779 152.352C94.5843 150.692 93.3997 150.89 88.2664 153.187Z" fill="#353C53" fill-opacity="0.5"/>
<path d="M76.0045 100.819C76.2648 101.467 81.4805 105.111 84.9766 107.117C85.8226 107.598 87.919 109.002 89.6192 110.215C92.9058 112.597 93.1535 112.666 94.2988 111.618C95.3839 110.626 95.4205 110.666 89.6292 106.957C79.5463 100.495 75.0868 98.4843 76.0045 100.819Z" fill="#353C53" fill-opacity="0.5"/>
<path d="M71.5407 143.626C74.3746 143.617 75.9782 144.402 77.4651 143.042C79.8563 140.854 79.8097 140.602 74.3278 140.338C64.1718 139.848 55.7259 140.783 55.2658 142.459C54.8659 144.079 61.0252 142.985 71.5407 143.626Z" fill="#353C53" fill-opacity="0.5"/>
<path d="M140.312 72.6661C140.663 69.983 140.455 67.7377 139.793 67.0143C138.874 66.0096 137.352 66.8477 137.004 68.6056C134.635 80.2586 134.373 94.3763 136.496 94.3166C138.58 94.2552 139.067 92.4071 139.601 82.5807C139.851 78.2547 140.166 73.7968 140.312 72.6661Z" fill="#353C53" fill-opacity="0.5"/>
<path d="M97.5018 82.1907C98.7354 84.7901 102.467 90.1607 109.202 102.566C110.537 105.035 110.574 105.075 111.768 105.089C112.732 105.094 113.902 104.356 114.111 103.575C114.294 102.927 104.782 85.7917 101.156 80.2137C99.7093 78.0675 96.0728 79.2164 97.5018 82.1907Z" fill="#353C53" fill-opacity="0.5"/>
<path d="M157.004 74.7157C152.458 82.0118 145.425 96.6761 145.739 98.2708C145.94 99.3785 148.354 98.4257 149.173 96.9008L152.184 91.1941C156.815 82.4176 161.986 71.0435 161.563 70.5813C160.679 69.6552 159.454 70.7767 157.004 74.7157Z" fill="#353C53" fill-opacity="0.5"/>
<path d="M116.1 72.2254C116.291 73.1206 116.719 75.6455 117.539 82.7564C117.897 85.9721 119.243 92.1233 119.684 92.6055C120.566 93.57 120.248 87.7345 118.807 76.7986C118.488 74.4327 118.261 72.1673 118.318 71.7458C118.503 69.7686 115.75 70.552 116.1 72.2254Z" fill="#353C53" fill-opacity="0.5"/>
</g>
<defs>
<clipPath id="clip0_2867_60875">
<rect width="150.057" height="150.057" fill="white" transform="translate(0 101.285) rotate(-42.4518)"/>
</clipPath>
</defs>
</svg>
