<svg width="320" height="47" viewBox="0 0 320 47" fill="none" xmlns="http://www.w3.org/2000/svg">
<g opacity="0.2">
<path fill-rule="evenodd" clip-rule="evenodd" d="M28.1581 28.4505C28.2058 28.4025 28.2718 28.3775 28.3392 28.3819L43.3883 29.3544C43.5178 29.3628 43.616 29.4751 43.6077 29.6054C43.5994 29.7356 43.4876 29.8344 43.3582 29.826L28.5756 28.8706L29.5211 43.8101C29.5293 43.9403 29.431 44.0526 29.3015 44.0609C29.172 44.0692 29.0604 43.9703 29.0521 43.8401L28.0897 28.6326C28.0854 28.5649 28.1103 28.4985 28.1581 28.4505Z" fill="url(#paint0_linear_3865_172752)"/>
<path fill-rule="evenodd" clip-rule="evenodd" d="M36.5694 36.7121C36.5694 36.8426 36.4642 36.9484 36.3344 36.9484H31.4785C31.3487 36.9484 31.2435 36.8426 31.2435 36.7121V31.805C31.2435 31.6746 31.3487 31.5688 31.4785 31.5688H36.3344C36.4642 31.5688 36.5694 31.6746 36.5694 31.805V36.7121ZM36.0995 36.4758V32.0413H31.7134V36.4758H36.0995Z" fill="url(#paint1_linear_3865_172752)"/>
<path fill-rule="evenodd" clip-rule="evenodd" d="M26.8967 3.67703C27.0222 3.71031 27.0971 3.83957 27.064 3.96574L22.2861 22.181L28.4907 28.451C28.5823 28.5435 28.5819 28.6931 28.4899 28.7851C28.398 28.8771 28.2492 28.8768 28.1577 28.7843L21.8581 22.4184C21.7992 22.3589 21.7761 22.2725 21.7974 22.1914L26.6096 3.84522C26.6427 3.71905 26.7713 3.64375 26.8967 3.67703Z" fill="url(#paint2_linear_3865_172752)"/>
<path fill-rule="evenodd" clip-rule="evenodd" d="M22.2516 22.1903C22.2854 22.3162 22.2111 22.4459 22.0859 22.4798L4.26062 27.3094L6.17642 30.893C6.23787 31.0079 6.19502 31.1512 6.08073 31.213C5.96644 31.2747 5.82399 31.2317 5.76254 31.1167L3.70642 27.2706C3.67246 27.2071 3.66921 27.1315 3.69762 27.0652C3.72603 26.999 3.78298 26.9494 3.85224 26.9307L21.9636 22.0236C22.0889 21.9896 22.2178 22.0643 22.2516 22.1903Z" fill="url(#paint3_linear_3865_172752)"/>
<path fill-rule="evenodd" clip-rule="evenodd" d="M1.95205 2.14699C2.04379 2.05471 2.19255 2.05469 2.28432 2.14694L19.0833 19.0343C19.175 19.1266 19.1751 19.2761 19.0833 19.3684C18.9916 19.4607 18.8428 19.4607 18.7511 19.3685L1.9521 2.48112C1.86033 2.38887 1.86031 2.23928 1.95205 2.14699Z" fill="url(#paint4_linear_3865_172752)"/>
<path fill-rule="evenodd" clip-rule="evenodd" d="M1.9514 2.14764C2.0325 2.06543 2.16089 2.05444 2.25464 2.12168L20.191 14.9861C20.2967 15.0619 20.3212 15.2094 20.2459 15.3157C20.1705 15.4219 20.0238 15.4466 19.9182 15.3708L3.15364 3.34687L15.2576 20.1236C15.3338 20.2293 15.3104 20.377 15.2054 20.4536C15.1003 20.5302 14.9534 20.5067 14.8772 20.4011L1.92804 2.45277C1.86042 2.35905 1.87031 2.22985 1.9514 2.14764Z" fill="url(#paint5_linear_3865_172752)"/>
<path fill-rule="evenodd" clip-rule="evenodd" d="M1.9514 2.14764C2.01917 2.07884 2.12171 2.05872 2.2103 2.09667L21.1966 10.2309C21.316 10.282 21.3715 10.4208 21.3207 10.5409C21.2698 10.6609 21.1318 10.7168 21.0124 10.6656L2.57066 2.76468L10.6017 21.2287C10.6537 21.3482 10.5995 21.4875 10.4806 21.5398C10.3617 21.5921 10.2232 21.5376 10.1712 21.4181L1.90295 2.40871C1.86436 2.31999 1.88364 2.21644 1.9514 2.14764Z" fill="url(#paint6_linear_3865_172752)"/>
<path fill-rule="evenodd" clip-rule="evenodd" d="M1.95119 2.14786C2.0045 2.09367 2.08054 2.06868 2.15539 2.08074L22.4541 5.35212C22.5823 5.37277 22.6695 5.49395 22.6489 5.62279C22.6284 5.75163 22.5079 5.83934 22.3798 5.81869L2.40521 2.59956L5.80582 22.5655C5.82773 22.6941 5.7418 22.8162 5.61391 22.8383C5.48601 22.8603 5.36457 22.7739 5.34267 22.6453L1.88663 2.35391C1.87384 2.27878 1.89787 2.20205 1.95119 2.14786Z" fill="url(#paint7_linear_3865_172752)"/>
<path d="M40.5719 26.0978C40.2657 25.8768 40.2219 25.4347 40.4844 25.1252C40.7031 24.8158 41.1406 24.7716 41.4468 25.0368C41.7531 25.2579 41.7968 25.6999 41.5343 26.0094C41.2718 26.3189 40.8344 26.3631 40.5719 26.0978Z" fill="url(#paint8_linear_3865_172752)"/>
<path d="M36.1983 26.3188C36.5849 26.3188 36.8983 26.0021 36.8983 25.6114C36.8983 25.2208 36.5849 24.9041 36.1983 24.9041C35.8117 24.9041 35.4983 25.2208 35.4983 25.6114C35.4983 26.0021 35.8117 26.3188 36.1983 26.3188Z" fill="url(#paint9_linear_3865_172752)"/>
<path d="M30.9922 26.2304C30.686 26.0094 30.6422 25.5673 30.9047 25.2578C31.1235 24.9484 31.5609 24.9042 31.8672 25.1694C32.1734 25.3905 32.2171 25.8326 31.9547 26.142C31.7359 26.4072 31.2985 26.4515 30.9922 26.2304Z" fill="url(#paint10_linear_3865_172752)"/>
<path d="M25.9213 40.9516C25.6588 40.6421 25.2213 40.5979 24.9588 40.8632C24.6526 41.1284 24.6088 41.5705 24.8713 41.8357C25.1338 42.1452 25.5713 42.1894 25.8338 41.9242C26.14 41.7031 26.1837 41.261 25.9213 40.9516Z" fill="url(#paint11_linear_3865_172752)"/>
<path d="M25.9213 36.1329C25.6588 35.8235 25.2213 35.7793 24.9588 36.0445C24.6526 36.3098 24.6088 36.7518 24.8713 37.0171C25.1338 37.3265 25.5713 37.3708 25.8338 37.1055C26.14 36.8845 26.14 36.4424 25.9213 36.1329Z" fill="url(#paint12_linear_3865_172752)"/>
<path d="M25.8772 31.3143C25.6147 31.0048 25.1772 30.9606 24.9148 31.2259C24.6085 31.4911 24.5648 31.9332 24.8273 32.1985C25.0898 32.5079 25.5272 32.5521 25.7897 32.2869C26.0959 32.0216 26.1397 31.6238 25.8772 31.3143Z" fill="url(#paint13_linear_3865_172752)"/>
<path fill-rule="evenodd" clip-rule="evenodd" d="M26.6288 3.7909C26.6918 3.67678 26.8348 3.63556 26.9483 3.69883L30.7543 5.8208C30.8514 5.87497 30.8976 5.99016 30.8649 6.09693L25.0465 25.1063C25.0083 25.231 24.8769 25.301 24.7528 25.2626C24.6288 25.2242 24.5592 25.092 24.5974 24.9673L30.3597 6.14112L26.7204 4.11209C26.6069 4.04882 26.5659 3.90502 26.6288 3.7909Z" fill="url(#paint14_linear_3865_172752)"/>
<path fill-rule="evenodd" clip-rule="evenodd" d="M42.6643 7.01044C42.7557 7.10306 42.7552 7.25266 42.6631 7.34457L39.1633 10.837C39.0712 10.9289 38.9224 10.9283 38.831 10.8357C38.7396 10.7431 38.7402 10.5935 38.8323 10.5016L42.3321 7.00916C42.4242 6.91725 42.5729 6.91782 42.6643 7.01044Z" fill="url(#paint15_linear_3865_172752)"/>
<path fill-rule="evenodd" clip-rule="evenodd" d="M33.3872 16.3814C33.4791 16.4735 33.4795 16.6231 33.388 16.7156L25.692 24.4925L45.3519 17.8281C45.4748 17.7864 45.6081 17.8528 45.6496 17.9765C45.691 18.1001 45.6249 18.2342 45.502 18.2758L24.897 25.2607C24.7937 25.2957 24.68 25.2547 24.6225 25.1616C24.5649 25.0685 24.5785 24.9478 24.6554 24.8701L33.0549 16.3822C33.1464 16.2898 33.2952 16.2894 33.3872 16.3814Z" fill="url(#paint16_linear_3865_172752)"/>
<path fill-rule="evenodd" clip-rule="evenodd" d="M25.0038 25.0104C25.0426 25.1349 24.9736 25.2675 24.8498 25.3065L6.03846 31.2303C5.91463 31.2693 5.78281 31.2 5.74403 31.0755C5.70526 30.9509 5.7742 30.8184 5.89803 30.7794L24.7094 24.8555C24.8332 24.8166 24.965 24.8859 25.0038 25.0104Z" fill="url(#paint17_linear_3865_172752)"/>
<path fill-rule="evenodd" clip-rule="evenodd" d="M10.7261 39.2358C10.8186 39.3273 10.8199 39.4769 10.729 39.5699L7.27294 43.1065C7.18199 43.1996 7.03324 43.2009 6.94068 43.1095C6.84813 43.018 6.84683 42.8684 6.93778 42.7754L10.3938 39.2387C10.4848 39.1457 10.6335 39.1444 10.7261 39.2358Z" fill="url(#paint18_linear_3865_172752)"/>
<path fill-rule="evenodd" clip-rule="evenodd" d="M24.9031 24.8799C24.996 24.9375 25.0372 25.0518 25.0027 25.1558L18.0906 45.9777C18.0495 46.1015 17.9164 46.1683 17.7933 46.127C17.6703 46.0857 17.6038 45.9518 17.6449 45.8281L24.2398 25.9617L16.5469 33.7356C16.4553 33.828 16.3066 33.8284 16.2146 33.7364C16.1226 33.6443 16.1223 33.4947 16.2138 33.4022L24.6133 24.9144C24.6902 24.8366 24.8103 24.8223 24.9031 24.8799Z" fill="url(#paint19_linear_3865_172752)"/>
<path fill-rule="evenodd" clip-rule="evenodd" d="M39.2272 16.5684C39.2272 16.6989 39.1221 16.8046 38.9923 16.8046H33.1739C33.0441 16.8046 32.939 16.6989 32.939 16.5684V10.6887C32.939 10.5583 33.0441 10.4525 33.1739 10.4525H38.9923C39.1221 10.4525 39.2272 10.5583 39.2272 10.6887V16.5684ZM38.7573 16.3321V10.925H33.4089V16.3321H38.7573Z" fill="url(#paint20_linear_3865_172752)"/>
<path fill-rule="evenodd" clip-rule="evenodd" d="M16.6134 39.4233C16.6134 39.5538 16.5082 39.6595 16.3785 39.6595H10.5601C10.4303 39.6595 10.3252 39.5538 10.3252 39.4233V33.5436C10.3252 33.4132 10.4303 33.3074 10.5601 33.3074H16.3785C16.5082 33.3074 16.6134 33.4132 16.6134 33.5436V39.4233ZM16.1435 39.187V33.7799H10.795V39.187H16.1435Z" fill="url(#paint21_linear_3865_172752)"/>
<path fill-rule="evenodd" clip-rule="evenodd" d="M291.847 28.4506C291.895 28.4986 291.92 28.5649 291.915 28.6327L290.953 43.8402C290.945 43.9704 290.833 44.0692 290.703 44.0609C290.574 44.0526 290.476 43.9404 290.484 43.8101L291.429 28.8707L276.647 29.826C276.517 29.8344 276.406 29.7356 276.397 29.6054C276.389 29.4752 276.487 29.3628 276.617 29.3545L291.666 28.3819C291.733 28.3775 291.799 28.4026 291.847 28.4506Z" fill="url(#paint22_linear_3865_172752)"/>
<path fill-rule="evenodd" clip-rule="evenodd" d="M283.439 31.7564C283.439 31.6259 283.544 31.5201 283.674 31.5201H288.53C288.66 31.5201 288.765 31.6259 288.765 31.7564V36.6635C288.765 36.794 288.66 36.8997 288.53 36.8997H283.674C283.544 36.8997 283.439 36.794 283.439 36.6635V31.7564ZM283.909 31.9927V36.4272H288.295V31.9927H283.909Z" fill="url(#paint23_linear_3865_172752)"/>
<path fill-rule="evenodd" clip-rule="evenodd" d="M293.108 3.67704C293.233 3.64376 293.362 3.71906 293.395 3.84523L298.207 22.1915C298.229 22.2726 298.205 22.3589 298.147 22.4184L291.847 28.7843C291.755 28.8768 291.607 28.8771 291.515 28.7851C291.423 28.6931 291.422 28.5435 291.514 28.451L297.719 22.181L292.941 3.96574C292.908 3.83957 292.982 3.71032 293.108 3.67704Z" fill="url(#paint24_linear_3865_172752)"/>
<path fill-rule="evenodd" clip-rule="evenodd" d="M297.753 22.1903C297.787 22.0643 297.916 21.9897 298.041 22.0236L316.152 26.9307C316.222 26.9494 316.279 26.999 316.307 27.0652C316.336 27.1315 316.332 27.2071 316.298 27.2707L314.242 31.1167C314.181 31.2317 314.038 31.2747 313.924 31.213C313.81 31.1512 313.767 31.0079 313.828 30.893L315.744 27.3094L297.919 22.4799C297.794 22.4459 297.719 22.3163 297.753 22.1903Z" fill="url(#paint25_linear_3865_172752)"/>
<path fill-rule="evenodd" clip-rule="evenodd" d="M318.051 2.147C318.143 2.23928 318.143 2.38887 318.051 2.48113L301.252 19.3685C301.16 19.4607 301.011 19.4607 300.92 19.3684C300.828 19.2762 300.828 19.1266 300.92 19.0343L317.719 2.14694C317.81 2.05469 317.959 2.05472 318.051 2.147Z" fill="url(#paint26_linear_3865_172752)"/>
<path fill-rule="evenodd" clip-rule="evenodd" d="M318.051 2.14765C318.132 2.22986 318.142 2.35905 318.074 2.45278L305.125 20.4011C305.049 20.5067 304.902 20.5302 304.797 20.4536C304.692 20.377 304.669 20.2293 304.745 20.1236L316.849 3.34688L300.084 15.3708C299.979 15.4466 299.832 15.4219 299.756 15.3157C299.681 15.2095 299.706 15.0619 299.811 14.9861L317.748 2.12168C317.841 2.05445 317.97 2.06544 318.051 2.14765Z" fill="url(#paint27_linear_3865_172752)"/>
<path fill-rule="evenodd" clip-rule="evenodd" d="M318.052 2.14777C318.12 2.21657 318.139 2.31999 318.1 2.40871L309.832 21.4181C309.78 21.5376 309.641 21.5921 309.523 21.5398C309.404 21.4876 309.349 21.3483 309.401 21.2287L317.432 2.76469L298.991 10.6656C298.871 10.7168 298.733 10.6609 298.682 10.5409C298.632 10.4208 298.687 10.2821 298.807 10.2309L317.793 2.09668C317.881 2.05872 317.984 2.07897 318.052 2.14777Z" fill="url(#paint28_linear_3865_172752)"/>
<path fill-rule="evenodd" clip-rule="evenodd" d="M318.052 2.14777C318.105 2.20196 318.129 2.27879 318.117 2.35392L314.661 22.6453C314.639 22.7739 314.517 22.8603 314.389 22.8383C314.261 22.8162 314.176 22.6941 314.197 22.5655L317.598 2.59957L297.623 5.8187C297.495 5.83934 297.375 5.75164 297.354 5.6228C297.334 5.49396 297.421 5.37277 297.549 5.35213L317.848 2.08075C317.923 2.06869 317.999 2.09358 318.052 2.14777Z" fill="url(#paint29_linear_3865_172752)"/>
<path d="M279.43 26.0978C279.737 25.8768 279.78 25.4347 279.518 25.1252C279.299 24.8158 278.862 24.7716 278.556 25.0368C278.249 25.2579 278.206 25.6999 278.468 26.0094C278.731 26.3188 279.168 26.3631 279.43 26.0978Z" fill="url(#paint30_linear_3865_172752)"/>
<path d="M284.198 26.1862C284.505 25.9652 284.548 25.5231 284.286 25.2137C284.023 24.9042 283.63 24.86 283.323 25.1252C283.017 25.3463 282.973 25.7884 283.236 26.0978C283.498 26.3631 283.936 26.4073 284.198 26.1862Z" fill="url(#paint31_linear_3865_172752)"/>
<path d="M289.01 26.2304C289.316 26.0094 289.36 25.5673 289.098 25.2579C288.879 24.9484 288.441 24.9042 288.135 25.1694C287.829 25.3905 287.785 25.8326 288.048 26.142C288.266 26.4073 288.704 26.4515 289.01 26.2304Z" fill="url(#paint32_linear_3865_172752)"/>
<path d="M294.084 40.9516C294.346 40.6421 294.784 40.5979 295.046 40.8632C295.353 41.1284 295.396 41.5705 295.134 41.8358C294.871 42.1452 294.434 42.1894 294.171 41.9242C293.865 41.7031 293.821 41.2611 294.084 40.9516Z" fill="url(#paint33_linear_3865_172752)"/>
<path d="M294.083 36.133C294.346 35.8235 294.783 35.7793 295.046 36.0445C295.352 36.3098 295.396 36.7519 295.133 37.0171C294.871 37.3266 294.433 37.3708 294.171 37.1055C293.865 36.8845 293.865 36.4424 294.083 36.133Z" fill="url(#paint34_linear_3865_172752)"/>
<path d="M294.128 31.3143C294.39 31.0049 294.828 30.9606 295.09 31.2259C295.397 31.4911 295.44 31.9332 295.178 32.1985C294.915 32.5079 294.478 32.5521 294.215 32.2869C293.909 32.0216 293.865 31.6238 294.128 31.3143Z" fill="url(#paint35_linear_3865_172752)"/>
<path fill-rule="evenodd" clip-rule="evenodd" d="M293.37 3.79094C293.433 3.90506 293.392 4.04886 293.278 4.11213L289.639 6.14116L295.401 24.9673C295.44 25.092 295.37 25.2242 295.246 25.2626C295.122 25.301 294.99 25.231 294.952 25.1063L289.134 6.09698C289.101 5.99021 289.147 5.87501 289.245 5.82084L293.051 3.69887C293.164 3.6356 293.307 3.67682 293.37 3.79094Z" fill="url(#paint36_linear_3865_172752)"/>
<path fill-rule="evenodd" clip-rule="evenodd" d="M277.34 7.01047C277.431 6.91785 277.58 6.91728 277.672 7.00919L281.172 10.5016C281.264 10.5935 281.264 10.7431 281.173 10.8357C281.082 10.9283 280.933 10.9289 280.841 10.837L277.341 7.3446C277.249 7.25268 277.248 7.10309 277.34 7.01047Z" fill="url(#paint37_linear_3865_172752)"/>
<path fill-rule="evenodd" clip-rule="evenodd" d="M286.614 16.3815C286.706 16.2894 286.855 16.2898 286.946 16.3823L295.346 24.8702C295.423 24.9479 295.436 25.0685 295.379 25.1616C295.321 25.2547 295.207 25.2957 295.104 25.2607L274.499 18.2759C274.376 18.2342 274.31 18.1002 274.352 17.9765C274.393 17.8529 274.526 17.7864 274.649 17.8281L294.309 24.4926L286.613 16.7156C286.522 16.6231 286.522 16.4735 286.614 16.3815Z" fill="url(#paint38_linear_3865_172752)"/>
<path fill-rule="evenodd" clip-rule="evenodd" d="M295 25.0104C295.039 24.8859 295.17 24.8166 295.294 24.8556L314.105 30.7794C314.229 30.8184 314.298 30.951 314.259 31.0755C314.221 31.2 314.089 31.2693 313.965 31.2303L295.154 25.3065C295.03 25.2675 294.961 25.135 295 25.0104Z" fill="url(#paint39_linear_3865_172752)"/>
<path fill-rule="evenodd" clip-rule="evenodd" d="M309.275 39.2358C309.368 39.1444 309.517 39.1457 309.608 39.2387L313.064 42.7754C313.155 42.8684 313.153 43.018 313.061 43.1095C312.968 43.2009 312.82 43.1996 312.729 43.1066L309.273 39.5699C309.182 39.4769 309.183 39.3273 309.275 39.2358Z" fill="url(#paint40_linear_3865_172752)"/>
<path fill-rule="evenodd" clip-rule="evenodd" d="M295.101 24.8799C295.193 24.8224 295.314 24.8366 295.39 24.9144L303.79 33.4023C303.881 33.4948 303.881 33.6444 303.789 33.7364C303.697 33.8284 303.548 33.8281 303.457 33.7356L295.764 25.9617L302.359 45.8281C302.4 45.9519 302.333 46.0857 302.21 46.127C302.087 46.1683 301.954 46.1015 301.913 45.9777L295.001 25.1558C294.967 25.0518 295.008 24.9375 295.101 24.8799Z" fill="url(#paint41_linear_3865_172752)"/>
<path fill-rule="evenodd" clip-rule="evenodd" d="M280.77 10.6693C280.77 10.5388 280.875 10.433 281.005 10.433H286.823C286.953 10.433 287.058 10.5388 287.058 10.6693V16.5489C287.058 16.6794 286.953 16.7852 286.823 16.7852H281.005C280.875 16.7852 280.77 16.6794 280.77 16.5489V10.6693ZM281.24 10.9056V16.3127H286.588V10.9056H281.24Z" fill="url(#paint42_linear_3865_172752)"/>
<path fill-rule="evenodd" clip-rule="evenodd" d="M303.387 33.5689C303.387 33.4385 303.493 33.3327 303.622 33.3327H309.441C309.571 33.3327 309.676 33.4385 309.676 33.5689V39.4486C309.676 39.5791 309.571 39.6848 309.441 39.6848H303.622C303.493 39.6848 303.387 39.5791 303.387 39.4486V33.5689ZM303.857 33.8052V39.2123H309.206V33.8052H303.857Z" fill="url(#paint43_linear_3865_172752)"/>
<path fill-rule="evenodd" clip-rule="evenodd" d="M41.2977 4.78972C41.2977 4.65924 41.4029 4.55346 41.5327 4.55346H278.649C278.779 4.55346 278.884 4.65924 278.884 4.78972C278.884 4.92021 278.779 5.02598 278.649 5.02598H41.5327C41.4029 5.02598 41.2977 4.92021 41.2977 4.78972Z" fill="url(#paint44_linear_3865_172752)"/>
<path fill-rule="evenodd" clip-rule="evenodd" d="M142.836 4.55346C142.966 4.55346 143.071 4.65924 143.071 4.78972C143.071 14.2531 150.665 21.8829 159.983 21.8829C169.3 21.8829 176.894 14.2092 176.894 4.78972C176.894 4.65924 176.999 4.55346 177.129 4.55346C177.259 4.55346 177.364 4.65924 177.364 4.78972C177.364 14.468 169.561 22.3554 159.983 22.3554C150.404 22.3554 142.601 14.5126 142.601 4.78972C142.601 4.65924 142.707 4.55346 142.836 4.55346Z" fill="url(#paint45_linear_3865_172752)"/>
<path fill-rule="evenodd" clip-rule="evenodd" d="M159.808 4.55345C159.937 4.55279 160.043 4.65803 160.044 4.78851L160.131 22.118C160.132 22.2484 160.027 22.3547 159.898 22.3554C159.768 22.3561 159.662 22.2508 159.661 22.1203L159.574 4.79091C159.573 4.66042 159.678 4.55411 159.808 4.55345Z" fill="url(#paint46_linear_3865_172752)"/>
<path fill-rule="evenodd" clip-rule="evenodd" d="M159.806 4.55346C159.916 4.55233 160.012 4.62809 160.037 4.73579L163.974 21.6232C164.004 21.7502 163.925 21.8773 163.799 21.9071C163.673 21.9369 163.546 21.858 163.517 21.731L159.82 5.87194L156.452 21.7705C156.425 21.8981 156.3 21.9795 156.173 21.9524C156.046 21.9252 155.965 21.7997 155.992 21.6721L159.579 4.74048C159.602 4.6323 159.696 4.55458 159.806 4.55346Z" fill="url(#paint47_linear_3865_172752)"/>
<path fill-rule="evenodd" clip-rule="evenodd" d="M159.805 4.55345C159.891 4.55268 159.971 4.59912 160.013 4.67455L168.454 19.882C168.518 19.996 168.477 20.1399 168.364 20.2035C168.251 20.2671 168.107 20.2263 168.044 20.1123L159.812 5.28229L151.923 20.1086C151.861 20.2237 151.719 20.2671 151.605 20.2055C151.49 20.1439 151.447 20.0008 151.508 19.8857L159.6 4.67824C159.641 4.60208 159.719 4.55422 159.805 4.55345Z" fill="url(#paint48_linear_3865_172752)"/>
<path fill-rule="evenodd" clip-rule="evenodd" d="M159.572 4.57823C159.636 4.54576 159.712 4.54516 159.778 4.57662L175.568 12.1804C175.685 12.2367 175.734 12.3778 175.678 12.4955C175.622 12.6132 175.482 12.6629 175.365 12.6065L159.678 5.05264L144.603 12.6049C144.487 12.6631 144.346 12.6156 144.288 12.4988C144.23 12.382 144.277 12.2402 144.394 12.182L159.572 4.57823Z" fill="url(#paint49_linear_3865_172752)"/>
<path fill-rule="evenodd" clip-rule="evenodd" d="M159.806 4.55346C159.869 4.55299 159.93 4.57796 159.974 4.62276L172.046 16.7799C172.138 16.8722 172.138 17.0218 172.046 17.114C171.954 17.2062 171.806 17.2061 171.714 17.1138L159.81 5.12655L148.254 17.1113C148.164 17.205 148.015 17.2073 147.922 17.1165C147.829 17.0256 147.826 16.8761 147.917 16.7824L159.639 4.62524C159.683 4.57978 159.743 4.55392 159.806 4.55346Z" fill="url(#paint50_linear_3865_172752)"/>
<path d="M162.256 4.61286C162.256 3.24242 161.163 2.18143 159.851 2.18143C158.495 2.18143 157.445 3.28663 157.445 4.61286C157.445 5.93909 158.538 7.04429 159.851 7.04429C161.163 7.04429 162.256 5.9833 162.256 4.61286Z" fill="url(#paint51_linear_3865_172752)"/>
<path fill-rule="evenodd" clip-rule="evenodd" d="M157.21 4.61286C157.21 3.16009 158.361 1.94517 159.851 1.94517C161.291 1.94517 162.491 3.11026 162.491 4.61286C162.491 6.11546 161.291 7.28055 159.851 7.28055C158.408 7.28055 157.21 6.06845 157.21 4.61286ZM159.851 2.4177C158.628 2.4177 157.68 3.41317 157.68 4.61286C157.68 5.80974 158.669 6.80803 159.851 6.80803C161.035 6.80803 162.021 5.85114 162.021 4.61286C162.021 3.37458 161.035 2.4177 159.851 2.4177Z" fill="url(#paint52_linear_3865_172752)"/>
</g>
<defs>
<linearGradient id="paint0_linear_3865_172752" x1="0" y1="0" x2="340.072" y2="139.481" gradientUnits="userSpaceOnUse">
<stop stop-color="#F8D190"/>
<stop offset="1" stop-color="#E2AD3E"/>
</linearGradient>
<linearGradient id="paint1_linear_3865_172752" x1="0" y1="0" x2="340.072" y2="139.481" gradientUnits="userSpaceOnUse">
<stop stop-color="#F8D190"/>
<stop offset="1" stop-color="#E2AD3E"/>
</linearGradient>
<linearGradient id="paint2_linear_3865_172752" x1="0" y1="0" x2="340.072" y2="139.481" gradientUnits="userSpaceOnUse">
<stop stop-color="#F8D190"/>
<stop offset="1" stop-color="#E2AD3E"/>
</linearGradient>
<linearGradient id="paint3_linear_3865_172752" x1="0" y1="0" x2="340.072" y2="139.481" gradientUnits="userSpaceOnUse">
<stop stop-color="#F8D190"/>
<stop offset="1" stop-color="#E2AD3E"/>
</linearGradient>
<linearGradient id="paint4_linear_3865_172752" x1="0" y1="0" x2="340.072" y2="139.481" gradientUnits="userSpaceOnUse">
<stop stop-color="#F8D190"/>
<stop offset="1" stop-color="#E2AD3E"/>
</linearGradient>
<linearGradient id="paint5_linear_3865_172752" x1="0" y1="0" x2="340.072" y2="139.481" gradientUnits="userSpaceOnUse">
<stop stop-color="#F8D190"/>
<stop offset="1" stop-color="#E2AD3E"/>
</linearGradient>
<linearGradient id="paint6_linear_3865_172752" x1="0" y1="0" x2="340.072" y2="139.481" gradientUnits="userSpaceOnUse">
<stop stop-color="#F8D190"/>
<stop offset="1" stop-color="#E2AD3E"/>
</linearGradient>
<linearGradient id="paint7_linear_3865_172752" x1="0" y1="0" x2="340.072" y2="139.481" gradientUnits="userSpaceOnUse">
<stop stop-color="#F8D190"/>
<stop offset="1" stop-color="#E2AD3E"/>
</linearGradient>
<linearGradient id="paint8_linear_3865_172752" x1="0" y1="0" x2="340.072" y2="139.481" gradientUnits="userSpaceOnUse">
<stop stop-color="#F8D190"/>
<stop offset="1" stop-color="#E2AD3E"/>
</linearGradient>
<linearGradient id="paint9_linear_3865_172752" x1="0" y1="0" x2="340.072" y2="139.481" gradientUnits="userSpaceOnUse">
<stop stop-color="#F8D190"/>
<stop offset="1" stop-color="#E2AD3E"/>
</linearGradient>
<linearGradient id="paint10_linear_3865_172752" x1="0" y1="0" x2="340.072" y2="139.481" gradientUnits="userSpaceOnUse">
<stop stop-color="#F8D190"/>
<stop offset="1" stop-color="#E2AD3E"/>
</linearGradient>
<linearGradient id="paint11_linear_3865_172752" x1="0" y1="0" x2="340.072" y2="139.481" gradientUnits="userSpaceOnUse">
<stop stop-color="#F8D190"/>
<stop offset="1" stop-color="#E2AD3E"/>
</linearGradient>
<linearGradient id="paint12_linear_3865_172752" x1="0" y1="0" x2="340.072" y2="139.481" gradientUnits="userSpaceOnUse">
<stop stop-color="#F8D190"/>
<stop offset="1" stop-color="#E2AD3E"/>
</linearGradient>
<linearGradient id="paint13_linear_3865_172752" x1="0" y1="0" x2="340.072" y2="139.481" gradientUnits="userSpaceOnUse">
<stop stop-color="#F8D190"/>
<stop offset="1" stop-color="#E2AD3E"/>
</linearGradient>
<linearGradient id="paint14_linear_3865_172752" x1="0" y1="0" x2="340.072" y2="139.481" gradientUnits="userSpaceOnUse">
<stop stop-color="#F8D190"/>
<stop offset="1" stop-color="#E2AD3E"/>
</linearGradient>
<linearGradient id="paint15_linear_3865_172752" x1="0" y1="0" x2="340.072" y2="139.481" gradientUnits="userSpaceOnUse">
<stop stop-color="#F8D190"/>
<stop offset="1" stop-color="#E2AD3E"/>
</linearGradient>
<linearGradient id="paint16_linear_3865_172752" x1="0" y1="0" x2="340.072" y2="139.481" gradientUnits="userSpaceOnUse">
<stop stop-color="#F8D190"/>
<stop offset="1" stop-color="#E2AD3E"/>
</linearGradient>
<linearGradient id="paint17_linear_3865_172752" x1="0" y1="0" x2="340.072" y2="139.481" gradientUnits="userSpaceOnUse">
<stop stop-color="#F8D190"/>
<stop offset="1" stop-color="#E2AD3E"/>
</linearGradient>
<linearGradient id="paint18_linear_3865_172752" x1="0" y1="0" x2="340.072" y2="139.481" gradientUnits="userSpaceOnUse">
<stop stop-color="#F8D190"/>
<stop offset="1" stop-color="#E2AD3E"/>
</linearGradient>
<linearGradient id="paint19_linear_3865_172752" x1="0" y1="0" x2="340.072" y2="139.481" gradientUnits="userSpaceOnUse">
<stop stop-color="#F8D190"/>
<stop offset="1" stop-color="#E2AD3E"/>
</linearGradient>
<linearGradient id="paint20_linear_3865_172752" x1="0" y1="0" x2="340.072" y2="139.481" gradientUnits="userSpaceOnUse">
<stop stop-color="#F8D190"/>
<stop offset="1" stop-color="#E2AD3E"/>
</linearGradient>
<linearGradient id="paint21_linear_3865_172752" x1="0" y1="0" x2="340.072" y2="139.481" gradientUnits="userSpaceOnUse">
<stop stop-color="#F8D190"/>
<stop offset="1" stop-color="#E2AD3E"/>
</linearGradient>
<linearGradient id="paint22_linear_3865_172752" x1="0" y1="0" x2="340.072" y2="139.481" gradientUnits="userSpaceOnUse">
<stop stop-color="#F8D190"/>
<stop offset="1" stop-color="#E2AD3E"/>
</linearGradient>
<linearGradient id="paint23_linear_3865_172752" x1="0" y1="0" x2="340.072" y2="139.481" gradientUnits="userSpaceOnUse">
<stop stop-color="#F8D190"/>
<stop offset="1" stop-color="#E2AD3E"/>
</linearGradient>
<linearGradient id="paint24_linear_3865_172752" x1="0" y1="0" x2="340.072" y2="139.481" gradientUnits="userSpaceOnUse">
<stop stop-color="#F8D190"/>
<stop offset="1" stop-color="#E2AD3E"/>
</linearGradient>
<linearGradient id="paint25_linear_3865_172752" x1="0" y1="0" x2="340.072" y2="139.481" gradientUnits="userSpaceOnUse">
<stop stop-color="#F8D190"/>
<stop offset="1" stop-color="#E2AD3E"/>
</linearGradient>
<linearGradient id="paint26_linear_3865_172752" x1="0" y1="0" x2="340.072" y2="139.481" gradientUnits="userSpaceOnUse">
<stop stop-color="#F8D190"/>
<stop offset="1" stop-color="#E2AD3E"/>
</linearGradient>
<linearGradient id="paint27_linear_3865_172752" x1="0" y1="0" x2="340.072" y2="139.481" gradientUnits="userSpaceOnUse">
<stop stop-color="#F8D190"/>
<stop offset="1" stop-color="#E2AD3E"/>
</linearGradient>
<linearGradient id="paint28_linear_3865_172752" x1="0" y1="0" x2="340.072" y2="139.481" gradientUnits="userSpaceOnUse">
<stop stop-color="#F8D190"/>
<stop offset="1" stop-color="#E2AD3E"/>
</linearGradient>
<linearGradient id="paint29_linear_3865_172752" x1="0" y1="0" x2="340.072" y2="139.481" gradientUnits="userSpaceOnUse">
<stop stop-color="#F8D190"/>
<stop offset="1" stop-color="#E2AD3E"/>
</linearGradient>
<linearGradient id="paint30_linear_3865_172752" x1="0" y1="0" x2="340.072" y2="139.481" gradientUnits="userSpaceOnUse">
<stop stop-color="#F8D190"/>
<stop offset="1" stop-color="#E2AD3E"/>
</linearGradient>
<linearGradient id="paint31_linear_3865_172752" x1="0" y1="0" x2="340.072" y2="139.481" gradientUnits="userSpaceOnUse">
<stop stop-color="#F8D190"/>
<stop offset="1" stop-color="#E2AD3E"/>
</linearGradient>
<linearGradient id="paint32_linear_3865_172752" x1="0" y1="0" x2="340.072" y2="139.481" gradientUnits="userSpaceOnUse">
<stop stop-color="#F8D190"/>
<stop offset="1" stop-color="#E2AD3E"/>
</linearGradient>
<linearGradient id="paint33_linear_3865_172752" x1="0" y1="0" x2="340.072" y2="139.481" gradientUnits="userSpaceOnUse">
<stop stop-color="#F8D190"/>
<stop offset="1" stop-color="#E2AD3E"/>
</linearGradient>
<linearGradient id="paint34_linear_3865_172752" x1="0" y1="0" x2="340.072" y2="139.481" gradientUnits="userSpaceOnUse">
<stop stop-color="#F8D190"/>
<stop offset="1" stop-color="#E2AD3E"/>
</linearGradient>
<linearGradient id="paint35_linear_3865_172752" x1="0" y1="0" x2="340.072" y2="139.481" gradientUnits="userSpaceOnUse">
<stop stop-color="#F8D190"/>
<stop offset="1" stop-color="#E2AD3E"/>
</linearGradient>
<linearGradient id="paint36_linear_3865_172752" x1="0" y1="0" x2="340.072" y2="139.481" gradientUnits="userSpaceOnUse">
<stop stop-color="#F8D190"/>
<stop offset="1" stop-color="#E2AD3E"/>
</linearGradient>
<linearGradient id="paint37_linear_3865_172752" x1="0" y1="0" x2="340.072" y2="139.481" gradientUnits="userSpaceOnUse">
<stop stop-color="#F8D190"/>
<stop offset="1" stop-color="#E2AD3E"/>
</linearGradient>
<linearGradient id="paint38_linear_3865_172752" x1="0" y1="0" x2="340.072" y2="139.481" gradientUnits="userSpaceOnUse">
<stop stop-color="#F8D190"/>
<stop offset="1" stop-color="#E2AD3E"/>
</linearGradient>
<linearGradient id="paint39_linear_3865_172752" x1="0" y1="0" x2="340.072" y2="139.481" gradientUnits="userSpaceOnUse">
<stop stop-color="#F8D190"/>
<stop offset="1" stop-color="#E2AD3E"/>
</linearGradient>
<linearGradient id="paint40_linear_3865_172752" x1="0" y1="0" x2="340.072" y2="139.481" gradientUnits="userSpaceOnUse">
<stop stop-color="#F8D190"/>
<stop offset="1" stop-color="#E2AD3E"/>
</linearGradient>
<linearGradient id="paint41_linear_3865_172752" x1="0" y1="0" x2="340.072" y2="139.481" gradientUnits="userSpaceOnUse">
<stop stop-color="#F8D190"/>
<stop offset="1" stop-color="#E2AD3E"/>
</linearGradient>
<linearGradient id="paint42_linear_3865_172752" x1="0" y1="0" x2="340.072" y2="139.481" gradientUnits="userSpaceOnUse">
<stop stop-color="#F8D190"/>
<stop offset="1" stop-color="#E2AD3E"/>
</linearGradient>
<linearGradient id="paint43_linear_3865_172752" x1="0" y1="0" x2="340.072" y2="139.481" gradientUnits="userSpaceOnUse">
<stop stop-color="#F8D190"/>
<stop offset="1" stop-color="#E2AD3E"/>
</linearGradient>
<linearGradient id="paint44_linear_3865_172752" x1="0" y1="0" x2="340.072" y2="139.481" gradientUnits="userSpaceOnUse">
<stop stop-color="#F8D190"/>
<stop offset="1" stop-color="#E2AD3E"/>
</linearGradient>
<linearGradient id="paint45_linear_3865_172752" x1="0" y1="0" x2="340.072" y2="139.481" gradientUnits="userSpaceOnUse">
<stop stop-color="#F8D190"/>
<stop offset="1" stop-color="#E2AD3E"/>
</linearGradient>
<linearGradient id="paint46_linear_3865_172752" x1="0" y1="0" x2="340.072" y2="139.481" gradientUnits="userSpaceOnUse">
<stop stop-color="#F8D190"/>
<stop offset="1" stop-color="#E2AD3E"/>
</linearGradient>
<linearGradient id="paint47_linear_3865_172752" x1="0" y1="0" x2="340.072" y2="139.481" gradientUnits="userSpaceOnUse">
<stop stop-color="#F8D190"/>
<stop offset="1" stop-color="#E2AD3E"/>
</linearGradient>
<linearGradient id="paint48_linear_3865_172752" x1="0" y1="0" x2="340.072" y2="139.481" gradientUnits="userSpaceOnUse">
<stop stop-color="#F8D190"/>
<stop offset="1" stop-color="#E2AD3E"/>
</linearGradient>
<linearGradient id="paint49_linear_3865_172752" x1="0" y1="0" x2="340.072" y2="139.481" gradientUnits="userSpaceOnUse">
<stop stop-color="#F8D190"/>
<stop offset="1" stop-color="#E2AD3E"/>
</linearGradient>
<linearGradient id="paint50_linear_3865_172752" x1="0" y1="0" x2="340.072" y2="139.481" gradientUnits="userSpaceOnUse">
<stop stop-color="#F8D190"/>
<stop offset="1" stop-color="#E2AD3E"/>
</linearGradient>
<linearGradient id="paint51_linear_3865_172752" x1="0" y1="0" x2="340.072" y2="139.481" gradientUnits="userSpaceOnUse">
<stop stop-color="#F8D190"/>
<stop offset="1" stop-color="#E2AD3E"/>
</linearGradient>
<linearGradient id="paint52_linear_3865_172752" x1="0" y1="0" x2="340.072" y2="139.481" gradientUnits="userSpaceOnUse">
<stop stop-color="#F8D190"/>
<stop offset="1" stop-color="#E2AD3E"/>
</linearGradient>
</defs>
</svg>
