<svg width="320" height="47" viewBox="0 0 320 47" fill="none" xmlns="http://www.w3.org/2000/svg">
<g opacity="0.2">
<path fill-rule="evenodd" clip-rule="evenodd" d="M28.1581 18.5495C28.2058 18.5975 28.2718 18.6225 28.3392 18.6181L43.3883 17.6456C43.5178 17.6372 43.616 17.5249 43.6077 17.3946C43.5994 17.2644 43.4876 17.1656 43.3582 17.174L28.5756 18.1294L29.5211 3.18989C29.5293 3.05967 29.431 2.94739 29.3015 2.9391C29.172 2.93081 29.0604 3.02966 29.0521 3.15988L28.0897 18.3674C28.0854 18.4351 28.1103 18.5015 28.1581 18.5495Z" fill="url(#paint0_linear_3865_172750)"/>
<path fill-rule="evenodd" clip-rule="evenodd" d="M36.5694 10.2879C36.5694 10.1574 36.4642 10.0516 36.3344 10.0516H31.4785C31.3487 10.0516 31.2435 10.1574 31.2435 10.2879V15.195C31.2435 15.3254 31.3487 15.4312 31.4785 15.4312H36.3344C36.4642 15.4312 36.5694 15.3254 36.5694 15.195V10.2879ZM36.0995 10.5242V14.9587H31.7134V10.5242H36.0995Z" fill="url(#paint1_linear_3865_172750)"/>
<path fill-rule="evenodd" clip-rule="evenodd" d="M26.8967 43.323C27.0222 43.2897 27.0971 43.1604 27.064 43.0343L22.2861 24.819L28.4907 18.549C28.5823 18.4565 28.5819 18.3069 28.4899 18.2149C28.398 18.1229 28.2492 18.1232 28.1577 18.2157L21.8581 24.5816C21.7992 24.6411 21.7761 24.7275 21.7974 24.8086L26.6096 43.1548C26.6427 43.2809 26.7713 43.3562 26.8967 43.323Z" fill="url(#paint2_linear_3865_172750)"/>
<path fill-rule="evenodd" clip-rule="evenodd" d="M22.2516 24.8097C22.2854 24.6838 22.2111 24.5541 22.0859 24.5202L4.26062 19.6906L6.17642 16.107C6.23787 15.9921 6.19502 15.8488 6.08073 15.787C5.96644 15.7253 5.82399 15.7683 5.76254 15.8833L3.70642 19.7294C3.67246 19.7929 3.66921 19.8685 3.69762 19.9348C3.72603 20.001 3.78298 20.0506 3.85224 20.0693L21.9636 24.9764C22.0889 25.0104 22.2178 24.9357 22.2516 24.8097Z" fill="url(#paint3_linear_3865_172750)"/>
<path fill-rule="evenodd" clip-rule="evenodd" d="M1.95205 44.853C2.04379 44.9453 2.19255 44.9453 2.28432 44.8531L19.0833 27.9657C19.175 27.8734 19.1751 27.7239 19.0833 27.6316C18.9916 27.5393 18.8428 27.5393 18.7511 27.6315L1.9521 44.5189C1.86033 44.6111 1.86031 44.7607 1.95205 44.853Z" fill="url(#paint4_linear_3865_172750)"/>
<path fill-rule="evenodd" clip-rule="evenodd" d="M1.9514 44.8524C2.0325 44.9346 2.16089 44.9456 2.25464 44.8783L20.191 32.0139C20.2967 31.9381 20.3212 31.7906 20.2459 31.6843C20.1705 31.5781 20.0238 31.5534 19.9182 31.6292L3.15364 43.6531L15.2576 26.8764C15.3338 26.7707 15.3104 26.623 15.2054 26.5464C15.1003 26.4698 14.9534 26.4933 14.8772 26.5989L1.92804 44.5472C1.86042 44.641 1.87031 44.7701 1.9514 44.8524Z" fill="url(#paint5_linear_3865_172750)"/>
<path fill-rule="evenodd" clip-rule="evenodd" d="M1.9514 44.8524C2.01917 44.9212 2.12171 44.9413 2.2103 44.9033L21.1966 36.7691C21.316 36.718 21.3715 36.5792 21.3207 36.4591C21.2698 36.3391 21.1318 36.2832 21.0124 36.3344L2.57066 44.2353L10.6017 25.7713C10.6537 25.6518 10.5995 25.5125 10.4806 25.4602C10.3617 25.4079 10.2232 25.4624 10.1712 25.5819L1.90295 44.5913C1.86436 44.68 1.88364 44.7836 1.9514 44.8524Z" fill="url(#paint6_linear_3865_172750)"/>
<path fill-rule="evenodd" clip-rule="evenodd" d="M1.95119 44.8521C2.0045 44.9063 2.08054 44.9313 2.15539 44.9193L22.4541 41.6479C22.5823 41.6272 22.6695 41.506 22.6489 41.3772C22.6284 41.2484 22.5079 41.1607 22.3798 41.1813L2.40521 44.4004L5.80582 24.4345C5.82773 24.3059 5.7418 24.1838 5.61391 24.1617C5.48601 24.1397 5.36457 24.2261 5.34267 24.3547L1.88663 44.6461C1.87384 44.7212 1.89787 44.7979 1.95119 44.8521Z" fill="url(#paint7_linear_3865_172750)"/>
<path d="M40.5719 20.9022C40.2657 21.1232 40.2219 21.5653 40.4844 21.8748C40.7031 22.1842 41.1406 22.2284 41.4468 21.9632C41.7531 21.7421 41.7968 21.3001 41.5343 20.9906C41.2718 20.6811 40.8344 20.6369 40.5719 20.9022Z" fill="url(#paint8_linear_3865_172750)"/>
<path d="M36.1983 20.6812C36.5849 20.6812 36.8983 20.9979 36.8983 21.3886C36.8983 21.7792 36.5849 22.0959 36.1983 22.0959C35.8117 22.0959 35.4983 21.7792 35.4983 21.3886C35.4983 20.9979 35.8117 20.6812 36.1983 20.6812Z" fill="url(#paint9_linear_3865_172750)"/>
<path d="M30.9922 20.7696C30.686 20.9906 30.6422 21.4327 30.9047 21.7422C31.1235 22.0516 31.5609 22.0958 31.8672 21.8306C32.1734 21.6095 32.2171 21.1674 31.9547 20.858C31.7359 20.5928 31.2985 20.5485 30.9922 20.7696Z" fill="url(#paint10_linear_3865_172750)"/>
<path d="M25.9213 6.04842C25.6588 6.35787 25.2213 6.40208 24.9588 6.13684C24.6526 5.87159 24.6088 5.42951 24.8713 5.16426C25.1338 4.85481 25.5713 4.8106 25.8338 5.07585C26.14 5.29689 26.1837 5.73896 25.9213 6.04842Z" fill="url(#paint11_linear_3865_172750)"/>
<path d="M25.9213 10.8671C25.6588 11.1765 25.2213 11.2207 24.9588 10.9555C24.6526 10.6902 24.6088 10.2482 24.8713 9.98291C25.1338 9.67345 25.5713 9.62925 25.8338 9.89449C26.14 10.1155 26.14 10.5576 25.9213 10.8671Z" fill="url(#paint12_linear_3865_172750)"/>
<path d="M25.8772 15.6857C25.6147 15.9952 25.1772 16.0394 24.9148 15.7741C24.6085 15.5089 24.5648 15.0668 24.8273 14.8015C25.0898 14.4921 25.5272 14.4479 25.7897 14.7131C26.0959 14.9784 26.1397 15.3762 25.8772 15.6857Z" fill="url(#paint13_linear_3865_172750)"/>
<path fill-rule="evenodd" clip-rule="evenodd" d="M26.6288 43.2091C26.6918 43.3232 26.8348 43.3644 26.9483 43.3012L30.7543 41.1792C30.8514 41.125 30.8976 41.0098 30.8649 40.9031L25.0465 21.8937C25.0083 21.769 24.8769 21.699 24.7528 21.7374C24.6288 21.7758 24.5592 21.908 24.5974 22.0327L30.3597 40.8589L26.7204 42.8879C26.6069 42.9512 26.5659 43.095 26.6288 43.2091Z" fill="url(#paint14_linear_3865_172750)"/>
<path fill-rule="evenodd" clip-rule="evenodd" d="M42.6643 39.9896C42.7557 39.8969 42.7552 39.7473 42.6631 39.6554L39.1633 36.163C39.0712 36.0711 38.9224 36.0717 38.831 36.1643C38.7396 36.2569 38.7402 36.4065 38.8323 36.4984L42.3321 39.9908C42.4242 40.0828 42.5729 40.0822 42.6643 39.9896Z" fill="url(#paint15_linear_3865_172750)"/>
<path fill-rule="evenodd" clip-rule="evenodd" d="M33.3872 30.6186C33.4791 30.5265 33.4795 30.3769 33.388 30.2844L25.692 22.5075L45.3519 29.1719C45.4748 29.2136 45.6081 29.1472 45.6496 29.0235C45.691 28.8999 45.6249 28.7658 45.502 28.7242L24.897 21.7393C24.7937 21.7043 24.68 21.7453 24.6225 21.8384C24.5649 21.9315 24.5785 22.0522 24.6554 22.1299L33.0549 30.6178C33.1464 30.7102 33.2952 30.7106 33.3872 30.6186Z" fill="url(#paint16_linear_3865_172750)"/>
<path fill-rule="evenodd" clip-rule="evenodd" d="M25.0038 21.9896C25.0426 21.8651 24.9736 21.7325 24.8498 21.6935L6.03846 15.7697C5.91463 15.7307 5.78281 15.8 5.74403 15.9245C5.70526 16.0491 5.7742 16.1816 5.89803 16.2206L24.7094 22.1445C24.8332 22.1834 24.965 22.1141 25.0038 21.9896Z" fill="url(#paint17_linear_3865_172750)"/>
<path fill-rule="evenodd" clip-rule="evenodd" d="M10.7261 7.76419C10.8186 7.67273 10.8199 7.52314 10.729 7.43008L7.27294 3.89346C7.18199 3.80038 7.03324 3.79908 6.94068 3.89053C6.84813 3.98199 6.84683 4.13158 6.93778 4.22464L10.3938 7.76126C10.4848 7.85434 10.6335 7.85564 10.7261 7.76419Z" fill="url(#paint18_linear_3865_172750)"/>
<path fill-rule="evenodd" clip-rule="evenodd" d="M24.9031 22.1201C24.996 22.0625 25.0372 21.9482 25.0027 21.8442L18.0906 1.02232C18.0495 0.898544 17.9164 0.831711 17.7933 0.873024C17.6703 0.914341 17.6038 1.04817 17.6449 1.17194L24.2398 21.0383L16.5469 13.2644C16.4553 13.172 16.3066 13.1716 16.2146 13.2636C16.1226 13.3557 16.1223 13.5053 16.2138 13.5978L24.6133 22.0856C24.6902 22.1634 24.8103 22.1777 24.9031 22.1201Z" fill="url(#paint19_linear_3865_172750)"/>
<path fill-rule="evenodd" clip-rule="evenodd" d="M39.2272 30.4316C39.2272 30.3011 39.1221 30.1954 38.9923 30.1954H33.1739C33.0441 30.1954 32.939 30.3011 32.939 30.4316V36.3113C32.939 36.4417 33.0441 36.5475 33.1739 36.5475H38.9923C39.1221 36.5475 39.2272 36.4417 39.2272 36.3113V30.4316ZM38.7573 30.6679V36.075H33.4089V30.6679H38.7573Z" fill="url(#paint20_linear_3865_172750)"/>
<path fill-rule="evenodd" clip-rule="evenodd" d="M16.6134 7.57673C16.6134 7.44625 16.5082 7.34047 16.3785 7.34047H10.5601C10.4303 7.34047 10.3252 7.44625 10.3252 7.57673V13.4564C10.3252 13.5868 10.4303 13.6926 10.5601 13.6926H16.3785C16.5082 13.6926 16.6134 13.5868 16.6134 13.4564V7.57673ZM16.1435 7.813V13.2201H10.795V7.813H16.1435Z" fill="url(#paint21_linear_3865_172750)"/>
<path fill-rule="evenodd" clip-rule="evenodd" d="M291.847 18.5494C291.895 18.5014 291.92 18.4351 291.915 18.3673L290.953 3.15984C290.945 3.02962 290.833 2.93078 290.703 2.93906C290.574 2.94735 290.476 3.05964 290.484 3.18985L291.429 18.1293L276.647 17.174C276.517 17.1656 276.406 17.2644 276.397 17.3946C276.389 17.5248 276.487 17.6372 276.617 17.6455L291.666 18.6181C291.733 18.6225 291.799 18.5974 291.847 18.5494Z" fill="url(#paint22_linear_3865_172750)"/>
<path fill-rule="evenodd" clip-rule="evenodd" d="M283.439 15.2436C283.439 15.3741 283.544 15.4799 283.674 15.4799H288.53C288.66 15.4799 288.765 15.3741 288.765 15.2436V10.3365C288.765 10.206 288.66 10.1003 288.53 10.1003H283.674C283.544 10.1003 283.439 10.206 283.439 10.3365V15.2436ZM283.909 15.0073V10.5728H288.295V15.0073H283.909Z" fill="url(#paint23_linear_3865_172750)"/>
<path fill-rule="evenodd" clip-rule="evenodd" d="M293.108 43.323C293.233 43.3562 293.362 43.2809 293.395 43.1548L298.207 24.8085C298.229 24.7274 298.205 24.6411 298.147 24.5816L291.847 18.2157C291.755 18.1232 291.607 18.1229 291.515 18.2149C291.423 18.3069 291.422 18.4565 291.514 18.549L297.719 24.819L292.941 43.0343C292.908 43.1604 292.982 43.2897 293.108 43.323Z" fill="url(#paint24_linear_3865_172750)"/>
<path fill-rule="evenodd" clip-rule="evenodd" d="M297.753 24.8097C297.787 24.9357 297.916 25.0103 298.041 24.9764L316.152 20.0693C316.222 20.0506 316.279 20.001 316.307 19.9348C316.336 19.8685 316.332 19.7929 316.298 19.7293L314.242 15.8833C314.181 15.7683 314.038 15.7253 313.924 15.787C313.81 15.8488 313.767 15.9921 313.828 16.107L315.744 19.6906L297.919 24.5201C297.794 24.5541 297.719 24.6837 297.753 24.8097Z" fill="url(#paint25_linear_3865_172750)"/>
<path fill-rule="evenodd" clip-rule="evenodd" d="M318.051 44.853C318.143 44.7607 318.143 44.6111 318.051 44.5189L301.252 27.6315C301.16 27.5393 301.011 27.5393 300.92 27.6316C300.828 27.7238 300.828 27.8734 300.92 27.9657L317.719 44.8531C317.81 44.9453 317.959 44.9453 318.051 44.853Z" fill="url(#paint26_linear_3865_172750)"/>
<path fill-rule="evenodd" clip-rule="evenodd" d="M318.051 44.8524C318.132 44.7701 318.142 44.6409 318.074 44.5472L305.125 26.5989C305.049 26.4933 304.902 26.4698 304.797 26.5464C304.692 26.623 304.669 26.7707 304.745 26.8764L316.849 43.6531L300.084 31.6292C299.979 31.5534 299.832 31.5781 299.756 31.6843C299.681 31.7905 299.706 31.9381 299.811 32.0139L317.748 44.8783C317.841 44.9456 317.97 44.9346 318.051 44.8524Z" fill="url(#paint27_linear_3865_172750)"/>
<path fill-rule="evenodd" clip-rule="evenodd" d="M318.052 44.8522C318.12 44.7834 318.139 44.68 318.1 44.5913L309.832 25.5819C309.78 25.4624 309.641 25.4079 309.523 25.4602C309.404 25.5124 309.349 25.6517 309.401 25.7713L317.432 44.2353L298.991 36.3344C298.871 36.2832 298.733 36.3391 298.682 36.4591C298.632 36.5792 298.687 36.7179 298.807 36.7691L317.793 44.9033C317.881 44.9413 317.984 44.921 318.052 44.8522Z" fill="url(#paint28_linear_3865_172750)"/>
<path fill-rule="evenodd" clip-rule="evenodd" d="M318.052 44.8522C318.105 44.798 318.129 44.7212 318.117 44.6461L314.661 24.3547C314.639 24.2261 314.517 24.1397 314.389 24.1617C314.261 24.1838 314.176 24.3059 314.197 24.4345L317.598 44.4004L297.623 41.1813C297.495 41.1607 297.375 41.2484 297.354 41.3772C297.334 41.506 297.421 41.6272 297.549 41.6479L317.848 44.9192C317.923 44.9313 317.999 44.9064 318.052 44.8522Z" fill="url(#paint29_linear_3865_172750)"/>
<path d="M279.43 20.9022C279.737 21.1232 279.78 21.5653 279.518 21.8748C279.299 22.1842 278.862 22.2284 278.556 21.9632C278.249 21.7421 278.206 21.3001 278.468 20.9906C278.731 20.6812 279.168 20.6369 279.43 20.9022Z" fill="url(#paint30_linear_3865_172750)"/>
<path d="M284.198 20.8138C284.505 21.0348 284.548 21.4769 284.286 21.7863C284.023 22.0958 283.63 22.14 283.323 21.8748C283.017 21.6537 282.973 21.2116 283.236 20.9022C283.498 20.6369 283.936 20.5927 284.198 20.8138Z" fill="url(#paint31_linear_3865_172750)"/>
<path d="M289.01 20.7696C289.316 20.9906 289.36 21.4327 289.098 21.7421C288.879 22.0516 288.441 22.0958 288.135 21.8306C287.829 21.6095 287.785 21.1674 288.048 20.858C288.266 20.5927 288.704 20.5485 289.01 20.7696Z" fill="url(#paint32_linear_3865_172750)"/>
<path d="M294.084 6.0484C294.346 6.35786 294.784 6.40207 295.046 6.13682C295.353 5.87157 295.396 5.4295 295.134 5.16425C294.871 4.85479 294.434 4.81059 294.171 5.07583C293.865 5.29687 293.821 5.73895 294.084 6.0484Z" fill="url(#paint33_linear_3865_172750)"/>
<path d="M294.083 10.867C294.346 11.1765 294.783 11.2207 295.046 10.9555C295.352 10.6902 295.396 10.2481 295.133 9.98288C294.871 9.67343 294.433 9.62922 294.171 9.89447C293.865 10.1155 293.865 10.5576 294.083 10.867Z" fill="url(#paint34_linear_3865_172750)"/>
<path d="M294.128 15.6857C294.39 15.9951 294.828 16.0394 295.09 15.7741C295.397 15.5089 295.44 15.0668 295.178 14.8015C294.915 14.4921 294.478 14.4479 294.215 14.7131C293.909 14.9784 293.865 15.3762 294.128 15.6857Z" fill="url(#paint35_linear_3865_172750)"/>
<path fill-rule="evenodd" clip-rule="evenodd" d="M293.37 43.2091C293.433 43.0949 293.392 42.9511 293.278 42.8879L289.639 40.8588L295.401 22.0327C295.44 21.908 295.37 21.7758 295.246 21.7374C295.122 21.699 294.99 21.769 294.952 21.8937L289.134 40.903C289.101 41.0098 289.147 41.125 289.245 41.1792L293.051 43.3011C293.164 43.3644 293.307 43.3232 293.37 43.2091Z" fill="url(#paint36_linear_3865_172750)"/>
<path fill-rule="evenodd" clip-rule="evenodd" d="M277.34 39.9895C277.431 40.0821 277.58 40.0827 277.672 39.9908L281.172 36.4984C281.264 36.4065 281.264 36.2569 281.173 36.1643C281.082 36.0717 280.933 36.0711 280.841 36.163L277.341 39.6554C277.249 39.7473 277.248 39.8969 277.34 39.9895Z" fill="url(#paint37_linear_3865_172750)"/>
<path fill-rule="evenodd" clip-rule="evenodd" d="M286.614 30.6185C286.706 30.7106 286.855 30.7102 286.946 30.6177L295.346 22.1298C295.423 22.0521 295.436 21.9315 295.379 21.8384C295.321 21.7453 295.207 21.7043 295.104 21.7393L274.499 28.7241C274.376 28.7658 274.31 28.8998 274.352 29.0235C274.393 29.1471 274.526 29.2136 274.649 29.1719L294.309 22.5074L286.613 30.2844C286.522 30.3769 286.522 30.5265 286.614 30.6185Z" fill="url(#paint38_linear_3865_172750)"/>
<path fill-rule="evenodd" clip-rule="evenodd" d="M295 21.9896C295.039 22.1141 295.17 22.1834 295.294 22.1444L314.105 16.2206C314.229 16.1816 314.298 16.049 314.259 15.9245C314.221 15.8 314.089 15.7307 313.965 15.7697L295.154 21.6935C295.03 21.7325 294.961 21.865 295 21.9896Z" fill="url(#paint39_linear_3865_172750)"/>
<path fill-rule="evenodd" clip-rule="evenodd" d="M309.275 7.76417C309.368 7.85563 309.517 7.85432 309.608 7.76125L313.064 4.22463C313.155 4.13156 313.153 3.98198 313.061 3.89052C312.968 3.79906 312.82 3.80037 312.729 3.89344L309.273 7.43006C309.182 7.52313 309.183 7.67271 309.275 7.76417Z" fill="url(#paint40_linear_3865_172750)"/>
<path fill-rule="evenodd" clip-rule="evenodd" d="M295.101 22.1201C295.193 22.1776 295.314 22.1634 295.39 22.0856L303.79 13.5977C303.881 13.5052 303.881 13.3556 303.789 13.2636C303.697 13.1716 303.548 13.1719 303.457 13.2644L295.764 21.0383L302.359 1.17191C302.4 1.04814 302.333 0.914314 302.21 0.872997C302.087 0.83168 301.954 0.898521 301.913 1.02229L295.001 21.8442C294.967 21.9482 295.008 22.0625 295.101 22.1201Z" fill="url(#paint41_linear_3865_172750)"/>
<path fill-rule="evenodd" clip-rule="evenodd" d="M280.77 36.3307C280.77 36.4612 280.875 36.567 281.005 36.567H286.823C286.953 36.567 287.058 36.4612 287.058 36.3307V30.4511C287.058 30.3206 286.953 30.2148 286.823 30.2148H281.005C280.875 30.2148 280.77 30.3206 280.77 30.4511V36.3307ZM281.24 36.0944V30.6873H286.588V36.0944H281.24Z" fill="url(#paint42_linear_3865_172750)"/>
<path fill-rule="evenodd" clip-rule="evenodd" d="M303.387 13.4311C303.387 13.5615 303.493 13.6673 303.622 13.6673H309.441C309.571 13.6673 309.676 13.5615 309.676 13.4311V7.55142C309.676 7.42094 309.571 7.31516 309.441 7.31516H303.622C303.493 7.31516 303.387 7.42094 303.387 7.55142V13.4311ZM303.857 13.1948V7.78769H309.206V13.1948H303.857Z" fill="url(#paint43_linear_3865_172750)"/>
<path fill-rule="evenodd" clip-rule="evenodd" d="M41.2977 42.2103C41.2977 42.3408 41.4029 42.4465 41.5327 42.4465H278.649C278.779 42.4465 278.884 42.3408 278.884 42.2103C278.884 42.0798 278.779 41.974 278.649 41.974H41.5327C41.4029 41.974 41.2977 42.0798 41.2977 42.2103Z" fill="url(#paint44_linear_3865_172750)"/>
<path fill-rule="evenodd" clip-rule="evenodd" d="M142.836 42.4465C142.966 42.4465 143.071 42.3408 143.071 42.2103C143.071 32.7469 150.665 25.1171 159.983 25.1171C169.3 25.1171 176.894 32.7908 176.894 42.2103C176.894 42.3408 176.999 42.4465 177.129 42.4465C177.259 42.4465 177.364 42.3408 177.364 42.2103C177.364 32.532 169.561 24.6446 159.983 24.6446C150.404 24.6446 142.601 32.4874 142.601 42.2103C142.601 42.3408 142.707 42.4465 142.836 42.4465Z" fill="url(#paint45_linear_3865_172750)"/>
<path fill-rule="evenodd" clip-rule="evenodd" d="M159.808 42.4466C159.937 42.4472 160.043 42.342 160.044 42.2115L160.131 24.882C160.132 24.7516 160.027 24.6453 159.898 24.6446C159.768 24.6439 159.662 24.7492 159.661 24.8797L159.574 42.2091C159.573 42.3396 159.678 42.4459 159.808 42.4466Z" fill="url(#paint46_linear_3865_172750)"/>
<path fill-rule="evenodd" clip-rule="evenodd" d="M159.806 42.4465C159.916 42.4477 160.012 42.3719 160.037 42.2642L163.974 25.3768C164.004 25.2498 163.925 25.1227 163.799 25.0929C163.673 25.0631 163.546 25.142 163.517 25.269L159.82 41.1281L156.452 25.2295C156.425 25.1019 156.3 25.0205 156.173 25.0476C156.046 25.0748 155.965 25.2003 155.992 25.3279L159.579 42.2595C159.602 42.3677 159.696 42.4454 159.806 42.4465Z" fill="url(#paint47_linear_3865_172750)"/>
<path fill-rule="evenodd" clip-rule="evenodd" d="M159.805 42.4465C159.891 42.4473 159.971 42.4009 160.013 42.3255L168.454 27.118C168.518 27.004 168.477 26.8601 168.364 26.7965C168.251 26.7329 168.107 26.7737 168.044 26.8877L159.812 41.7177L151.923 26.8914C151.861 26.7763 151.719 26.7329 151.605 26.7945C151.49 26.8561 151.447 26.9992 151.508 27.1143L159.6 42.3218C159.641 42.3979 159.719 42.4458 159.805 42.4465Z" fill="url(#paint48_linear_3865_172750)"/>
<path fill-rule="evenodd" clip-rule="evenodd" d="M159.572 42.4218C159.636 42.4542 159.712 42.4548 159.778 42.4234L175.568 34.8196C175.685 34.7633 175.734 34.6222 175.678 34.5045C175.622 34.3868 175.482 34.3371 175.365 34.3935L159.678 41.9474L144.603 34.3951C144.487 34.3369 144.346 34.3844 144.288 34.5012C144.23 34.618 144.277 34.7598 144.394 34.818L159.572 42.4218Z" fill="url(#paint49_linear_3865_172750)"/>
<path fill-rule="evenodd" clip-rule="evenodd" d="M159.806 42.4465C159.869 42.447 159.93 42.422 159.974 42.3772L172.046 30.2201C172.138 30.1278 172.138 29.9782 172.046 29.886C171.954 29.7938 171.806 29.7939 171.714 29.8862L159.81 41.8734L148.254 29.8887C148.164 29.795 148.015 29.7927 147.922 29.8835C147.829 29.9744 147.826 30.1239 147.917 30.2176L159.639 42.3748C159.683 42.4202 159.743 42.4461 159.806 42.4465Z" fill="url(#paint50_linear_3865_172750)"/>
<path d="M162.256 42.3871C162.256 43.7576 161.163 44.8186 159.851 44.8186C158.495 44.8186 157.445 43.7134 157.445 42.3871C157.445 41.0609 158.538 39.9557 159.851 39.9557C161.163 39.9557 162.256 41.0167 162.256 42.3871Z" fill="url(#paint51_linear_3865_172750)"/>
<path fill-rule="evenodd" clip-rule="evenodd" d="M157.21 42.3871C157.21 43.8399 158.361 45.0548 159.851 45.0548C161.291 45.0548 162.491 43.8897 162.491 42.3871C162.491 40.8845 161.291 39.7194 159.851 39.7194C158.408 39.7194 157.21 40.9315 157.21 42.3871ZM159.851 44.5823C158.628 44.5823 157.68 43.5868 157.68 42.3871C157.68 41.1903 158.669 40.192 159.851 40.192C161.035 40.192 162.021 41.1489 162.021 42.3871C162.021 43.6254 161.035 44.5823 159.851 44.5823Z" fill="url(#paint52_linear_3865_172750)"/>
</g>
<defs>
<linearGradient id="paint0_linear_3865_172750" x1="0" y1="47" x2="340.072" y2="-92.481" gradientUnits="userSpaceOnUse">
<stop stop-color="#F8D190"/>
<stop offset="1" stop-color="#E2AD3E"/>
</linearGradient>
<linearGradient id="paint1_linear_3865_172750" x1="0" y1="47" x2="340.072" y2="-92.481" gradientUnits="userSpaceOnUse">
<stop stop-color="#F8D190"/>
<stop offset="1" stop-color="#E2AD3E"/>
</linearGradient>
<linearGradient id="paint2_linear_3865_172750" x1="0" y1="47" x2="340.072" y2="-92.481" gradientUnits="userSpaceOnUse">
<stop stop-color="#F8D190"/>
<stop offset="1" stop-color="#E2AD3E"/>
</linearGradient>
<linearGradient id="paint3_linear_3865_172750" x1="0" y1="47" x2="340.072" y2="-92.481" gradientUnits="userSpaceOnUse">
<stop stop-color="#F8D190"/>
<stop offset="1" stop-color="#E2AD3E"/>
</linearGradient>
<linearGradient id="paint4_linear_3865_172750" x1="0" y1="47" x2="340.072" y2="-92.481" gradientUnits="userSpaceOnUse">
<stop stop-color="#F8D190"/>
<stop offset="1" stop-color="#E2AD3E"/>
</linearGradient>
<linearGradient id="paint5_linear_3865_172750" x1="0" y1="47" x2="340.072" y2="-92.481" gradientUnits="userSpaceOnUse">
<stop stop-color="#F8D190"/>
<stop offset="1" stop-color="#E2AD3E"/>
</linearGradient>
<linearGradient id="paint6_linear_3865_172750" x1="0" y1="47" x2="340.072" y2="-92.481" gradientUnits="userSpaceOnUse">
<stop stop-color="#F8D190"/>
<stop offset="1" stop-color="#E2AD3E"/>
</linearGradient>
<linearGradient id="paint7_linear_3865_172750" x1="0" y1="47" x2="340.072" y2="-92.481" gradientUnits="userSpaceOnUse">
<stop stop-color="#F8D190"/>
<stop offset="1" stop-color="#E2AD3E"/>
</linearGradient>
<linearGradient id="paint8_linear_3865_172750" x1="0" y1="47" x2="340.072" y2="-92.481" gradientUnits="userSpaceOnUse">
<stop stop-color="#F8D190"/>
<stop offset="1" stop-color="#E2AD3E"/>
</linearGradient>
<linearGradient id="paint9_linear_3865_172750" x1="0" y1="47" x2="340.072" y2="-92.481" gradientUnits="userSpaceOnUse">
<stop stop-color="#F8D190"/>
<stop offset="1" stop-color="#E2AD3E"/>
</linearGradient>
<linearGradient id="paint10_linear_3865_172750" x1="0" y1="47" x2="340.072" y2="-92.481" gradientUnits="userSpaceOnUse">
<stop stop-color="#F8D190"/>
<stop offset="1" stop-color="#E2AD3E"/>
</linearGradient>
<linearGradient id="paint11_linear_3865_172750" x1="0" y1="47" x2="340.072" y2="-92.481" gradientUnits="userSpaceOnUse">
<stop stop-color="#F8D190"/>
<stop offset="1" stop-color="#E2AD3E"/>
</linearGradient>
<linearGradient id="paint12_linear_3865_172750" x1="0" y1="47" x2="340.072" y2="-92.481" gradientUnits="userSpaceOnUse">
<stop stop-color="#F8D190"/>
<stop offset="1" stop-color="#E2AD3E"/>
</linearGradient>
<linearGradient id="paint13_linear_3865_172750" x1="0" y1="47" x2="340.072" y2="-92.481" gradientUnits="userSpaceOnUse">
<stop stop-color="#F8D190"/>
<stop offset="1" stop-color="#E2AD3E"/>
</linearGradient>
<linearGradient id="paint14_linear_3865_172750" x1="0" y1="47" x2="340.072" y2="-92.481" gradientUnits="userSpaceOnUse">
<stop stop-color="#F8D190"/>
<stop offset="1" stop-color="#E2AD3E"/>
</linearGradient>
<linearGradient id="paint15_linear_3865_172750" x1="0" y1="47" x2="340.072" y2="-92.481" gradientUnits="userSpaceOnUse">
<stop stop-color="#F8D190"/>
<stop offset="1" stop-color="#E2AD3E"/>
</linearGradient>
<linearGradient id="paint16_linear_3865_172750" x1="0" y1="47" x2="340.072" y2="-92.481" gradientUnits="userSpaceOnUse">
<stop stop-color="#F8D190"/>
<stop offset="1" stop-color="#E2AD3E"/>
</linearGradient>
<linearGradient id="paint17_linear_3865_172750" x1="0" y1="47" x2="340.072" y2="-92.481" gradientUnits="userSpaceOnUse">
<stop stop-color="#F8D190"/>
<stop offset="1" stop-color="#E2AD3E"/>
</linearGradient>
<linearGradient id="paint18_linear_3865_172750" x1="0" y1="47" x2="340.072" y2="-92.481" gradientUnits="userSpaceOnUse">
<stop stop-color="#F8D190"/>
<stop offset="1" stop-color="#E2AD3E"/>
</linearGradient>
<linearGradient id="paint19_linear_3865_172750" x1="0" y1="47" x2="340.072" y2="-92.481" gradientUnits="userSpaceOnUse">
<stop stop-color="#F8D190"/>
<stop offset="1" stop-color="#E2AD3E"/>
</linearGradient>
<linearGradient id="paint20_linear_3865_172750" x1="0" y1="47" x2="340.072" y2="-92.481" gradientUnits="userSpaceOnUse">
<stop stop-color="#F8D190"/>
<stop offset="1" stop-color="#E2AD3E"/>
</linearGradient>
<linearGradient id="paint21_linear_3865_172750" x1="0" y1="47" x2="340.072" y2="-92.481" gradientUnits="userSpaceOnUse">
<stop stop-color="#F8D190"/>
<stop offset="1" stop-color="#E2AD3E"/>
</linearGradient>
<linearGradient id="paint22_linear_3865_172750" x1="0" y1="47" x2="340.072" y2="-92.481" gradientUnits="userSpaceOnUse">
<stop stop-color="#F8D190"/>
<stop offset="1" stop-color="#E2AD3E"/>
</linearGradient>
<linearGradient id="paint23_linear_3865_172750" x1="0" y1="47" x2="340.072" y2="-92.481" gradientUnits="userSpaceOnUse">
<stop stop-color="#F8D190"/>
<stop offset="1" stop-color="#E2AD3E"/>
</linearGradient>
<linearGradient id="paint24_linear_3865_172750" x1="0" y1="47" x2="340.072" y2="-92.481" gradientUnits="userSpaceOnUse">
<stop stop-color="#F8D190"/>
<stop offset="1" stop-color="#E2AD3E"/>
</linearGradient>
<linearGradient id="paint25_linear_3865_172750" x1="0" y1="47" x2="340.072" y2="-92.481" gradientUnits="userSpaceOnUse">
<stop stop-color="#F8D190"/>
<stop offset="1" stop-color="#E2AD3E"/>
</linearGradient>
<linearGradient id="paint26_linear_3865_172750" x1="0" y1="47" x2="340.072" y2="-92.481" gradientUnits="userSpaceOnUse">
<stop stop-color="#F8D190"/>
<stop offset="1" stop-color="#E2AD3E"/>
</linearGradient>
<linearGradient id="paint27_linear_3865_172750" x1="0" y1="47" x2="340.072" y2="-92.481" gradientUnits="userSpaceOnUse">
<stop stop-color="#F8D190"/>
<stop offset="1" stop-color="#E2AD3E"/>
</linearGradient>
<linearGradient id="paint28_linear_3865_172750" x1="0" y1="47" x2="340.072" y2="-92.481" gradientUnits="userSpaceOnUse">
<stop stop-color="#F8D190"/>
<stop offset="1" stop-color="#E2AD3E"/>
</linearGradient>
<linearGradient id="paint29_linear_3865_172750" x1="0" y1="47" x2="340.072" y2="-92.481" gradientUnits="userSpaceOnUse">
<stop stop-color="#F8D190"/>
<stop offset="1" stop-color="#E2AD3E"/>
</linearGradient>
<linearGradient id="paint30_linear_3865_172750" x1="0" y1="47" x2="340.072" y2="-92.481" gradientUnits="userSpaceOnUse">
<stop stop-color="#F8D190"/>
<stop offset="1" stop-color="#E2AD3E"/>
</linearGradient>
<linearGradient id="paint31_linear_3865_172750" x1="0" y1="47" x2="340.072" y2="-92.481" gradientUnits="userSpaceOnUse">
<stop stop-color="#F8D190"/>
<stop offset="1" stop-color="#E2AD3E"/>
</linearGradient>
<linearGradient id="paint32_linear_3865_172750" x1="0" y1="47" x2="340.072" y2="-92.481" gradientUnits="userSpaceOnUse">
<stop stop-color="#F8D190"/>
<stop offset="1" stop-color="#E2AD3E"/>
</linearGradient>
<linearGradient id="paint33_linear_3865_172750" x1="0" y1="47" x2="340.072" y2="-92.481" gradientUnits="userSpaceOnUse">
<stop stop-color="#F8D190"/>
<stop offset="1" stop-color="#E2AD3E"/>
</linearGradient>
<linearGradient id="paint34_linear_3865_172750" x1="0" y1="47" x2="340.072" y2="-92.481" gradientUnits="userSpaceOnUse">
<stop stop-color="#F8D190"/>
<stop offset="1" stop-color="#E2AD3E"/>
</linearGradient>
<linearGradient id="paint35_linear_3865_172750" x1="0" y1="47" x2="340.072" y2="-92.481" gradientUnits="userSpaceOnUse">
<stop stop-color="#F8D190"/>
<stop offset="1" stop-color="#E2AD3E"/>
</linearGradient>
<linearGradient id="paint36_linear_3865_172750" x1="0" y1="47" x2="340.072" y2="-92.481" gradientUnits="userSpaceOnUse">
<stop stop-color="#F8D190"/>
<stop offset="1" stop-color="#E2AD3E"/>
</linearGradient>
<linearGradient id="paint37_linear_3865_172750" x1="0" y1="47" x2="340.072" y2="-92.481" gradientUnits="userSpaceOnUse">
<stop stop-color="#F8D190"/>
<stop offset="1" stop-color="#E2AD3E"/>
</linearGradient>
<linearGradient id="paint38_linear_3865_172750" x1="0" y1="47" x2="340.072" y2="-92.481" gradientUnits="userSpaceOnUse">
<stop stop-color="#F8D190"/>
<stop offset="1" stop-color="#E2AD3E"/>
</linearGradient>
<linearGradient id="paint39_linear_3865_172750" x1="0" y1="47" x2="340.072" y2="-92.481" gradientUnits="userSpaceOnUse">
<stop stop-color="#F8D190"/>
<stop offset="1" stop-color="#E2AD3E"/>
</linearGradient>
<linearGradient id="paint40_linear_3865_172750" x1="0" y1="47" x2="340.072" y2="-92.481" gradientUnits="userSpaceOnUse">
<stop stop-color="#F8D190"/>
<stop offset="1" stop-color="#E2AD3E"/>
</linearGradient>
<linearGradient id="paint41_linear_3865_172750" x1="0" y1="47" x2="340.072" y2="-92.481" gradientUnits="userSpaceOnUse">
<stop stop-color="#F8D190"/>
<stop offset="1" stop-color="#E2AD3E"/>
</linearGradient>
<linearGradient id="paint42_linear_3865_172750" x1="0" y1="47" x2="340.072" y2="-92.481" gradientUnits="userSpaceOnUse">
<stop stop-color="#F8D190"/>
<stop offset="1" stop-color="#E2AD3E"/>
</linearGradient>
<linearGradient id="paint43_linear_3865_172750" x1="0" y1="47" x2="340.072" y2="-92.481" gradientUnits="userSpaceOnUse">
<stop stop-color="#F8D190"/>
<stop offset="1" stop-color="#E2AD3E"/>
</linearGradient>
<linearGradient id="paint44_linear_3865_172750" x1="0" y1="47" x2="340.072" y2="-92.481" gradientUnits="userSpaceOnUse">
<stop stop-color="#F8D190"/>
<stop offset="1" stop-color="#E2AD3E"/>
</linearGradient>
<linearGradient id="paint45_linear_3865_172750" x1="0" y1="47" x2="340.072" y2="-92.481" gradientUnits="userSpaceOnUse">
<stop stop-color="#F8D190"/>
<stop offset="1" stop-color="#E2AD3E"/>
</linearGradient>
<linearGradient id="paint46_linear_3865_172750" x1="0" y1="47" x2="340.072" y2="-92.481" gradientUnits="userSpaceOnUse">
<stop stop-color="#F8D190"/>
<stop offset="1" stop-color="#E2AD3E"/>
</linearGradient>
<linearGradient id="paint47_linear_3865_172750" x1="0" y1="47" x2="340.072" y2="-92.481" gradientUnits="userSpaceOnUse">
<stop stop-color="#F8D190"/>
<stop offset="1" stop-color="#E2AD3E"/>
</linearGradient>
<linearGradient id="paint48_linear_3865_172750" x1="0" y1="47" x2="340.072" y2="-92.481" gradientUnits="userSpaceOnUse">
<stop stop-color="#F8D190"/>
<stop offset="1" stop-color="#E2AD3E"/>
</linearGradient>
<linearGradient id="paint49_linear_3865_172750" x1="0" y1="47" x2="340.072" y2="-92.481" gradientUnits="userSpaceOnUse">
<stop stop-color="#F8D190"/>
<stop offset="1" stop-color="#E2AD3E"/>
</linearGradient>
<linearGradient id="paint50_linear_3865_172750" x1="0" y1="47" x2="340.072" y2="-92.481" gradientUnits="userSpaceOnUse">
<stop stop-color="#F8D190"/>
<stop offset="1" stop-color="#E2AD3E"/>
</linearGradient>
<linearGradient id="paint51_linear_3865_172750" x1="0" y1="47" x2="340.072" y2="-92.481" gradientUnits="userSpaceOnUse">
<stop stop-color="#F8D190"/>
<stop offset="1" stop-color="#E2AD3E"/>
</linearGradient>
<linearGradient id="paint52_linear_3865_172750" x1="0" y1="47" x2="340.072" y2="-92.481" gradientUnits="userSpaceOnUse">
<stop stop-color="#F8D190"/>
<stop offset="1" stop-color="#E2AD3E"/>
</linearGradient>
</defs>
</svg>
