<svg width="1360" height="974" viewBox="0 0 1360 974" fill="none" xmlns="http://www.w3.org/2000/svg">
<g opacity="0.2">
<path fill-rule="evenodd" clip-rule="evenodd" d="M119.672 120.915C119.875 120.711 120.155 120.604 120.442 120.623L184.4 124.756C184.951 124.792 185.368 125.269 185.333 125.823C185.297 126.376 184.822 126.796 184.272 126.76L121.446 122.7L125.465 186.193C125.5 186.746 125.082 187.224 124.531 187.259C123.981 187.294 123.507 186.874 123.472 186.321L119.381 121.689C119.363 121.401 119.469 121.119 119.672 120.915Z" fill="url(#paint0_linear_3849_159763)"/>
<path fill-rule="evenodd" clip-rule="evenodd" d="M155.42 156.026C155.42 156.581 154.973 157.031 154.421 157.031H133.784C133.232 157.031 132.785 156.581 132.785 156.026V135.171C132.785 134.617 133.232 134.167 133.784 134.167H154.421C154.973 134.167 155.42 134.617 155.42 135.171V156.026ZM153.423 155.022V136.176H134.782V155.022H153.423Z" fill="url(#paint1_linear_3849_159763)"/>
<path fill-rule="evenodd" clip-rule="evenodd" d="M114.311 15.6274C114.844 15.7688 115.163 16.3182 115.022 16.8544L94.716 94.2694L121.086 120.917C121.475 121.31 121.473 121.945 121.082 122.337C120.691 122.728 120.059 122.726 119.67 122.333L92.8967 95.278C92.6467 95.0253 92.5486 94.6583 92.639 94.3137L113.091 16.3422C113.232 15.806 113.778 15.4859 114.311 15.6274Z" fill="url(#paint2_linear_3849_159763)"/>
<path fill-rule="evenodd" clip-rule="evenodd" d="M94.5693 94.3086C94.7127 94.844 94.3974 95.3951 93.8649 95.5393L18.1076 116.065L26.2498 131.295C26.5109 131.784 26.3289 132.392 25.8431 132.655C25.3574 132.918 24.7519 132.735 24.4908 132.246L15.7523 115.9C15.6079 115.63 15.5942 115.309 15.7149 115.027C15.8356 114.746 16.0776 114.535 16.372 114.455L93.3454 93.6003C93.8778 93.456 94.4258 93.7731 94.5693 94.3086Z" fill="url(#paint3_linear_3849_159763)"/>
<path fill-rule="evenodd" clip-rule="evenodd" d="M8.2962 9.12472C8.68609 8.73253 9.31833 8.73243 9.70834 9.12449L81.1039 80.8958C81.4939 81.2879 81.494 81.9236 81.1041 82.3158C80.7142 82.708 80.082 82.7081 79.692 82.3161L8.29643 10.5448C7.90642 10.1527 7.90632 9.51692 8.2962 9.12472Z" fill="url(#paint4_linear_3849_159763)"/>
<path fill-rule="evenodd" clip-rule="evenodd" d="M8.29347 9.12748C8.63812 8.7781 9.18378 8.73137 9.58221 9.01714L85.8118 63.6911C86.2608 64.0131 86.3652 64.6402 86.045 65.0916C85.7247 65.5431 85.1012 65.6481 84.6522 65.3261L13.403 14.2242L64.8447 85.5255C65.1685 85.9743 65.0692 86.6022 64.6228 86.9279C64.1765 87.2535 63.5521 87.1536 63.2282 86.7048L8.19416 10.4243C7.90677 10.0259 7.94882 9.47687 8.29347 9.12748Z" fill="url(#paint5_linear_3849_159763)"/>
<path fill-rule="evenodd" clip-rule="evenodd" d="M8.29347 9.12748C8.58148 8.83508 9.01725 8.74954 9.39377 8.91085L90.0856 43.4813C90.593 43.6987 90.829 44.2885 90.6129 44.7987C90.3967 45.3089 89.8102 45.5462 89.3029 45.3289L10.9253 11.7499L45.0572 90.2219C45.2782 90.73 45.0478 91.3221 44.5425 91.5443C44.0373 91.7665 43.4485 91.5348 43.2275 91.0267L8.08754 10.237C7.92353 9.85994 8.00546 9.41988 8.29347 9.12748Z" fill="url(#paint6_linear_3849_159763)"/>
<path fill-rule="evenodd" clip-rule="evenodd" d="M8.29255 9.12842C8.51913 8.89811 8.84229 8.79189 9.1604 8.84316L95.43 22.7465C95.9746 22.8343 96.3452 23.3493 96.258 23.8969C96.1707 24.4444 95.6585 24.8172 95.114 24.7294L10.2221 11.0481L24.6747 95.9034C24.7678 96.45 24.4027 96.969 23.8591 97.0626C23.3155 97.1562 22.7994 96.789 22.7063 96.2424L8.01819 10.0041C7.9638 9.68481 8.06596 9.35872 8.29255 9.12842Z" fill="url(#paint7_linear_3849_159763)"/>
<path d="M172.431 110.916C171.129 109.976 170.943 108.097 172.059 106.782C172.988 105.467 174.848 105.279 176.149 106.407C177.451 107.346 177.636 109.225 176.521 110.54C175.405 111.855 173.546 112.043 172.431 110.916Z" fill="url(#paint8_linear_3849_159763)"/>
<path d="M153.843 111.855C155.486 111.855 156.818 110.509 156.818 108.849C156.818 107.188 155.486 105.842 153.843 105.842C152.2 105.842 150.868 107.188 150.868 108.849C150.868 110.509 152.2 111.855 153.843 111.855Z" fill="url(#paint9_linear_3849_159763)"/>
<path d="M131.717 111.479C130.415 110.54 130.23 108.661 131.345 107.346C132.275 106.031 134.134 105.843 135.435 106.97C136.737 107.909 136.923 109.788 135.807 111.104C134.878 112.231 133.018 112.419 131.717 111.479Z" fill="url(#paint10_linear_3849_159763)"/>
<path d="M110.165 174.044C109.05 172.729 107.191 172.541 106.075 173.668C104.773 174.796 104.588 176.675 105.703 177.802C106.819 179.117 108.678 179.305 109.794 178.178C111.095 177.238 111.281 175.359 110.165 174.044Z" fill="url(#paint11_linear_3849_159763)"/>
<path d="M110.165 153.565C109.05 152.25 107.191 152.062 106.075 153.189C104.773 154.317 104.588 156.195 105.703 157.323C106.819 158.638 108.678 158.826 109.794 157.698C111.095 156.759 111.095 154.88 110.165 153.565Z" fill="url(#paint12_linear_3849_159763)"/>
<path d="M109.978 133.086C108.863 131.771 107.003 131.583 105.888 132.71C104.586 133.837 104.4 135.716 105.516 136.843C106.631 138.159 108.491 138.347 109.606 137.219C110.908 136.092 111.094 134.401 109.978 133.086Z" fill="url(#paint13_linear_3849_159763)"/>
<path fill-rule="evenodd" clip-rule="evenodd" d="M113.173 16.1113C113.44 15.6263 114.048 15.4511 114.53 15.72L130.706 24.7384C131.119 24.9686 131.315 25.4582 131.176 25.912L106.448 106.702C106.285 107.232 105.727 107.529 105.2 107.366C104.673 107.203 104.377 106.641 104.539 106.111L129.029 26.0998L113.562 17.4764C113.079 17.2075 112.905 16.5963 113.173 16.1113Z" fill="url(#paint14_linear_3849_159763)"/>
<path fill-rule="evenodd" clip-rule="evenodd" d="M181.323 29.7944C181.712 30.188 181.71 30.8238 181.318 31.2144L166.444 46.0572C166.053 46.4478 165.42 46.4453 165.032 46.0517C164.643 45.6581 164.646 45.0223 165.037 44.6317L179.911 29.7889C180.303 29.3983 180.935 29.4008 181.323 29.7944Z" fill="url(#paint15_linear_3849_159763)"/>
<path fill-rule="evenodd" clip-rule="evenodd" d="M141.895 69.6211C142.286 70.0122 142.288 70.648 141.899 71.0411L109.191 104.093L192.745 75.7693C193.268 75.5922 193.834 75.8746 194.011 76.4001C194.187 76.9256 193.906 77.4952 193.383 77.6723L105.812 107.358C105.373 107.507 104.89 107.332 104.645 106.937C104.401 106.541 104.459 106.028 104.786 105.698L140.483 69.6245C140.872 69.2315 141.505 69.2299 141.895 69.6211Z" fill="url(#paint16_linear_3849_159763)"/>
<path fill-rule="evenodd" clip-rule="evenodd" d="M106.266 106.294C106.431 106.823 106.138 107.387 105.612 107.553L25.6635 132.729C25.1372 132.895 24.5769 132.6 24.4121 132.071C24.2473 131.541 24.5404 130.978 25.0666 130.812L105.015 105.636C105.541 105.47 106.101 105.765 106.266 106.294Z" fill="url(#paint17_linear_3849_159763)"/>
<path fill-rule="evenodd" clip-rule="evenodd" d="M45.5858 166.752C45.9791 167.141 45.9847 167.777 45.5981 168.172L30.91 183.203C30.5235 183.598 29.8912 183.604 29.4979 183.215C29.1046 182.827 29.099 182.191 29.4856 181.795L44.1737 166.765C44.5602 166.369 45.1925 166.364 45.5858 166.752Z" fill="url(#paint18_linear_3849_159763)"/>
<path fill-rule="evenodd" clip-rule="evenodd" d="M105.838 105.74C106.233 105.984 106.408 106.47 106.261 106.912L76.885 195.405C76.7104 195.931 76.1448 196.215 75.6217 196.04C75.0986 195.864 74.8161 195.295 74.9907 194.769L103.019 110.337L70.3242 143.376C69.9352 143.769 69.3029 143.771 68.912 143.38C68.5211 142.988 68.5196 142.353 68.9086 141.96L104.606 105.886C104.933 105.556 105.444 105.495 105.838 105.74Z" fill="url(#paint19_linear_3849_159763)"/>
<path fill-rule="evenodd" clip-rule="evenodd" d="M166.716 70.4156C166.716 70.9701 166.269 71.4197 165.717 71.4197H140.989C140.438 71.4197 139.991 70.9701 139.991 70.4156V45.4271C139.991 44.8726 140.438 44.423 140.989 44.423H165.717C166.269 44.423 166.716 44.8726 166.716 45.4271V70.4156ZM164.719 69.4115V46.4313H141.988V69.4115H164.719Z" fill="url(#paint20_linear_3849_159763)"/>
<path fill-rule="evenodd" clip-rule="evenodd" d="M70.6071 167.549C70.6071 168.103 70.16 168.553 69.6086 168.553H44.8804C44.329 168.553 43.8819 168.103 43.8819 167.549V142.56C43.8819 142.006 44.329 141.556 44.8804 141.556H69.6086C70.16 141.556 70.6071 142.006 70.6071 142.56V167.549ZM68.61 166.545V143.565H45.879V166.545H68.61Z" fill="url(#paint21_linear_3849_159763)"/>
<path fill-rule="evenodd" clip-rule="evenodd" d="M12.1579 171.161C12.7094 171.161 13.1564 171.611 13.1564 172.165V545.393C13.1564 545.947 12.7094 546.397 12.1579 546.397C11.6064 546.397 11.1594 545.947 11.1594 545.393V172.165C11.1594 171.611 11.6064 171.161 12.1579 171.161Z" fill="url(#paint22_linear_3849_159763)"/>
<path fill-rule="evenodd" clip-rule="evenodd" d="M19.7812 553.047C20.1702 552.654 20.8008 552.654 21.1898 553.047L40.6471 572.709C41.0361 573.102 41.0361 573.739 40.6471 574.132L21.1898 593.794C20.8009 594.187 20.1702 594.187 19.7812 593.794L0.323891 574.132C-0.0651002 573.739 -0.0650998 573.102 0.323891 572.709L19.7812 553.047ZM20.4855 555.182L2.43689 573.421L20.4855 591.659L38.5341 573.421L20.4855 555.182Z" fill="url(#paint23_linear_3849_159763)"/>
<path fill-rule="evenodd" clip-rule="evenodd" d="M1340.18 593.727C1339.79 594.12 1339.16 594.12 1338.77 593.727L1319.31 574.065C1318.92 573.672 1318.92 573.035 1319.31 572.642L1338.77 552.98C1339.16 552.587 1339.79 552.587 1340.18 552.98L1359.64 572.642C1360.03 573.035 1360.03 573.672 1359.64 574.065L1340.18 593.727ZM1339.48 591.592L1357.52 573.354L1339.48 555.115L1321.43 573.353L1339.48 591.592Z" fill="url(#paint24_linear_3849_159763)"/>
<path fill-rule="evenodd" clip-rule="evenodd" d="M20.5051 536.685C20.7708 536.685 21.0255 536.792 21.2129 536.981L56.5389 572.679C56.9279 573.072 56.9263 573.708 56.5354 574.099C56.1445 574.49 55.5123 574.488 55.1233 574.095L20.5051 539.113L2.2485 557.562C1.8595 557.955 1.22727 557.956 0.836365 557.565C0.445461 557.174 0.443913 556.538 0.832909 556.145L19.7973 536.981C19.9848 536.792 20.2395 536.685 20.5051 536.685Z" fill="url(#paint25_linear_3849_159763)"/>
<path fill-rule="evenodd" clip-rule="evenodd" d="M1339.46 610.089C1339.19 610.089 1338.94 609.982 1338.75 609.793L1303.42 574.095C1303.03 573.702 1303.03 573.066 1303.43 572.675C1303.82 572.284 1304.45 572.286 1304.84 572.679L1339.46 607.661L1357.71 589.212C1358.1 588.819 1358.73 588.818 1359.12 589.209C1359.52 589.6 1359.52 590.236 1359.13 590.629L1340.16 609.793C1339.98 609.982 1339.72 610.089 1339.46 610.089Z" fill="url(#paint26_linear_3849_159763)"/>
<path fill-rule="evenodd" clip-rule="evenodd" d="M30.19 381.072C30.7415 381.072 31.1885 381.522 31.1885 382.077V451.217C31.1885 451.772 30.7415 452.222 30.19 452.222C29.6385 452.222 29.1914 451.772 29.1914 451.217V382.077C29.1914 381.522 29.6385 381.072 30.19 381.072Z" fill="url(#paint27_linear_3849_159763)"/>
<path fill-rule="evenodd" clip-rule="evenodd" d="M30.19 288.07C30.7415 288.07 31.1885 288.52 31.1885 289.075V358.215C31.1885 358.77 30.7415 359.22 30.19 359.22C29.6385 359.22 29.1914 358.77 29.1914 358.215V289.075C29.1914 288.52 29.6385 288.07 30.19 288.07Z" fill="url(#paint28_linear_3849_159763)"/>
<path fill-rule="evenodd" clip-rule="evenodd" d="M29.5442 357.454C29.9331 357.061 30.5638 357.061 30.9528 357.454L42.785 369.41C43.174 369.803 43.174 370.441 42.785 370.834L30.9528 382.791C30.5638 383.184 29.9331 383.184 29.5442 382.791L17.712 370.834C17.323 370.441 17.323 369.803 17.712 369.41L29.5442 357.454ZM30.2485 359.589L19.825 370.122L30.2485 380.655L40.672 370.122L30.2485 359.589Z" fill="url(#paint29_linear_3849_159763)"/>
<path fill-rule="evenodd" clip-rule="evenodd" d="M11.9824 599.386C12.5339 599.386 12.9809 599.835 12.9809 600.39L12.9809 971.75H1348.05C1348.6 971.75 1349.05 972.199 1349.05 972.754C1349.05 973.308 1348.6 973.758 1348.05 973.758H11.9824C11.4309 973.758 10.9839 973.308 10.9839 972.754L10.9838 600.39C10.9838 599.835 11.4309 599.386 11.9824 599.386Z" fill="url(#paint30_linear_3849_159763)"/>
<path fill-rule="evenodd" clip-rule="evenodd" d="M56.551 572.675C56.9419 573.066 56.9435 573.702 56.5545 574.095L21.2285 609.793C21.0411 609.982 20.7864 610.089 20.5207 610.089C20.2551 610.089 20.0004 609.982 19.813 609.793L0.84851 590.629C0.459515 590.236 0.461063 589.6 0.851967 589.209C1.24287 588.818 1.8751 588.819 2.2641 589.212L20.5207 607.661L55.1389 572.679C55.5279 572.286 56.1601 572.284 56.551 572.675Z" fill="url(#paint31_linear_3849_159763)"/>
<path fill-rule="evenodd" clip-rule="evenodd" d="M1303.41 574.099C1303.02 573.707 1303.01 573.072 1303.4 572.679L1338.73 536.981C1338.92 536.791 1339.17 536.685 1339.44 536.685C1339.7 536.685 1339.96 536.791 1340.14 536.981L1359.11 556.145C1359.5 556.538 1359.5 557.174 1359.11 557.565C1358.71 557.956 1358.08 557.955 1357.69 557.561L1339.44 539.113L1304.82 574.095C1304.43 574.488 1303.8 574.49 1303.41 574.099Z" fill="url(#paint32_linear_3849_159763)"/>
<path fill-rule="evenodd" clip-rule="evenodd" d="M30.19 694.238C30.7415 694.238 31.1885 694.688 31.1885 695.242V764.383C31.1885 764.938 30.7415 765.387 30.19 765.387C29.6385 765.387 29.1914 764.938 29.1914 764.383V695.242C29.1914 694.688 29.6385 694.238 30.19 694.238Z" fill="url(#paint33_linear_3849_159763)"/>
<path fill-rule="evenodd" clip-rule="evenodd" d="M30.19 787.24C30.7415 787.24 31.1885 787.69 31.1885 788.244V857.385C31.1885 857.94 30.7415 858.389 30.19 858.389C29.6385 858.389 29.1914 857.94 29.1914 857.385V788.244C29.1914 787.69 29.6385 787.24 30.19 787.24Z" fill="url(#paint34_linear_3849_159763)"/>
<path fill-rule="evenodd" clip-rule="evenodd" d="M17.5735 776.91C17.1845 776.517 17.1845 775.88 17.5735 775.487L29.4056 763.53C29.7946 763.137 30.4253 763.137 30.8143 763.53L42.6464 775.487C43.0354 775.88 43.0354 776.517 42.6464 776.91L30.8143 788.867C30.4253 789.26 29.7946 789.26 29.4056 788.867L17.5735 776.91ZM19.6865 776.198L30.1099 786.732L40.5334 776.198L30.1099 765.665L19.6865 776.198Z" fill="url(#paint35_linear_3849_159763)"/>
<path fill-rule="evenodd" clip-rule="evenodd" d="M159.229 0.618722C159.384 0.244113 159.748 0 160.151 0H1199.85C1200.25 0 1200.62 0.244113 1200.77 0.618722C1200.93 0.993331 1200.84 1.42483 1200.56 1.71239C1157.07 45.661 1157.07 117.175 1200.56 161.124C1244.04 205.07 1314.81 205.07 1358.29 161.124C1358.58 160.835 1359.01 160.749 1359.38 160.904C1359.76 161.059 1360 161.425 1360 161.832H1359C1360 161.832 1360 161.834 1360 161.838V972.996C1360 973.55 1359.55 974 1359 974H1347.55C1347 974 1346.55 973.55 1346.55 972.996C1346.55 972.441 1347 971.992 1347.55 971.992H1358V164.229C1313.61 207.268 1242.85 206.705 1199.14 162.54C1155.44 118.374 1154.88 46.8664 1197.48 2.00823H162.519C205.118 46.8664 204.565 118.374 160.859 162.54C117.154 206.705 46.3915 207.268 1.99706 164.229V971.992H12.4819C13.0334 971.992 13.4805 972.441 13.4805 972.996C13.4805 973.55 13.0334 974 12.4819 974H0.998532C0.447058 974 0 973.55 0 972.996V161.832C0 161.425 0.243814 161.059 0.617539 160.904C0.991265 160.749 1.42113 160.835 1.70633 161.124C45.1945 205.07 115.955 205.07 159.443 161.124C202.934 117.175 202.934 45.661 159.443 1.71239C159.159 1.42483 159.074 0.993331 159.229 0.618722Z" fill="url(#paint36_linear_3849_159763)"/>
<path fill-rule="evenodd" clip-rule="evenodd" d="M1240.35 120.915C1240.55 121.119 1240.66 121.401 1240.64 121.689L1236.55 186.321C1236.51 186.874 1236.04 187.294 1235.49 187.259C1234.94 187.224 1234.52 186.747 1234.56 186.193L1238.58 122.7L1175.75 126.761C1175.2 126.796 1174.72 126.376 1174.69 125.823C1174.65 125.27 1175.07 124.792 1175.62 124.756L1239.58 120.623C1239.87 120.605 1240.15 120.711 1240.35 120.915Z" fill="url(#paint37_linear_3849_159763)"/>
<path fill-rule="evenodd" clip-rule="evenodd" d="M1204.62 134.965C1204.62 134.41 1205.06 133.961 1205.61 133.961H1226.25C1226.8 133.961 1227.25 134.41 1227.25 134.965V155.82C1227.25 156.374 1226.8 156.824 1226.25 156.824H1205.61C1205.06 156.824 1204.62 156.374 1204.62 155.82V134.965ZM1206.61 135.969V154.816H1225.25V135.969H1206.61Z" fill="url(#paint38_linear_3849_159763)"/>
<path fill-rule="evenodd" clip-rule="evenodd" d="M1245.71 15.6274C1246.24 15.486 1246.79 15.806 1246.93 16.3422L1267.38 94.3137C1267.47 94.6583 1267.37 95.0254 1267.12 95.278L1240.35 122.333C1239.96 122.726 1239.33 122.728 1238.94 122.337C1238.55 121.946 1238.55 121.31 1238.93 120.917L1265.3 94.2694L1245 16.8544C1244.86 16.3182 1245.18 15.7688 1245.71 15.6274Z" fill="url(#paint39_linear_3849_159763)"/>
<path fill-rule="evenodd" clip-rule="evenodd" d="M1265.45 94.3086C1265.59 93.7732 1266.14 93.456 1266.67 93.6003L1343.65 114.455C1343.94 114.535 1344.18 114.746 1344.31 115.027C1344.43 115.309 1344.41 115.63 1344.27 115.9L1335.53 132.246C1335.27 132.735 1334.66 132.918 1334.18 132.655C1333.69 132.393 1333.51 131.784 1333.77 131.295L1341.91 116.065L1266.16 95.5394C1265.62 95.3951 1265.31 94.8441 1265.45 94.3086Z" fill="url(#paint40_linear_3849_159763)"/>
<path fill-rule="evenodd" clip-rule="evenodd" d="M1351.72 9.12475C1352.11 9.51694 1352.11 10.1527 1351.72 10.5448L1280.32 82.3161C1279.93 82.7082 1279.3 82.7081 1278.91 82.3159C1278.52 81.9237 1278.52 81.2879 1278.91 80.8958L1350.3 9.12451C1350.69 8.73245 1351.33 8.73255 1351.72 9.12475Z" fill="url(#paint41_linear_3849_159763)"/>
<path fill-rule="evenodd" clip-rule="evenodd" d="M1351.72 9.12751C1352.06 9.47689 1352.1 10.026 1351.82 10.4243L1296.78 86.7048C1296.46 87.1537 1295.83 87.2535 1295.39 86.9279C1294.94 86.6022 1294.84 85.9744 1295.17 85.5255L1346.61 14.2242L1275.36 65.3261C1274.91 65.6481 1274.29 65.5432 1273.96 65.0917C1273.64 64.6402 1273.75 64.0131 1274.2 63.6911L1350.43 9.01716C1350.83 8.7314 1351.37 8.77812 1351.72 9.12751Z" fill="url(#paint42_linear_3849_159763)"/>
<path fill-rule="evenodd" clip-rule="evenodd" d="M1351.72 9.12804C1352.01 9.42044 1352.09 9.85997 1351.93 10.237L1316.79 91.0267C1316.56 91.5348 1315.98 91.7665 1315.47 91.5443C1314.97 91.3221 1314.74 90.7301 1314.96 90.222L1349.09 11.7499L1270.71 45.3289C1270.2 45.5463 1269.62 45.3089 1269.4 44.7987C1269.18 44.2885 1269.42 43.6987 1269.93 43.4814L1350.62 8.91088C1351 8.74957 1351.43 8.83564 1351.72 9.12804Z" fill="url(#paint43_linear_3849_159763)"/>
<path fill-rule="evenodd" clip-rule="evenodd" d="M1351.72 9.12804C1351.95 9.35834 1352.05 9.68484 1352 10.0042L1337.31 96.2425C1337.21 96.7891 1336.7 97.1563 1336.15 97.0627C1335.61 96.9691 1335.25 96.4501 1335.34 95.9035L1349.79 11.0482L1264.9 24.7295C1264.36 24.8172 1263.84 24.4445 1263.76 23.8969C1263.67 23.3493 1264.04 22.8343 1264.58 22.7465L1350.85 8.84319C1351.17 8.79192 1351.49 8.89773 1351.72 9.12804Z" fill="url(#paint44_linear_3849_159763)"/>
<path d="M1187.58 110.916C1188.88 109.976 1189.07 108.097 1187.95 106.782C1187.02 105.467 1185.16 105.279 1183.86 106.407C1182.56 107.346 1182.37 109.225 1183.49 110.54C1184.6 111.855 1186.46 112.043 1187.58 110.916Z" fill="url(#paint45_linear_3849_159763)"/>
<path d="M1207.84 111.292C1209.14 110.352 1209.33 108.473 1208.21 107.158C1207.1 105.843 1205.43 105.655 1204.12 106.782C1202.82 107.722 1202.64 109.601 1203.75 110.916C1204.87 112.043 1206.73 112.231 1207.84 111.292Z" fill="url(#paint46_linear_3849_159763)"/>
<path d="M1228.29 111.479C1229.59 110.54 1229.78 108.661 1228.66 107.346C1227.74 106.031 1225.88 105.843 1224.57 106.97C1223.27 107.91 1223.09 109.788 1224.2 111.104C1225.13 112.231 1226.99 112.419 1228.29 111.479Z" fill="url(#paint47_linear_3849_159763)"/>
<path d="M1249.86 174.044C1250.97 172.729 1252.83 172.541 1253.95 173.669C1255.25 174.796 1255.43 176.675 1254.32 177.802C1253.2 179.117 1251.34 179.305 1250.23 178.178C1248.93 177.238 1248.74 175.359 1249.86 174.044Z" fill="url(#paint48_linear_3849_159763)"/>
<path d="M1249.85 153.565C1250.97 152.25 1252.83 152.062 1253.95 153.189C1255.25 154.317 1255.43 156.195 1254.32 157.323C1253.2 158.638 1251.34 158.826 1250.23 157.699C1248.93 156.759 1248.93 154.88 1249.85 153.565Z" fill="url(#paint49_linear_3849_159763)"/>
<path d="M1250.04 133.086C1251.16 131.771 1253.02 131.583 1254.13 132.71C1255.44 133.837 1255.62 135.716 1254.51 136.843C1253.39 138.159 1251.53 138.347 1250.42 137.219C1249.11 136.092 1248.93 134.401 1250.04 133.086Z" fill="url(#paint50_linear_3849_159763)"/>
<path fill-rule="evenodd" clip-rule="evenodd" d="M1246.82 16.1115C1247.09 16.5965 1246.92 17.2077 1246.43 17.4766L1230.97 26.0999L1255.46 106.111C1255.62 106.641 1255.32 107.203 1254.8 107.366C1254.27 107.529 1253.71 107.232 1253.55 106.702L1228.82 25.9121C1228.68 25.4584 1228.88 24.9688 1229.29 24.7386L1245.46 15.7202C1245.95 15.4513 1246.56 15.6265 1246.82 16.1115Z" fill="url(#paint51_linear_3849_159763)"/>
<path fill-rule="evenodd" clip-rule="evenodd" d="M1178.69 29.7945C1179.08 29.4009 1179.71 29.3984 1180.11 29.7891L1194.98 44.6318C1195.37 45.0224 1195.37 45.6582 1194.99 46.0518C1194.6 46.4455 1193.96 46.4479 1193.57 46.0573L1178.7 31.2145C1178.31 30.8239 1178.31 30.1881 1178.69 29.7945Z" fill="url(#paint52_linear_3849_159763)"/>
<path fill-rule="evenodd" clip-rule="evenodd" d="M1218.11 69.6212C1218.5 69.23 1219.13 69.2316 1219.52 69.6247L1255.22 105.698C1255.55 106.028 1255.6 106.541 1255.36 106.937C1255.11 107.332 1254.63 107.507 1254.19 107.358L1166.62 77.6725C1166.1 77.4953 1165.82 76.9257 1165.99 76.4002C1166.17 75.8747 1166.74 75.5923 1167.26 75.7695L1250.81 104.093L1218.11 71.0412C1217.72 70.6481 1217.72 70.0124 1218.11 69.6212Z" fill="url(#paint53_linear_3849_159763)"/>
<path fill-rule="evenodd" clip-rule="evenodd" d="M1253.75 106.294C1253.91 105.765 1254.47 105.47 1255 105.636L1334.95 130.812C1335.47 130.978 1335.77 131.542 1335.6 132.071C1335.44 132.6 1334.88 132.895 1334.35 132.729L1254.4 107.553C1253.88 107.387 1253.58 106.824 1253.75 106.294Z" fill="url(#paint54_linear_3849_159763)"/>
<path fill-rule="evenodd" clip-rule="evenodd" d="M1314.42 166.752C1314.81 166.364 1315.45 166.369 1315.83 166.765L1330.52 181.795C1330.91 182.191 1330.9 182.827 1330.51 183.215C1330.12 183.604 1329.48 183.598 1329.1 183.203L1314.41 168.172C1314.02 167.777 1314.03 167.141 1314.42 166.752Z" fill="url(#paint55_linear_3849_159763)"/>
<path fill-rule="evenodd" clip-rule="evenodd" d="M1254.18 105.74C1254.57 105.495 1255.08 105.556 1255.41 105.886L1291.11 141.96C1291.5 142.353 1291.49 142.989 1291.1 143.38C1290.71 143.771 1290.08 143.769 1289.69 143.376L1257 110.337L1285.03 194.769C1285.2 195.295 1284.92 195.864 1284.39 196.04C1283.87 196.215 1283.31 195.931 1283.13 195.405L1253.75 106.912C1253.61 106.47 1253.78 105.984 1254.18 105.74Z" fill="url(#paint56_linear_3849_159763)"/>
<path fill-rule="evenodd" clip-rule="evenodd" d="M1193.27 45.3445C1193.27 44.79 1193.72 44.3404 1194.27 44.3404H1219C1219.55 44.3404 1220 44.79 1220 45.3445V70.333C1220 70.8875 1219.55 71.3371 1219 71.3371H1194.27C1193.72 71.3371 1193.27 70.8875 1193.27 70.333V45.3445ZM1195.27 46.3486V69.3288H1218V46.3486H1195.27Z" fill="url(#paint57_linear_3849_159763)"/>
<path fill-rule="evenodd" clip-rule="evenodd" d="M1289.4 142.668C1289.4 142.113 1289.84 141.664 1290.4 141.664H1315.12C1315.68 141.664 1316.12 142.113 1316.12 142.668V167.656C1316.12 168.211 1315.68 168.661 1315.12 168.661H1290.4C1289.84 168.661 1289.4 168.211 1289.4 167.656V142.668ZM1291.39 143.672V166.652H1314.12V143.672H1291.39Z" fill="url(#paint58_linear_3849_159763)"/>
<path fill-rule="evenodd" clip-rule="evenodd" d="M1347.84 171.161C1348.39 171.161 1348.84 171.611 1348.84 172.166V545.393C1348.84 545.947 1348.39 546.397 1347.84 546.397C1347.29 546.397 1346.84 545.947 1346.84 545.393V172.166C1346.84 171.611 1347.29 171.161 1347.84 171.161Z" fill="url(#paint59_linear_3849_159763)"/>
<path fill-rule="evenodd" clip-rule="evenodd" d="M1329.81 380.063C1330.36 380.063 1330.81 380.513 1330.81 381.067V450.208C1330.81 450.763 1330.36 451.212 1329.81 451.212C1329.26 451.212 1328.81 450.763 1328.81 450.208V381.067C1328.81 380.513 1329.26 380.063 1329.81 380.063Z" fill="url(#paint60_linear_3849_159763)"/>
<path fill-rule="evenodd" clip-rule="evenodd" d="M1329.81 287.061C1330.36 287.061 1330.81 287.511 1330.81 288.065V357.206C1330.81 357.761 1330.36 358.21 1329.81 358.21C1329.26 358.21 1328.81 357.761 1328.81 357.206V288.065C1328.81 287.511 1329.26 287.061 1329.81 287.061Z" fill="url(#paint61_linear_3849_159763)"/>
<path fill-rule="evenodd" clip-rule="evenodd" d="M1342.52 368.457C1342.91 368.85 1342.91 369.488 1342.52 369.881L1330.69 381.838C1330.3 382.231 1329.67 382.231 1329.28 381.838L1317.45 369.881C1317.06 369.488 1317.06 368.85 1317.45 368.457L1329.28 356.501C1329.67 356.108 1330.3 356.108 1330.69 356.501L1342.52 368.457ZM1340.41 369.169L1329.99 358.636L1319.56 369.169L1329.99 379.702L1340.41 369.169Z" fill="url(#paint62_linear_3849_159763)"/>
<path d="M1187.59 793.683C1188.89 794.622 1189.07 796.501 1187.96 797.816C1187.03 799.131 1185.17 799.319 1183.87 798.192C1182.57 797.252 1182.38 795.373 1183.5 794.058C1184.61 792.743 1186.47 792.555 1187.59 793.683Z" fill="url(#paint63_linear_3849_159763)"/>
<path d="M1207.85 793.306C1209.15 794.246 1209.34 796.125 1208.22 797.44C1207.29 798.755 1205.43 798.943 1204.13 797.816C1202.83 796.876 1202.64 794.997 1203.76 793.682C1204.88 792.367 1206.73 792.367 1207.85 793.306Z" fill="url(#paint64_linear_3849_159763)"/>
<path d="M1228.3 793.119C1229.6 794.058 1229.79 795.937 1228.67 797.252C1227.74 798.567 1225.88 798.755 1224.58 797.628C1223.28 796.689 1223.09 794.81 1224.21 793.495C1225.14 792.367 1227 792.179 1228.3 793.119Z" fill="url(#paint65_linear_3849_159763)"/>
<path fill-rule="evenodd" clip-rule="evenodd" d="M1193.28 834.265C1193.28 833.711 1193.73 833.261 1194.28 833.261H1219.01C1219.56 833.261 1220.01 833.711 1220.01 834.265V859.254C1220.01 859.808 1219.56 860.258 1219.01 860.258H1194.28C1193.73 860.258 1193.28 859.808 1193.28 859.254V834.265ZM1195.28 835.269V858.25H1218.01V835.269H1195.28Z" fill="url(#paint66_linear_3849_159763)"/>
<path fill-rule="evenodd" clip-rule="evenodd" d="M1347.85 600.378C1348.4 600.378 1348.84 600.827 1348.84 601.382V972.609C1348.84 973.163 1348.4 973.613 1347.85 973.613C1347.29 973.613 1346.85 973.163 1346.85 972.609V601.382C1346.85 600.827 1347.29 600.378 1347.85 600.378Z" fill="url(#paint67_linear_3849_159763)"/>
<path fill-rule="evenodd" clip-rule="evenodd" d="M1329.82 694.553C1330.37 694.553 1330.82 695.002 1330.82 695.557V764.698C1330.82 765.252 1330.37 765.702 1329.82 765.702C1329.27 765.702 1328.82 765.252 1328.82 764.698V695.557C1328.82 695.002 1329.27 694.553 1329.82 694.553Z" fill="url(#paint68_linear_3849_159763)"/>
<path fill-rule="evenodd" clip-rule="evenodd" d="M1329.82 787.555C1330.37 787.555 1330.82 788.004 1330.82 788.559V857.7C1330.82 858.255 1330.37 858.704 1329.82 858.704C1329.27 858.704 1328.82 858.255 1328.82 857.7V788.559C1328.82 788.004 1329.27 787.555 1329.82 787.555Z" fill="url(#paint69_linear_3849_159763)"/>
<path fill-rule="evenodd" clip-rule="evenodd" d="M1330.57 789.404C1330.18 789.797 1329.55 789.797 1329.16 789.404L1317.33 777.447C1316.94 777.054 1316.94 776.417 1317.33 776.024L1329.16 764.067C1329.55 763.674 1330.18 763.674 1330.57 764.067L1342.4 776.024C1342.79 776.417 1342.79 777.054 1342.4 777.447L1330.57 789.404ZM1329.86 787.269L1340.29 776.736L1329.86 766.202L1319.44 776.736L1329.86 787.269Z" fill="url(#paint70_linear_3849_159763)"/>
<path fill-rule="evenodd" clip-rule="evenodd" d="M175.515 20.3563C175.515 19.8018 175.962 19.3522 176.514 19.3522H1184.26C1184.81 19.3522 1185.26 19.8018 1185.26 20.3563C1185.26 20.9109 1184.81 21.3604 1184.26 21.3604H176.514C175.962 21.3604 175.515 20.9109 175.515 20.3563Z" fill="url(#paint71_linear_3849_159763)"/>
<path fill-rule="evenodd" clip-rule="evenodd" d="M607.055 19.3522C607.606 19.3522 608.053 19.8018 608.053 20.3563C608.053 60.5755 640.327 93.0023 679.926 93.0023C719.523 93.0023 751.799 60.3893 751.799 20.3563C751.799 19.8018 752.246 19.3522 752.797 19.3522C753.349 19.3522 753.796 19.8018 753.796 20.3563C753.796 61.4888 720.636 95.0106 679.926 95.0106C639.218 95.0106 606.056 61.6784 606.056 20.3563C606.056 19.8018 606.503 19.3522 607.055 19.3522Z" fill="url(#paint72_linear_3849_159763)"/>
<path fill-rule="evenodd" clip-rule="evenodd" d="M679.183 19.3522C679.734 19.3493 680.184 19.7966 680.186 20.3512L680.558 94.0013C680.561 94.5558 680.116 95.0077 679.565 95.0105C679.013 95.0133 678.564 94.566 678.561 94.0115L678.189 20.3614C678.187 19.8068 678.631 19.355 679.183 19.3522Z" fill="url(#paint73_linear_3849_159763)"/>
<path fill-rule="evenodd" clip-rule="evenodd" d="M679.177 19.3522C679.644 19.3474 680.052 19.6694 680.159 20.1271L696.89 91.8984C697.015 92.4383 696.682 92.9786 696.145 93.1052C695.608 93.2317 695.071 92.8967 694.945 92.3567L679.233 24.9558L664.92 92.5247C664.805 93.067 664.275 93.4131 663.735 93.2975C663.196 93.182 662.852 92.6487 662.967 92.1063L678.21 20.1471C678.307 19.6873 678.709 19.357 679.177 19.3522Z" fill="url(#paint74_linear_3849_159763)"/>
<path fill-rule="evenodd" clip-rule="evenodd" d="M679.173 19.3522C679.538 19.3489 679.876 19.5463 680.054 19.8668L715.932 84.4986C716.2 84.9828 716.028 85.5945 715.546 85.8648C715.065 86.1351 714.457 85.9617 714.188 85.4774L679.2 22.4497L645.671 85.4617C645.411 85.9507 644.806 86.135 644.32 85.8734C643.833 85.6117 643.65 85.0033 643.91 84.5143L678.301 19.8825C678.473 19.5588 678.808 19.3554 679.173 19.3522Z" fill="url(#paint75_linear_3849_159763)"/>
<path fill-rule="evenodd" clip-rule="evenodd" d="M678.179 19.4575C678.454 19.3195 678.778 19.3169 679.055 19.4506L746.164 51.7665C746.661 52.006 746.872 52.6056 746.633 53.1058C746.395 53.606 745.799 53.8173 745.302 53.5778L678.633 21.4737L614.563 53.5709C614.07 53.8182 613.47 53.6163 613.224 53.1199C612.978 52.6235 613.179 52.0207 613.673 51.7734L678.179 19.4575Z" fill="url(#paint76_linear_3849_159763)"/>
<path fill-rule="evenodd" clip-rule="evenodd" d="M679.177 19.3522C679.444 19.3502 679.701 19.4563 679.89 19.6467L731.197 71.3146C731.587 71.707 731.586 72.3428 731.196 72.7346C730.806 73.1265 730.174 73.126 729.784 72.7336L679.194 21.7878L630.08 72.7231C629.696 73.1212 629.064 73.131 628.668 72.745C628.272 72.3589 628.262 71.7232 628.646 71.3251L678.466 19.6573C678.653 19.4641 678.909 19.3542 679.177 19.3522Z" fill="url(#paint77_linear_3849_159763)"/>
<path d="M689.589 19.6047C689.589 13.7803 684.942 9.27109 679.365 9.27109C673.602 9.27109 669.141 13.9682 669.141 19.6047C669.141 25.2411 673.788 29.9382 679.365 29.9382C684.942 29.9382 689.589 25.429 689.589 19.6047Z" fill="url(#paint78_linear_3849_159763)"/>
<path fill-rule="evenodd" clip-rule="evenodd" d="M668.142 19.6047C668.142 13.4304 673.034 8.26697 679.365 8.26697C685.486 8.26697 690.588 13.2186 690.588 19.6047C690.588 25.9907 685.486 30.9423 679.365 30.9423C673.232 30.9423 668.142 25.7909 668.142 19.6047ZM679.365 10.2752C674.17 10.2752 670.139 14.506 670.139 19.6047C670.139 24.6914 674.344 28.9341 679.365 28.9341C684.398 28.9341 688.591 24.8674 688.591 19.6047C688.591 14.342 684.398 10.2752 679.365 10.2752Z" fill="url(#paint79_linear_3849_159763)"/>
</g>
<defs>
<linearGradient id="paint0_linear_3849_159763" x1="0" y1="0" x2="1677.01" y2="138.478" gradientUnits="userSpaceOnUse">
<stop stop-color="#F8D190"/>
<stop offset="1" stop-color="#E2AD3E"/>
</linearGradient>
<linearGradient id="paint1_linear_3849_159763" x1="0" y1="0" x2="1677.01" y2="138.478" gradientUnits="userSpaceOnUse">
<stop stop-color="#F8D190"/>
<stop offset="1" stop-color="#E2AD3E"/>
</linearGradient>
<linearGradient id="paint2_linear_3849_159763" x1="0" y1="0" x2="1677.01" y2="138.478" gradientUnits="userSpaceOnUse">
<stop stop-color="#F8D190"/>
<stop offset="1" stop-color="#E2AD3E"/>
</linearGradient>
<linearGradient id="paint3_linear_3849_159763" x1="0" y1="0" x2="1677.01" y2="138.478" gradientUnits="userSpaceOnUse">
<stop stop-color="#F8D190"/>
<stop offset="1" stop-color="#E2AD3E"/>
</linearGradient>
<linearGradient id="paint4_linear_3849_159763" x1="0" y1="0" x2="1677.01" y2="138.478" gradientUnits="userSpaceOnUse">
<stop stop-color="#F8D190"/>
<stop offset="1" stop-color="#E2AD3E"/>
</linearGradient>
<linearGradient id="paint5_linear_3849_159763" x1="0" y1="0" x2="1677.01" y2="138.478" gradientUnits="userSpaceOnUse">
<stop stop-color="#F8D190"/>
<stop offset="1" stop-color="#E2AD3E"/>
</linearGradient>
<linearGradient id="paint6_linear_3849_159763" x1="0" y1="0" x2="1677.01" y2="138.478" gradientUnits="userSpaceOnUse">
<stop stop-color="#F8D190"/>
<stop offset="1" stop-color="#E2AD3E"/>
</linearGradient>
<linearGradient id="paint7_linear_3849_159763" x1="0" y1="0" x2="1677.01" y2="138.478" gradientUnits="userSpaceOnUse">
<stop stop-color="#F8D190"/>
<stop offset="1" stop-color="#E2AD3E"/>
</linearGradient>
<linearGradient id="paint8_linear_3849_159763" x1="0" y1="0" x2="1677.01" y2="138.478" gradientUnits="userSpaceOnUse">
<stop stop-color="#F8D190"/>
<stop offset="1" stop-color="#E2AD3E"/>
</linearGradient>
<linearGradient id="paint9_linear_3849_159763" x1="0" y1="0" x2="1677.01" y2="138.478" gradientUnits="userSpaceOnUse">
<stop stop-color="#F8D190"/>
<stop offset="1" stop-color="#E2AD3E"/>
</linearGradient>
<linearGradient id="paint10_linear_3849_159763" x1="0" y1="0" x2="1677.01" y2="138.478" gradientUnits="userSpaceOnUse">
<stop stop-color="#F8D190"/>
<stop offset="1" stop-color="#E2AD3E"/>
</linearGradient>
<linearGradient id="paint11_linear_3849_159763" x1="0" y1="0" x2="1677.01" y2="138.478" gradientUnits="userSpaceOnUse">
<stop stop-color="#F8D190"/>
<stop offset="1" stop-color="#E2AD3E"/>
</linearGradient>
<linearGradient id="paint12_linear_3849_159763" x1="0" y1="0" x2="1677.01" y2="138.478" gradientUnits="userSpaceOnUse">
<stop stop-color="#F8D190"/>
<stop offset="1" stop-color="#E2AD3E"/>
</linearGradient>
<linearGradient id="paint13_linear_3849_159763" x1="0" y1="0" x2="1677.01" y2="138.478" gradientUnits="userSpaceOnUse">
<stop stop-color="#F8D190"/>
<stop offset="1" stop-color="#E2AD3E"/>
</linearGradient>
<linearGradient id="paint14_linear_3849_159763" x1="0" y1="0" x2="1677.01" y2="138.478" gradientUnits="userSpaceOnUse">
<stop stop-color="#F8D190"/>
<stop offset="1" stop-color="#E2AD3E"/>
</linearGradient>
<linearGradient id="paint15_linear_3849_159763" x1="0" y1="0" x2="1677.01" y2="138.478" gradientUnits="userSpaceOnUse">
<stop stop-color="#F8D190"/>
<stop offset="1" stop-color="#E2AD3E"/>
</linearGradient>
<linearGradient id="paint16_linear_3849_159763" x1="0" y1="0" x2="1677.01" y2="138.478" gradientUnits="userSpaceOnUse">
<stop stop-color="#F8D190"/>
<stop offset="1" stop-color="#E2AD3E"/>
</linearGradient>
<linearGradient id="paint17_linear_3849_159763" x1="0" y1="0" x2="1677.01" y2="138.478" gradientUnits="userSpaceOnUse">
<stop stop-color="#F8D190"/>
<stop offset="1" stop-color="#E2AD3E"/>
</linearGradient>
<linearGradient id="paint18_linear_3849_159763" x1="0" y1="0" x2="1677.01" y2="138.478" gradientUnits="userSpaceOnUse">
<stop stop-color="#F8D190"/>
<stop offset="1" stop-color="#E2AD3E"/>
</linearGradient>
<linearGradient id="paint19_linear_3849_159763" x1="0" y1="0" x2="1677.01" y2="138.478" gradientUnits="userSpaceOnUse">
<stop stop-color="#F8D190"/>
<stop offset="1" stop-color="#E2AD3E"/>
</linearGradient>
<linearGradient id="paint20_linear_3849_159763" x1="0" y1="0" x2="1677.01" y2="138.478" gradientUnits="userSpaceOnUse">
<stop stop-color="#F8D190"/>
<stop offset="1" stop-color="#E2AD3E"/>
</linearGradient>
<linearGradient id="paint21_linear_3849_159763" x1="0" y1="0" x2="1677.01" y2="138.478" gradientUnits="userSpaceOnUse">
<stop stop-color="#F8D190"/>
<stop offset="1" stop-color="#E2AD3E"/>
</linearGradient>
<linearGradient id="paint22_linear_3849_159763" x1="0" y1="0" x2="1677.01" y2="138.478" gradientUnits="userSpaceOnUse">
<stop stop-color="#F8D190"/>
<stop offset="1" stop-color="#E2AD3E"/>
</linearGradient>
<linearGradient id="paint23_linear_3849_159763" x1="0" y1="0" x2="1677.01" y2="138.478" gradientUnits="userSpaceOnUse">
<stop stop-color="#F8D190"/>
<stop offset="1" stop-color="#E2AD3E"/>
</linearGradient>
<linearGradient id="paint24_linear_3849_159763" x1="0" y1="0" x2="1677.01" y2="138.478" gradientUnits="userSpaceOnUse">
<stop stop-color="#F8D190"/>
<stop offset="1" stop-color="#E2AD3E"/>
</linearGradient>
<linearGradient id="paint25_linear_3849_159763" x1="0" y1="0" x2="1677.01" y2="138.478" gradientUnits="userSpaceOnUse">
<stop stop-color="#F8D190"/>
<stop offset="1" stop-color="#E2AD3E"/>
</linearGradient>
<linearGradient id="paint26_linear_3849_159763" x1="0" y1="0" x2="1677.01" y2="138.478" gradientUnits="userSpaceOnUse">
<stop stop-color="#F8D190"/>
<stop offset="1" stop-color="#E2AD3E"/>
</linearGradient>
<linearGradient id="paint27_linear_3849_159763" x1="0" y1="0" x2="1677.01" y2="138.478" gradientUnits="userSpaceOnUse">
<stop stop-color="#F8D190"/>
<stop offset="1" stop-color="#E2AD3E"/>
</linearGradient>
<linearGradient id="paint28_linear_3849_159763" x1="0" y1="0" x2="1677.01" y2="138.478" gradientUnits="userSpaceOnUse">
<stop stop-color="#F8D190"/>
<stop offset="1" stop-color="#E2AD3E"/>
</linearGradient>
<linearGradient id="paint29_linear_3849_159763" x1="0" y1="0" x2="1677.01" y2="138.478" gradientUnits="userSpaceOnUse">
<stop stop-color="#F8D190"/>
<stop offset="1" stop-color="#E2AD3E"/>
</linearGradient>
<linearGradient id="paint30_linear_3849_159763" x1="0" y1="0" x2="1677.01" y2="138.478" gradientUnits="userSpaceOnUse">
<stop stop-color="#F8D190"/>
<stop offset="1" stop-color="#E2AD3E"/>
</linearGradient>
<linearGradient id="paint31_linear_3849_159763" x1="0" y1="0" x2="1677.01" y2="138.478" gradientUnits="userSpaceOnUse">
<stop stop-color="#F8D190"/>
<stop offset="1" stop-color="#E2AD3E"/>
</linearGradient>
<linearGradient id="paint32_linear_3849_159763" x1="0" y1="0" x2="1677.01" y2="138.478" gradientUnits="userSpaceOnUse">
<stop stop-color="#F8D190"/>
<stop offset="1" stop-color="#E2AD3E"/>
</linearGradient>
<linearGradient id="paint33_linear_3849_159763" x1="0" y1="0" x2="1677.01" y2="138.478" gradientUnits="userSpaceOnUse">
<stop stop-color="#F8D190"/>
<stop offset="1" stop-color="#E2AD3E"/>
</linearGradient>
<linearGradient id="paint34_linear_3849_159763" x1="0" y1="0" x2="1677.01" y2="138.478" gradientUnits="userSpaceOnUse">
<stop stop-color="#F8D190"/>
<stop offset="1" stop-color="#E2AD3E"/>
</linearGradient>
<linearGradient id="paint35_linear_3849_159763" x1="0" y1="0" x2="1677.01" y2="138.478" gradientUnits="userSpaceOnUse">
<stop stop-color="#F8D190"/>
<stop offset="1" stop-color="#E2AD3E"/>
</linearGradient>
<linearGradient id="paint36_linear_3849_159763" x1="0" y1="0" x2="1677.01" y2="138.478" gradientUnits="userSpaceOnUse">
<stop stop-color="#F8D190"/>
<stop offset="1" stop-color="#E2AD3E"/>
</linearGradient>
<linearGradient id="paint37_linear_3849_159763" x1="0" y1="0" x2="1677.01" y2="138.478" gradientUnits="userSpaceOnUse">
<stop stop-color="#F8D190"/>
<stop offset="1" stop-color="#E2AD3E"/>
</linearGradient>
<linearGradient id="paint38_linear_3849_159763" x1="0" y1="0" x2="1677.01" y2="138.478" gradientUnits="userSpaceOnUse">
<stop stop-color="#F8D190"/>
<stop offset="1" stop-color="#E2AD3E"/>
</linearGradient>
<linearGradient id="paint39_linear_3849_159763" x1="0" y1="0" x2="1677.01" y2="138.478" gradientUnits="userSpaceOnUse">
<stop stop-color="#F8D190"/>
<stop offset="1" stop-color="#E2AD3E"/>
</linearGradient>
<linearGradient id="paint40_linear_3849_159763" x1="0" y1="0" x2="1677.01" y2="138.478" gradientUnits="userSpaceOnUse">
<stop stop-color="#F8D190"/>
<stop offset="1" stop-color="#E2AD3E"/>
</linearGradient>
<linearGradient id="paint41_linear_3849_159763" x1="0" y1="0" x2="1677.01" y2="138.478" gradientUnits="userSpaceOnUse">
<stop stop-color="#F8D190"/>
<stop offset="1" stop-color="#E2AD3E"/>
</linearGradient>
<linearGradient id="paint42_linear_3849_159763" x1="0" y1="0" x2="1677.01" y2="138.478" gradientUnits="userSpaceOnUse">
<stop stop-color="#F8D190"/>
<stop offset="1" stop-color="#E2AD3E"/>
</linearGradient>
<linearGradient id="paint43_linear_3849_159763" x1="0" y1="0" x2="1677.01" y2="138.478" gradientUnits="userSpaceOnUse">
<stop stop-color="#F8D190"/>
<stop offset="1" stop-color="#E2AD3E"/>
</linearGradient>
<linearGradient id="paint44_linear_3849_159763" x1="0" y1="0" x2="1677.01" y2="138.478" gradientUnits="userSpaceOnUse">
<stop stop-color="#F8D190"/>
<stop offset="1" stop-color="#E2AD3E"/>
</linearGradient>
<linearGradient id="paint45_linear_3849_159763" x1="0" y1="0" x2="1677.01" y2="138.478" gradientUnits="userSpaceOnUse">
<stop stop-color="#F8D190"/>
<stop offset="1" stop-color="#E2AD3E"/>
</linearGradient>
<linearGradient id="paint46_linear_3849_159763" x1="0" y1="0" x2="1677.01" y2="138.478" gradientUnits="userSpaceOnUse">
<stop stop-color="#F8D190"/>
<stop offset="1" stop-color="#E2AD3E"/>
</linearGradient>
<linearGradient id="paint47_linear_3849_159763" x1="0" y1="0" x2="1677.01" y2="138.478" gradientUnits="userSpaceOnUse">
<stop stop-color="#F8D190"/>
<stop offset="1" stop-color="#E2AD3E"/>
</linearGradient>
<linearGradient id="paint48_linear_3849_159763" x1="0" y1="0" x2="1677.01" y2="138.478" gradientUnits="userSpaceOnUse">
<stop stop-color="#F8D190"/>
<stop offset="1" stop-color="#E2AD3E"/>
</linearGradient>
<linearGradient id="paint49_linear_3849_159763" x1="0" y1="0" x2="1677.01" y2="138.478" gradientUnits="userSpaceOnUse">
<stop stop-color="#F8D190"/>
<stop offset="1" stop-color="#E2AD3E"/>
</linearGradient>
<linearGradient id="paint50_linear_3849_159763" x1="0" y1="0" x2="1677.01" y2="138.478" gradientUnits="userSpaceOnUse">
<stop stop-color="#F8D190"/>
<stop offset="1" stop-color="#E2AD3E"/>
</linearGradient>
<linearGradient id="paint51_linear_3849_159763" x1="0" y1="0" x2="1677.01" y2="138.478" gradientUnits="userSpaceOnUse">
<stop stop-color="#F8D190"/>
<stop offset="1" stop-color="#E2AD3E"/>
</linearGradient>
<linearGradient id="paint52_linear_3849_159763" x1="0" y1="0" x2="1677.01" y2="138.478" gradientUnits="userSpaceOnUse">
<stop stop-color="#F8D190"/>
<stop offset="1" stop-color="#E2AD3E"/>
</linearGradient>
<linearGradient id="paint53_linear_3849_159763" x1="0" y1="0" x2="1677.01" y2="138.478" gradientUnits="userSpaceOnUse">
<stop stop-color="#F8D190"/>
<stop offset="1" stop-color="#E2AD3E"/>
</linearGradient>
<linearGradient id="paint54_linear_3849_159763" x1="0" y1="0" x2="1677.01" y2="138.478" gradientUnits="userSpaceOnUse">
<stop stop-color="#F8D190"/>
<stop offset="1" stop-color="#E2AD3E"/>
</linearGradient>
<linearGradient id="paint55_linear_3849_159763" x1="0" y1="0" x2="1677.01" y2="138.478" gradientUnits="userSpaceOnUse">
<stop stop-color="#F8D190"/>
<stop offset="1" stop-color="#E2AD3E"/>
</linearGradient>
<linearGradient id="paint56_linear_3849_159763" x1="0" y1="0" x2="1677.01" y2="138.478" gradientUnits="userSpaceOnUse">
<stop stop-color="#F8D190"/>
<stop offset="1" stop-color="#E2AD3E"/>
</linearGradient>
<linearGradient id="paint57_linear_3849_159763" x1="0" y1="0" x2="1677.01" y2="138.478" gradientUnits="userSpaceOnUse">
<stop stop-color="#F8D190"/>
<stop offset="1" stop-color="#E2AD3E"/>
</linearGradient>
<linearGradient id="paint58_linear_3849_159763" x1="0" y1="0" x2="1677.01" y2="138.478" gradientUnits="userSpaceOnUse">
<stop stop-color="#F8D190"/>
<stop offset="1" stop-color="#E2AD3E"/>
</linearGradient>
<linearGradient id="paint59_linear_3849_159763" x1="0" y1="0" x2="1677.01" y2="138.478" gradientUnits="userSpaceOnUse">
<stop stop-color="#F8D190"/>
<stop offset="1" stop-color="#E2AD3E"/>
</linearGradient>
<linearGradient id="paint60_linear_3849_159763" x1="0" y1="0" x2="1677.01" y2="138.478" gradientUnits="userSpaceOnUse">
<stop stop-color="#F8D190"/>
<stop offset="1" stop-color="#E2AD3E"/>
</linearGradient>
<linearGradient id="paint61_linear_3849_159763" x1="0" y1="0" x2="1677.01" y2="138.478" gradientUnits="userSpaceOnUse">
<stop stop-color="#F8D190"/>
<stop offset="1" stop-color="#E2AD3E"/>
</linearGradient>
<linearGradient id="paint62_linear_3849_159763" x1="0" y1="0" x2="1677.01" y2="138.478" gradientUnits="userSpaceOnUse">
<stop stop-color="#F8D190"/>
<stop offset="1" stop-color="#E2AD3E"/>
</linearGradient>
<linearGradient id="paint63_linear_3849_159763" x1="0" y1="0" x2="1677.01" y2="138.478" gradientUnits="userSpaceOnUse">
<stop stop-color="#F8D190"/>
<stop offset="1" stop-color="#E2AD3E"/>
</linearGradient>
<linearGradient id="paint64_linear_3849_159763" x1="0" y1="0" x2="1677.01" y2="138.478" gradientUnits="userSpaceOnUse">
<stop stop-color="#F8D190"/>
<stop offset="1" stop-color="#E2AD3E"/>
</linearGradient>
<linearGradient id="paint65_linear_3849_159763" x1="0" y1="0" x2="1677.01" y2="138.478" gradientUnits="userSpaceOnUse">
<stop stop-color="#F8D190"/>
<stop offset="1" stop-color="#E2AD3E"/>
</linearGradient>
<linearGradient id="paint66_linear_3849_159763" x1="0" y1="0" x2="1677.01" y2="138.478" gradientUnits="userSpaceOnUse">
<stop stop-color="#F8D190"/>
<stop offset="1" stop-color="#E2AD3E"/>
</linearGradient>
<linearGradient id="paint67_linear_3849_159763" x1="0" y1="0" x2="1677.01" y2="138.478" gradientUnits="userSpaceOnUse">
<stop stop-color="#F8D190"/>
<stop offset="1" stop-color="#E2AD3E"/>
</linearGradient>
<linearGradient id="paint68_linear_3849_159763" x1="0" y1="0" x2="1677.01" y2="138.478" gradientUnits="userSpaceOnUse">
<stop stop-color="#F8D190"/>
<stop offset="1" stop-color="#E2AD3E"/>
</linearGradient>
<linearGradient id="paint69_linear_3849_159763" x1="0" y1="0" x2="1677.01" y2="138.478" gradientUnits="userSpaceOnUse">
<stop stop-color="#F8D190"/>
<stop offset="1" stop-color="#E2AD3E"/>
</linearGradient>
<linearGradient id="paint70_linear_3849_159763" x1="0" y1="0" x2="1677.01" y2="138.478" gradientUnits="userSpaceOnUse">
<stop stop-color="#F8D190"/>
<stop offset="1" stop-color="#E2AD3E"/>
</linearGradient>
<linearGradient id="paint71_linear_3849_159763" x1="0" y1="0" x2="1677.01" y2="138.478" gradientUnits="userSpaceOnUse">
<stop stop-color="#F8D190"/>
<stop offset="1" stop-color="#E2AD3E"/>
</linearGradient>
<linearGradient id="paint72_linear_3849_159763" x1="0" y1="0" x2="1677.01" y2="138.478" gradientUnits="userSpaceOnUse">
<stop stop-color="#F8D190"/>
<stop offset="1" stop-color="#E2AD3E"/>
</linearGradient>
<linearGradient id="paint73_linear_3849_159763" x1="0" y1="0" x2="1677.01" y2="138.478" gradientUnits="userSpaceOnUse">
<stop stop-color="#F8D190"/>
<stop offset="1" stop-color="#E2AD3E"/>
</linearGradient>
<linearGradient id="paint74_linear_3849_159763" x1="0" y1="0" x2="1677.01" y2="138.478" gradientUnits="userSpaceOnUse">
<stop stop-color="#F8D190"/>
<stop offset="1" stop-color="#E2AD3E"/>
</linearGradient>
<linearGradient id="paint75_linear_3849_159763" x1="0" y1="0" x2="1677.01" y2="138.478" gradientUnits="userSpaceOnUse">
<stop stop-color="#F8D190"/>
<stop offset="1" stop-color="#E2AD3E"/>
</linearGradient>
<linearGradient id="paint76_linear_3849_159763" x1="0" y1="0" x2="1677.01" y2="138.478" gradientUnits="userSpaceOnUse">
<stop stop-color="#F8D190"/>
<stop offset="1" stop-color="#E2AD3E"/>
</linearGradient>
<linearGradient id="paint77_linear_3849_159763" x1="0" y1="0" x2="1677.01" y2="138.478" gradientUnits="userSpaceOnUse">
<stop stop-color="#F8D190"/>
<stop offset="1" stop-color="#E2AD3E"/>
</linearGradient>
<linearGradient id="paint78_linear_3849_159763" x1="0" y1="0" x2="1677.01" y2="138.478" gradientUnits="userSpaceOnUse">
<stop stop-color="#F8D190"/>
<stop offset="1" stop-color="#E2AD3E"/>
</linearGradient>
<linearGradient id="paint79_linear_3849_159763" x1="0" y1="0" x2="1677.01" y2="138.478" gradientUnits="userSpaceOnUse">
<stop stop-color="#F8D190"/>
<stop offset="1" stop-color="#E2AD3E"/>
</linearGradient>
</defs>
</svg>
