<svg width="24" height="24" viewBox="0 0 24 24" fill="none" xmlns="http://www.w3.org/2000/svg">
<path fill-rule="evenodd" clip-rule="evenodd" d="M8.9452 2.95766C10.1738 2.9124 11.3966 3.14624 12.5218 3.6416C13.647 4.13696 14.6453 4.88096 15.4415 5.81766C16.1023 6.59498 16.6097 7.48822 16.9391 8.4499H17.4995C18.6956 8.45069 19.8578 8.84975 20.8019 9.58411C21.7459 10.3185 22.4185 11.3463 22.7135 12.5054C23.0085 13.6644 22.9092 14.8888 22.4311 15.9851C21.953 17.0814 21.1234 17.9873 20.0733 18.5598C19.6854 18.7713 19.1995 18.6282 18.988 18.2403C18.7765 17.8524 18.9195 17.3665 19.3075 17.155C20.0455 16.7527 20.6285 16.116 20.9645 15.3455C21.3005 14.575 21.3703 13.7146 21.163 12.9C20.9556 12.0854 20.4829 11.3631 19.8195 10.847C19.156 10.3309 18.3396 10.0505 17.499 10.0499H16.3446C15.9798 10.0499 15.6613 9.80324 15.57 9.45014C15.3228 8.49402 14.8621 7.60638 14.2225 6.85395C13.5829 6.10152 12.781 5.50389 11.8771 5.10597C10.9733 4.70806 9.991 4.52022 9.00411 4.55658C8.01722 4.59294 7.05142 4.85255 6.17931 5.3159C5.3072 5.77925 4.55148 6.43428 3.96896 7.23173C3.38644 8.02919 2.99228 8.94833 2.81612 9.92005C2.63995 10.8918 2.68637 11.8908 2.95187 12.842C3.21738 13.7932 3.69506 14.6718 4.34902 15.4118C4.64159 15.7429 4.61038 16.2485 4.2793 16.541C3.94823 16.8336 3.44266 16.8024 3.15008 16.4713C2.33598 15.5501 1.74131 14.4563 1.41078 13.2721C1.08026 12.088 1.02247 10.8443 1.24178 9.63463C1.46108 8.42495 1.95177 7.28071 2.67695 6.28796C3.40213 5.2952 4.34292 4.47976 5.42861 3.90294C6.5143 3.32612 7.71663 3.00293 8.9452 2.95766ZM12.7067 11.2928C12.3161 10.9022 11.683 10.9022 11.2924 11.2928L7.62578 14.9594C7.23525 15.35 7.23525 15.9831 7.62578 16.3737C8.0163 16.7642 8.64947 16.7642 9.03999 16.3737L11.1995 14.2142V20.2499C11.1995 20.6917 11.5576 21.0499 11.9995 21.0499C12.4413 21.0499 12.7995 20.6917 12.7995 20.2499V14.214L14.9591 16.3737C15.3496 16.7642 15.9828 16.7642 16.3733 16.3737C16.7639 15.9831 16.7639 15.35 16.3733 14.9594L12.7067 11.2928Z" fill="white"/>
</svg>
