<svg width="20" height="20" viewBox="0 0 20 20" fill="none" xmlns="http://www.w3.org/2000/svg">
<path fill-rule="evenodd" clip-rule="evenodd" d="M10.5278 1.99747C10.3949 1.85781 10.2073 1.77075 9.99935 1.77075C9.99851 1.77075 9.99768 1.77075 9.99684 1.77076C9.97408 1.77083 9.95156 1.77195 9.92934 1.77407C9.90075 1.77679 9.87265 1.78117 9.84512 1.78709C9.71257 1.81558 9.58642 1.88132 9.48343 1.98432L5.31676 6.15099C5.032 6.43574 5.032 6.89743 5.31676 7.18218C5.60152 7.46694 6.0632 7.46694 6.34796 7.18218L9.27018 4.25996L9.27018 12.4999C9.27018 12.9026 9.59664 13.2291 9.99935 13.2291C10.4021 13.2291 10.7285 12.9026 10.7285 12.4999L10.7285 4.26061L13.6501 7.18218C13.9348 7.46694 14.3965 7.46694 14.6813 7.18218C14.966 6.89743 14.966 6.43574 14.6813 6.15099L10.5278 1.99747ZM2.49967 13.4375C2.90238 13.4375 3.22884 13.764 3.22884 14.1667V15.8334C3.22884 16.082 3.32761 16.3205 3.50343 16.4963C3.67924 16.6721 3.9177 16.7709 4.16634 16.7709H15.833C16.0816 16.7709 16.3201 16.6721 16.4959 16.4963C16.6717 16.3205 16.7705 16.082 16.7705 15.8334V14.1667C16.7705 13.764 17.097 13.4375 17.4997 13.4375C17.9024 13.4375 18.2288 13.764 18.2288 14.1667V15.8334C18.2288 16.4688 17.9764 17.0782 17.5271 17.5275C17.0778 17.9768 16.4684 18.2292 15.833 18.2292H4.16634C3.53093 18.2292 2.92154 17.9768 2.47223 17.5275C2.02293 17.0782 1.77051 16.4688 1.77051 15.8334V14.1667C1.77051 13.764 2.09697 13.4375 2.49967 13.4375Z" fill="#808080"/>
</svg>
