<svg width="16" height="16" viewBox="0 0 16 16" fill="none" xmlns="http://www.w3.org/2000/svg">
<path fill-rule="evenodd" clip-rule="evenodd" d="M8.00033 12.0833C5.3424 12.0833 3.08055 10.3777 2.25336 8C3.08055 5.62227 5.3424 3.91667 8.00033 3.91667C10.6589 3.91667 12.9201 5.62224 13.7473 8C12.9201 10.3778 10.6589 12.0833 8.00033 12.0833ZM8.00033 2.75C4.75361 2.75 2.00596 4.88438 1.08246 7.82524C1.04673 7.93901 1.04673 8.061 1.08246 8.17477C2.00596 11.1156 4.75361 13.25 8.00033 13.25C11.2478 13.25 13.9947 11.1156 14.9182 8.17477C14.9539 8.061 14.9539 7.93901 14.9182 7.82524C13.9947 4.88441 11.2478 2.75 8.00033 2.75ZM6.99859 6.99827C7.26427 6.73259 7.6246 6.58333 8.00033 6.58333C8.37605 6.58333 8.73639 6.73259 9.00206 6.99827C9.26774 7.26394 9.417 7.62428 9.417 8C9.417 8.37573 9.26774 8.73606 9.00206 9.00174C8.73639 9.26741 8.37605 9.41667 8.00033 9.41667C7.6246 9.41667 7.26427 9.26741 6.99859 9.00174C6.73292 8.73606 6.58366 8.37573 6.58366 8C6.58366 7.62428 6.73292 7.26394 6.99859 6.99827ZM8.00033 5.41667C7.31519 5.41667 6.6581 5.68884 6.17364 6.17331C5.68917 6.65778 5.41699 7.31486 5.41699 8C5.41699 8.68514 5.68917 9.34223 6.17364 9.8267C6.6581 10.3112 7.31519 10.5833 8.00033 10.5833C8.68547 10.5833 9.34255 10.3112 9.82702 9.8267C10.3115 9.34223 10.5837 8.68514 10.5837 8C10.5837 7.31486 10.3115 6.65778 9.82702 6.17331C9.34255 5.68884 8.68547 5.41667 8.00033 5.41667Z" fill="#4D4D4D"/>
</svg>
