<svg width="164" height="68" viewBox="0 0 164 68" fill="none" xmlns="http://www.w3.org/2000/svg">
<path fill-rule="evenodd" clip-rule="evenodd" d="M69.2701 8.29739C91.4376 7.63423 114.305 7.37158 137.127 15.5317C143.71 17.8856 150.744 21.489 155.634 25.5399C158.074 27.562 160.045 29.7486 161.126 32.0071C162.224 34.3 162.417 36.7123 161.198 39.0176C160.03 41.2251 157.959 42.9434 155.418 44.3163C152.872 45.6924 149.775 46.7647 146.44 47.6407C140.886 49.0997 134.531 50.0474 128.747 50.9101C127.596 51.0817 126.467 51.25 125.372 51.4183C114.691 53.0598 102.73 54.7577 90.089 53.5295C89.5393 53.4761 89.137 52.9872 89.1904 52.4375C89.2438 51.8878 89.7327 51.4855 90.2824 51.5389C102.646 52.7401 114.382 51.0837 125.069 49.4415C126.183 49.2702 127.325 49.0998 128.485 48.9267C134.271 48.0633 140.493 47.1349 145.932 45.7063C149.191 44.8503 152.118 43.8266 154.467 42.5568C156.823 41.2838 158.518 39.8064 159.43 38.0824C160.29 36.457 160.211 34.7265 159.322 32.8706C158.418 30.9804 156.69 29.0124 154.358 27.08C149.701 23.2222 142.894 19.7179 136.454 17.415C114.028 9.39644 91.511 9.63293 69.3299 10.2965C59.7823 10.5821 48.5124 10.9971 38.0403 12.1673C27.5352 13.3411 17.9697 15.2626 11.7582 18.4941C7.75794 20.5752 4.77944 23.2852 3.58339 26.2632C2.42904 29.1374 2.852 32.4743 6.12972 36.1309C10.3221 40.8078 16.6581 44.6207 24.076 47.6423C31.4818 50.6589 39.8946 52.858 48.1667 54.3469C62.2728 56.8857 70.4366 57.7657 78.8418 57.7271C85.0478 57.6986 91.3832 57.1708 100.349 56.4239C103.582 56.1545 107.158 55.8567 111.193 55.5434C111.743 55.5007 112.224 55.9124 112.267 56.463C112.31 57.0137 111.898 57.4947 111.347 57.5374C107.36 57.847 103.811 58.1427 100.589 58.4111C91.5853 59.1613 85.1415 59.6982 78.851 59.7271C70.271 59.7665 61.9718 58.8636 47.8125 56.3152C39.4459 54.8094 30.891 52.5778 23.3216 49.4945C15.7643 46.4162 9.11735 42.4601 4.64046 37.4658C0.957479 33.3571 0.235983 29.2315 1.72748 25.5178C3.17727 21.908 6.6349 18.9049 10.8351 16.7198C17.4008 13.3041 27.2896 11.3561 37.8182 10.1796C48.3797 8.99944 59.7229 8.58301 69.2701 8.29739Z" fill="#EAC78A"/>
</svg>
